<svg width="33" height="33" viewBox="0 0 33 33" fill="none" xmlns="http://www.w3.org/2000/svg">
<path d="M8.49255 15.9159C8.34251 16.0671 8.25678 16.2705 8.2533 16.4835L8.25 16.5L8.25165 16.5115C8.25429 16.7265 8.34073 16.9319 8.49255 17.0841L15.9176 24.5091C16.0725 24.6638 16.2825 24.7506 16.5014 24.7505C16.7203 24.7503 16.9302 24.6632 17.0849 24.5083C17.2396 24.3534 17.3264 24.1433 17.3263 23.9244C17.3261 23.7055 17.239 23.4956 17.0841 23.3409L11.0666 17.325L23.9267 17.325C24.1455 17.325 24.3553 17.2381 24.51 17.0834C24.6647 16.9286 24.7517 16.7188 24.7517 16.5C24.7517 16.2812 24.6647 16.0714 24.51 15.9166C24.3553 15.7619 24.1455 15.675 23.9267 15.675L11.0649 15.675L17.0824 9.6591C17.2371 9.50439 17.324 9.29459 17.324 9.07582C17.324 8.85707 17.2371 8.64726 17.0824 8.49255C16.9277 8.33788 16.7179 8.251 16.4992 8.251C16.2804 8.251 16.0706 8.33788 15.9159 8.49255L8.49255 15.9159ZM1.96761e-07 16.5C8.80897e-08 25.613 7.38705 33 16.5 33C25.6129 33 33 25.613 33 16.5C32.9901 7.392 25.608 0.00989944 16.5 1.96761e-07C7.38705 8.80897e-08 3.05431e-07 7.38705 1.96761e-07 16.5ZM31.35 16.5C31.35 18.4501 30.9659 20.3812 30.2196 22.1828C29.4733 23.9845 28.3795 25.6216 27.0005 27.0005C25.6216 28.3795 23.9845 29.4733 22.1828 30.2196C20.3812 30.9659 18.4501 31.35 16.5 31.35C14.5499 31.35 12.6188 30.9659 10.8172 30.2196C9.01547 29.4733 7.37841 28.3795 5.99946 27.0005C4.62051 25.6216 3.52667 23.9845 2.78039 22.1828C2.03411 20.3812 1.65 18.4501 1.65 16.5C1.65437 12.5629 3.22032 8.78825 6.00429 6.00429C8.78826 3.22032 12.5629 1.65437 16.5 1.65C20.4385 1.65 24.2156 3.21455 27.0005 5.99946C29.7855 8.78438 31.35 12.5615 31.35 16.5Z" fill="#8D8D8D"/>
</svg>
