<svg width="33" height="33" viewBox="0 0 33 33" fill="none" xmlns="http://www.w3.org/2000/svg">
<path d="M24.5074 17.0841C24.6575 16.9329 24.7432 16.7295 24.7467 16.5165L24.75 16.5L24.7483 16.4885C24.7457 16.2735 24.6593 16.0681 24.5074 15.9159L17.0824 8.4909C16.9275 8.3362 16.7175 8.24939 16.4986 8.24954C16.2797 8.2497 16.0698 8.33681 15.9151 8.49172C15.7604 8.64664 15.6736 8.85666 15.6737 9.07558C15.6739 9.29451 15.761 9.50441 15.9159 9.6591L21.9334 15.675L9.07335 15.675C8.85454 15.675 8.6447 15.7619 8.48999 15.9166C8.33527 16.0714 8.24835 16.2812 8.24835 16.5C8.24835 16.7188 8.33527 16.9286 8.48999 17.0834C8.6447 17.2381 8.85454 17.325 9.07335 17.325L21.9351 17.325L15.9176 23.3409C15.7629 23.4956 15.676 23.7054 15.676 23.9242C15.676 24.1429 15.7629 24.3527 15.9175 24.5075C16.0723 24.6621 16.2821 24.749 16.5008 24.749C16.7196 24.749 16.9294 24.6621 17.0841 24.5075L24.5074 17.0841ZM33 16.5C33 7.38705 25.613 -3.22898e-07 16.5 -7.21238e-07C7.38705 -1.11958e-06 -3.22898e-07 7.38705 -7.21238e-07 16.5C0.00989802 25.608 7.392 32.9901 16.5 33C25.6129 33 33 25.6129 33 16.5ZM1.65 16.5C1.65 14.5499 2.0341 12.6188 2.78039 10.8171C3.52667 9.01547 4.62051 7.37841 5.99946 5.99946C7.37841 4.62051 9.01546 3.52667 10.8171 2.78039C12.6188 2.03411 14.5499 1.65 16.5 1.65C18.4501 1.65 20.3812 2.03411 22.1828 2.78039C23.9845 3.52667 25.6216 4.62051 27.0005 5.99946C28.3795 7.37841 29.4733 9.01547 30.2196 10.8172C30.9659 12.6188 31.35 14.5499 31.35 16.5C31.3456 20.4371 29.7797 24.2117 26.9957 26.9957C24.2117 29.7797 20.4371 31.3456 16.5 31.35C12.5615 31.35 8.78438 29.7855 5.99946 27.0005C3.21455 24.2156 1.65 20.4385 1.65 16.5Z" fill="#8D8D8D"/>
</svg>
