<svg width="56" height="56" viewBox="0 0 56 56" fill="none" xmlns="http://www.w3.org/2000/svg">
<path d="M44.3333 11.6667V44.3333H11.6667V11.6667H44.3333ZM11.6667 7C10.429 7 9.242 7.49167 8.36683 8.36683C7.49167 9.242 7 10.429 7 11.6667V44.3333C7 45.571 7.49167 46.758 8.36683 47.6332C9.242 48.5083 10.429 49 11.6667 49H44.3333C45.571 49 46.758 48.5083 47.6332 47.6332C48.5083 46.758 49 45.571 49 44.3333V11.6667C49 10.429 48.5083 9.242 47.6332 8.36683C46.758 7.49167 45.571 7 44.3333 7H11.6667ZM38.5 35C38.5 35.9283 38.1312 36.8185 37.4749 37.4749C36.8185 38.1312 35.9283 38.5 35 38.5C34.0717 38.5 33.1815 38.1312 32.5251 37.4749C31.8687 36.8185 31.5 35.9283 31.5 35C31.5 34.0717 31.8687 33.1815 32.5251 32.5251C33.1815 31.8687 34.0717 31.5 35 31.5C35.9283 31.5 36.8185 31.8687 37.4749 32.5251C38.1312 33.1815 38.5 34.0717 38.5 35ZM21 24.5C21.9283 24.5 22.8185 24.1313 23.4749 23.4749C24.1313 22.8185 24.5 21.9283 24.5 21C24.5 20.0717 24.1313 19.1815 23.4749 18.5251C22.8185 17.8687 21.9283 17.5 21 17.5C20.0717 17.5 19.1815 17.8687 18.5251 18.5251C17.8687 19.1815 17.5 20.0717 17.5 21C17.5 21.9283 17.8687 22.8185 18.5251 23.4749C19.1815 24.1313 20.0717 24.5 21 24.5Z" fill="#F4A261"/>
</svg>
