<svg width="56" height="56" viewBox="0 0 56 56" fill="none" xmlns="http://www.w3.org/2000/svg">
<path d="M44.3333 11.6667V44.3333H11.6667V11.6667H44.3333ZM44.3333 7H11.6667C9.1 7 7 9.1 7 11.6667V44.3333C7 46.9 9.1 49 11.6667 49H44.3333C46.9 49 49 46.9 49 44.3333V11.6667C49 9.1 46.9 7 44.3333 7ZM17.5 14C15.6333 14 14 15.6333 14 17.5C14 19.3667 15.6333 21 17.5 21C19.3667 21 21 19.3667 21 17.5C21 15.6333 19.3667 14 17.5 14ZM38.5 35C36.6333 35 35 36.6333 35 38.5C35 40.3667 36.6333 42 38.5 42C40.3667 42 42 40.3667 42 38.5C42 36.6333 40.3667 35 38.5 35ZM38.5 14C36.6333 14 35 15.6333 35 17.5C35 19.3667 36.6333 21 38.5 21C40.3667 21 42 19.3667 42 17.5C42 15.6333 40.3667 14 38.5 14ZM28 24.5C26.1333 24.5 24.5 26.1333 24.5 28C24.5 29.8667 26.1333 31.5 28 31.5C29.8667 31.5 31.5 29.8667 31.5 28C31.5 26.1333 29.8667 24.5 28 24.5ZM17.5 35C15.6333 35 14 36.6333 14 38.5C14 40.3667 15.6333 42 17.5 42C19.3667 42 21 40.3667 21 38.5C21 36.6333 19.3667 35 17.5 35Z" fill="#F4A261"/>
</svg>
