<svg width="56" height="56" viewBox="0 0 56 56" fill="none" xmlns="http://www.w3.org/2000/svg">
<path d="M44.3333 11.6667V44.3333H11.6667V11.6667H44.3333ZM44.3333 7H11.6667C9.1 7 7 9.1 7 11.6667V44.3333C7 46.9 9.1 49 11.6667 49H44.3333C46.9 49 49 46.9 49 44.3333V11.6667C49 9.1 46.9 7 44.3333 7ZM17.5 14C15.6333 14 14 15.6333 14 17.5C14 19.3667 15.6333 21 17.5 21C19.3667 21 21 19.3667 21 17.5C21 15.6333 19.3667 14 17.5 14ZM38.5 35C36.6333 35 35 36.6333 35 38.5C35 40.3667 36.6333 42 38.5 42C40.3667 42 42 40.3667 42 38.5C42 36.6333 40.3667 35 38.5 35ZM38.5 24.5C36.6333 24.5 35 26.1333 35 28C35 29.8667 36.6333 31.5 38.5 31.5C40.3667 31.5 42 29.8667 42 28C42 26.1333 40.3667 24.5 38.5 24.5ZM38.5 14C36.6333 14 35 15.6333 35 17.5C35 19.3667 36.6333 21 38.5 21C40.3667 21 42 19.3667 42 17.5C42 15.6333 40.3667 14 38.5 14ZM17.5 24.5C15.6333 24.5 14 26.1333 14 28C14 29.8667 15.6333 31.5 17.5 31.5C19.3667 31.5 21 29.8667 21 28C21 26.1333 19.3667 24.5 17.5 24.5ZM17.5 35C15.6333 35 14 36.6333 14 38.5C14 40.3667 15.6333 42 17.5 42C19.3667 42 21 40.3667 21 38.5C21 36.6333 19.3667 35 17.5 35Z" fill="#F4A261"/>
</svg>
