<svg width="1024" height="1024" viewBox="0 0 1024 1024" fill="none" xmlns="http://www.w3.org/2000/svg">
<g clip-path="url(#clip0_145_340)">
<path d="M0 424.728L0.0874939 424.214C1.42256 416.002 1.66172 407.497 2.57766 399.215C3.97102 386.617 6.366 373.849 9.47724 361.567C26.2647 295.3 64.3292 237.925 112.755 190.534C126.548 177.036 141.247 163.838 156.881 152.486C171.577 141.816 186.811 131.35 202.481 122.164C318.847 53.9546 466.225 23.0187 599.881 44.4402C728.116 64.9927 822.859 131.899 897.988 235.867C901.517 240.795 904.981 245.768 908.382 250.786C911.783 255.804 915.118 260.865 918.387 265.97C921.656 271.074 924.859 276.219 927.995 281.406C931.132 286.593 934.201 291.82 937.202 297.087C940.203 302.353 943.136 307.657 946 313C948.864 318.342 951.658 323.72 954.383 329.135C957.108 334.55 959.762 339.998 962.346 345.481C964.93 350.964 967.443 356.48 969.884 362.028C972.325 367.576 974.695 373.155 976.992 378.765C979.289 384.374 981.513 390.012 983.664 395.679C985.815 401.346 987.893 407.04 989.897 412.761C991.9 418.482 993.83 424.227 995.685 429.998C997.54 435.769 999.322 441.562 1001.03 447.378C1002.73 453.195 1004.36 459.033 1005.92 464.892C1007.47 470.751 1008.95 476.628 1010.35 482.525C1011.76 488.422 1013.08 494.337 1014.33 500.268C1017.47 515.872 1019.93 531.923 1021.71 547.735C1022.63 555.894 1022.4 564.675 1024 572.677V667.836C1022.3 675.49 1022.4 684.17 1021.67 692.008C1020.41 704.437 1018.78 716.818 1016.78 729.149C1011.84 758.539 1004.43 788.039 993.64 815.856C978.687 854.4 954.027 896.479 926.566 927.49C902.383 954.799 873.338 974.714 836.651 980.709C827.974 982.127 819.169 982.53 810.405 983.065C791.228 962.451 772.303 941.755 752.158 922.056C732.049 902.67 711.436 883.836 690.319 865.554C669.202 847.273 647.61 829.569 625.545 812.443C580.277 776.782 533.548 742.351 484.421 712.151C475.272 706.548 466.038 701.089 456.719 695.774C447.4 690.459 438.001 685.291 428.52 680.27C419.039 675.249 409.482 670.377 399.849 665.655C390.216 660.932 380.512 656.361 370.737 651.942C360.961 647.523 351.119 643.257 341.21 639.146C331.301 635.034 321.33 631.078 311.297 627.278C301.265 623.477 291.176 619.835 281.029 616.35C270.882 612.865 260.684 609.539 250.434 606.373C227.903 599.352 205.121 593.27 182.088 588.125C136.246 577.853 87.6627 572.102 48.4789 543.942C24.7548 526.892 8.82566 502.624 3.28103 473.886C1.62469 465.301 1.5341 456.52 0.0932181 447.92L0 447.386V424.728ZM619.918 186.538C618.4 184.344 616.899 182.146 615.266 180.034C595.334 179.942 575.33 180.416 555.41 179.8C547.314 169.342 538.421 159.413 530.088 149.124C524.038 141.655 518.267 133.203 511.652 126.286L508.187 129.519C521.767 146.723 535.339 163.853 549.917 180.23L543.556 180.359C534.622 167.793 525.905 154.995 516.432 142.833C513.434 138.982 510.484 134.818 507.067 131.333C505.785 131.365 505.252 131.793 504.228 132.525C503.974 135.452 534.198 175.027 538.563 180.543C521.962 181.363 505.178 182.017 488.558 182.075C488.519 167.489 488.536 152.786 487.771 138.222C484.407 138.08 481.042 137.981 477.676 137.925L477.493 182.274C451.254 182.619 425.019 183.446 398.776 183.275C389.225 183.213 378.541 183.975 369.125 182.318C363.489 181.326 358.369 178.373 352.874 176.842C351.742 180.046 350.651 183.236 349.173 186.302C359.946 191.331 370.898 195.402 381.936 199.78C402.964 208.12 424.235 216.228 444.851 225.534C446.623 222.049 448.343 218.572 450.542 215.329C437.499 209.891 424.369 204.674 411.15 199.679C401.992 196.22 392.598 193.044 383.613 189.16C393.318 189.607 403.087 189.064 412.805 189.052L477.663 188.87L477.668 199.881C481.279 199.743 485.88 199.057 489.4 199.697C492.101 200.188 494.618 202.521 497.367 202.528C504.284 202.546 511.806 200.798 518.704 199.864C529.433 198.493 540.174 197.219 550.927 196.041C553.74 199.305 556.496 202.647 559.395 205.833C545.88 211.156 532.331 216.395 518.75 221.548C520.793 224.539 521.759 227.401 522.446 230.935C536.498 224.324 551.27 219.388 565.458 213.065C580.202 230.661 594.698 248.459 608.945 266.459C589.469 261.585 569.944 256.918 550.369 252.459C541.03 250.29 531.772 247.825 522.334 246.108C521.092 250.127 519.631 253.868 517.762 257.636C525.025 262.538 536.809 278.416 542.945 285.636L536.302 284.798C533.128 280.201 520.364 263.418 515.475 262.311C515.284 262.268 515.086 262.259 514.891 262.234L514.352 263.756L514.213 263.552C516.141 269.808 525.356 278.51 529.798 283.729C519.923 281.991 504.327 278.313 494.975 278.17C493.664 279.753 493.846 282.154 493.819 284.144C507.903 286.571 522.006 288.883 536.129 291.078C542.712 300.679 550.168 309.878 557.869 318.605C545.183 323.649 532.268 328.026 519.565 332.991C523.916 350.044 532.352 353.971 541.547 367.613C531.792 364.251 528.61 360.572 521.576 353.43C520.898 355.747 520.258 358.081 519.535 360.383C523.894 362.884 527.394 366.52 530.901 370.069C526.436 368.83 522.001 367.489 517.597 366.047C516.691 367.964 515.728 369.872 514.883 371.816C522.222 373.678 529.644 375.399 536.858 377.701C543.685 385.758 550.261 393.964 556.878 402.194C561.013 407.338 565.396 412.39 569.159 417.808C558.482 414.768 547.811 411.54 536.944 409.243C527.507 398.946 518.242 388.496 509.149 377.893C508.059 378.793 506.851 379.674 505.858 380.674C509.499 385.124 513.181 389.54 516.904 393.923C520.571 398.118 524.27 402.285 528.002 406.423C524.232 405.218 520.415 403.788 516.559 402.908L501.35 384.212L497.402 385.997C497.772 388.664 506.07 397.587 508.378 399.911C502.029 397.622 495.397 395.573 489.229 392.858C488.114 392.367 488.35 390.71 487.07 390.418C484.188 389.759 480.108 390.462 477.102 390.475C477.334 401.162 477.426 411.851 477.379 422.541C480.873 422.829 484.462 422.97 487.922 423.521L488.005 399.505C496.095 401.843 505.607 403.991 512.983 407.994C518.698 411.096 526.627 421.256 531.449 426.265C536.297 431.298 541.268 436.206 546.363 440.989C537.382 444.421 528.321 447.625 519.179 450.601C519.838 453.915 520.414 457.243 520.905 460.586C532.535 456.584 544.333 451.735 556.244 448.737C576.886 466.508 596.823 485.03 618.357 501.752L621.546 498.508C614.281 492.674 563.586 451.075 561.757 446.669C563.153 446.232 564.553 445.81 565.958 445.401C579.584 457.552 593.495 469.367 607.692 480.846C613.541 485.54 619.712 489.849 625.519 494.581C629.103 492.415 632.558 490.504 636.512 489.094C624.892 470.995 611.712 453.942 599.298 436.381L615.222 431.971C614.195 430.013 613.194 428.086 612.348 426.04C607.854 427.31 599.647 430.769 595.114 429.959C594.307 428.994 593.706 428.746 593.821 427.433C598.565 424.355 605.25 423.485 610.558 421.509C610.099 419.159 609.748 416.895 609.566 414.503C602.09 416.34 594.841 419.18 587.372 420.901C577.556 408.114 567.46 395.179 558.347 381.889C568.527 385.161 578.772 388.215 589.082 391.05C596.343 393.079 603.887 394.811 610.932 397.479C612.256 394.05 613.713 390.772 615.358 387.485C607.031 378.637 600.17 367.675 593.079 357.808C585.397 347.12 577.271 336.727 569.676 325.985C571.234 325.235 572.78 324.46 574.388 323.82C580.75 332.651 587.267 341.365 593.939 349.964C602.416 360.864 611.183 371.65 618.637 383.289L623.552 380.063C618.149 373.683 613.451 366.737 608.27 360.175C598.418 347.694 588.09 335.426 579.636 321.92C589.861 318.479 602.092 315.513 611.348 310.075L606.708 302.11C594.78 305.483 583.453 310.564 571.586 314.001C566.066 307.295 560.995 300.206 555.859 293.204C566.076 295.494 576.5 296.698 586.874 298.024C591.678 298.639 596.901 299.775 601.738 299.657C603.529 299.613 605.836 299.427 607.31 298.28C607.491 298.139 607.636 297.958 607.798 297.796C607.393 296.346 607.12 295.974 605.761 295.266C600.066 292.302 560.067 288.545 549.812 286.343C542.269 276.178 533.284 267.231 525.608 257.208C544.545 261.586 563.433 266.165 582.273 270.944C591.478 273.279 600.673 276.224 609.975 278.089C611.128 273.948 612.843 270.816 615.259 267.287L614.809 266.593C609.466 258.41 572.234 214.749 571.575 211.426C572.219 210.154 572.421 210.164 573.718 209.517C574.094 209.604 574.508 209.592 574.845 209.78C576.999 210.979 611.464 252.324 616.263 257.898C617.266 259.062 619.375 262.079 620.954 261.054C621.906 260.436 622.496 259.75 623.246 258.914C608.899 241.609 594.548 224.222 579.467 207.548C586.458 204.723 619.257 192.78 621.926 189.379C621.523 187.987 620.938 187.502 619.918 186.538ZM347.557 324.253L344.607 328.886C354.131 338.294 362.833 348.099 371.561 358.23C362.696 354.465 349.699 339.021 342.821 331.515L339.458 334.787C345.171 341.158 350.737 348.119 357.08 353.859L342.645 349.064C340.697 345.124 339.105 340.803 336.876 337.042C334.13 338.249 331.591 339.546 329.033 341.113C331.646 343.5 334.307 345.851 336.875 348.285C334.109 347.576 327.611 344.984 325.077 345.747L324.613 346.409C325.459 348.61 327.744 349.501 329.799 350.428C333.181 351.953 336.723 353.115 340.103 354.632C347.888 368.097 354.969 382.044 362.533 395.651C357.878 397.011 353.205 398.309 348.516 399.545L351.584 408.74C356.712 407.21 361.728 405.456 366.76 403.646C371.483 414.64 377.641 425.121 382.138 436.127C371.88 433.487 361.833 430.062 351.664 427.103C350.562 429.668 349.508 432.266 348.292 434.778C360.781 437.477 373.202 442.487 385.812 444.153C387.793 447.44 389.672 450.734 391.419 454.152C382.722 451.972 373.999 449.9 365.25 447.935C358.014 446.37 350.626 445.128 343.454 443.321L339.109 447.743C357.394 453.492 376.579 455.977 394.768 461.702C400.932 471.708 406.973 481.818 413.284 491.73C404.907 493.518 396.365 494.628 387.912 496.005L357.829 501.18C352.096 502.147 346.192 502.846 340.531 504.128L344.754 508.708C355.541 507.432 366.297 505.929 377.021 504.2C385.355 502.783 394.613 500.18 403.025 500.112C386.411 507.603 368.572 512.463 351.841 519.776L354.168 525.035C375.118 516.62 396.442 509.324 417.561 501.365C425.747 513.092 432.817 525.477 440.25 537.68C447.394 549.255 454.737 560.701 462.28 572.02C463.636 571.38 465.074 570.786 466.381 570.057C451.92 546.407 436.636 523.331 422.563 499.431C424.118 498.798 425.668 498.144 427.233 497.537C430.69 507.229 443.319 525.606 449.131 535.148C454.879 544.585 460.18 554.65 466.32 563.803C467.288 565.247 468.718 567.286 470.274 568.108C470.846 568.41 470.887 568.385 471.43 568.492C472.223 567.715 472.131 568.11 472.115 567.097C472.013 560.472 437.899 507.898 432.099 497.095C437.577 495.019 443.112 493.335 448.677 491.53L443.213 485.957C438.148 488.233 432.815 487.458 427.547 488.945C422.866 481.12 418.303 473.227 413.857 465.266C421.564 467.777 429.903 468.678 437.826 470.384L437.952 464.202C428.786 462.204 419.452 460.078 410.183 458.643C408.657 455.988 407.179 453.307 405.75 450.598C416.371 454.259 427.367 456.992 438.214 459.892L439.617 453.683C427.185 449.868 410.686 446.324 399.335 440.721L382.487 414.433C379.708 410.12 376.538 405.883 374.076 401.395C383.46 399.201 392.238 395.156 401.495 392.656C416.156 408.988 431.41 424.722 446.271 440.868L449.918 436.065C443.1 431.142 433.647 419.264 427.441 412.76C420.701 405.87 413.897 398.997 407.861 391.468C412.686 390.23 417.255 388.336 422.019 386.931C429.399 404.008 439.169 420.83 450.411 435.653L453.747 432.014C449.47 425.554 427.045 390.978 427.179 386.006C427.185 385.776 427.282 385.557 427.333 385.332C428.36 384.783 427.932 384.76 428.925 385.05C431.928 385.925 433.859 390.015 435.101 392.583C441.36 405.523 448.663 417.856 455.489 430.491L459.548 427.84C455.241 419.425 450.414 411.32 445.845 403.049C442.274 396.584 439.025 389.942 435.419 383.498L440.648 381.395C449.028 383.193 457.22 385.69 465.566 387.543C461.924 385.672 453.692 382.366 450.918 380.229L452.401 378.891C451.995 376.71 447.187 372.439 445.52 370.593C442.443 371.199 440.007 372.213 437.155 373.464C434.724 373.392 432.279 373.266 429.848 373.251C424.015 362.1 417.694 351.25 411.751 340.17C420.332 343.075 429.339 346.085 438.278 347.598C439.307 346.827 439.664 346.725 440.065 345.526C439.463 344.033 438.352 343.433 436.944 342.818C431.007 340.222 411.915 337.349 408.671 334.079L408.315 333.063C412.636 330.727 436.825 342.362 439.82 339.202C439.98 337.753 440.394 337.013 439.509 335.782C428.747 331.337 415.396 329.327 404.081 325.576L383.334 283.964C391.109 281.193 398.838 278.3 406.521 275.286C412.844 284.126 420.922 292.179 428.173 300.291C434.833 307.741 441.217 315.701 448.393 322.648L452.078 318.73C442.73 309.835 434.361 299.836 425.687 290.287C420.948 285.07 415.349 279.96 411.106 274.393L411.457 273.74C412.756 273.377 413.313 273.326 414.549 273.951C418.427 275.913 422.143 281.386 425.251 284.498C434.762 294.019 447.039 307.045 457.16 315.306L460.781 312.615C448.08 297.858 433.32 284.53 419.601 270.702C429.647 267.537 439.917 264.539 449.795 260.89C448.313 258.33 446.863 255.797 445.615 253.112C438.794 255.503 431.884 257.598 424.884 259.396C420.359 260.53 415.575 261.249 411.17 262.734C402.33 252.868 391.076 244.753 381.559 235.442C375.247 229.267 368.931 223.049 363.017 216.49C356.561 209.33 350.483 201.783 343.945 194.714C341.602 197.096 339.326 199.546 336.637 201.546C346.178 218.156 353.679 235.506 361.867 252.776C363.509 256.239 368.157 263.523 368.49 266.927L367.96 267.649C366.711 267.828 365.971 267.915 364.771 267.492C358.867 259.149 352.906 241.43 348.691 231.381C344.577 221.574 339.741 211.992 336.437 201.87L331.777 204.028C335.921 215.096 341.116 225.936 345.733 236.834C350.214 247.41 354.261 258.767 359.767 268.829C350.994 269.865 342.212 270.814 333.42 271.676C335.253 273.296 337.128 274.881 338.829 276.641C346.418 275.893 354.035 275.251 361.607 274.347C362.914 276.477 364.175 278.656 365.552 280.74C359.55 282.784 353.519 284.74 347.46 286.608C348.439 289.586 349.463 292.548 350.532 295.495C356.98 293.286 363.445 290.824 369.993 288.951C375.628 299.485 380.906 310.195 385.827 321.081C374.556 317.931 363.371 314.503 352.272 310.796L351.023 316.634C357.162 318.17 387.274 325.076 389.634 328.865C389.947 329.368 389.871 329.271 389.76 329.802C382.801 328.704 353.394 320.222 349.578 320.847C348.871 321.971 348.195 323.088 347.557 324.253ZM942.655 479.232C933.366 473.813 925.2 464.554 916.883 457.604L863.905 413.293C854.017 405.048 844.235 396.343 833.882 388.698C832.264 391.561 830.699 394.466 828.868 397.2C857.415 420.014 885.366 443.793 913.512 467.107C924.279 476.025 934.661 486.936 946.374 494.501C946.918 497.255 947.434 499.984 948.287 502.663C940.706 500.259 932.55 499.194 924.717 497.916C909.113 495.371 893.374 493.454 877.796 490.833C864.945 472.276 851.936 453.83 838.769 435.495C832.282 426.364 826.312 416.32 819.138 407.733C818.551 407.03 818.035 406.669 817.238 406.249C816.007 406.444 815.161 407.171 814.174 407.877C813.926 409.306 815.752 411.409 816.604 412.624L871.213 489.106L870.894 489.688C866.93 488.692 858.493 476.626 855.579 473.102C845.899 461.395 836.436 449.557 826.394 438.151C821.071 432.105 808.273 419.22 804.743 413.609C804.304 412.911 804.096 412.268 803.829 411.49C803.733 411.208 803.628 410.93 803.533 410.648C803.468 410.457 803.411 410.264 803.35 410.072L795.016 409.356C795.012 419.661 795.09 429.966 795.25 440.27C798.476 440.099 801.725 440.004 804.943 439.749C804.328 433.32 804.286 426.906 804.521 420.455C811.632 430.022 820.299 438.527 828.13 447.513C839.697 461.022 850.956 474.782 861.907 488.795C854.596 487.633 847.114 486.28 839.721 485.83C839.206 488.178 838.742 490.533 837.974 492.814C848.112 494.846 858.457 496.645 868.792 497.245C877.706 507.902 885.555 519.85 893.835 531.036C884.401 536.053 875.093 541.111 866.116 546.918C856.109 536.319 845.706 526.662 834.894 516.896C832.098 514.371 829.026 510.676 825.736 508.951C824.312 509.305 823.73 509.727 822.646 510.649C823.652 516.162 860.149 546.453 860.209 549.545C858.899 550.08 856.545 551.499 855.188 550.939C852.923 550.004 844.646 542.143 842.235 540.125C832.745 532.181 823.001 524.96 813.273 517.355L807.913 519.361C822.223 531.24 837.091 542.302 851.112 554.572C845.506 557.982 839.563 560.817 833.994 564.267C834.87 566.247 835.4 567.841 835.625 569.992L835.71 570.764C835.726 570.919 835.737 571.074 835.75 571.229C842.609 567.379 849.368 563.028 856.522 559.769C872.101 571.255 886.878 583.707 902.196 595.525C917.277 607.159 932.725 618.271 947.439 630.378C951.003 633.311 956.013 636.625 958.767 640.306L958.648 640.984C954.07 642.226 948.507 641.98 943.746 642.312L913.432 644.503C879.329 647.002 844.983 650.863 810.811 651.753C809.074 642.069 807.294 632.434 805.085 622.843L796.39 623.681C797.739 633.397 799.538 643.273 800.191 653.059C763.41 654.942 726.785 658.646 690.051 661.068L690.381 671.058C700.41 671.083 710.504 669.958 720.495 669.162C737.417 667.781 754.349 666.528 771.29 665.403C781.187 664.685 791.262 663.523 801.185 663.471C806.796 686.874 808.773 711.363 812.447 735.143L832.406 861.96C835.659 882.856 838.857 903.681 842.536 924.513C843.866 932.039 844.856 939.633 846.485 947.102C824.036 909.717 801.263 872.531 778.164 835.545C767.048 817.869 755.364 800.459 744.569 782.595C736.687 770.115 728.922 757.538 720.859 745.174C708.816 726.711 696.573 708.441 685.276 689.495L682.048 692.834C692.541 711.82 705.607 729.829 717.262 748.151L792.15 866.38C803.935 885.47 815.581 904.644 827.089 923.902C832.124 932.333 841.413 950.114 847.708 956.572C846.65 958.613 845.508 960.45 844.156 962.309C807.313 900.64 769.54 839.546 730.837 779.027C722.457 765.758 713.837 752.609 705.695 739.193C697.79 726.169 690.267 712.652 681.564 700.145C680.473 698.577 679.339 697.487 677.684 696.538L676.892 696.495C676.281 697.571 676.414 698.111 676.732 699.262C678.579 705.958 692.881 726.12 697.229 733.166L780.451 866.28L805.424 907.77C809.787 914.945 814.474 921.918 818.763 929.135C826.228 941.698 833.145 955.013 841.422 967.052C840.381 968.13 839.737 968.516 839.441 970.009C840.151 970.742 840.287 970.926 841.374 970.964C850.523 971.287 863.249 962.616 869.349 956.479C881.59 944.165 891.22 927.99 900.037 913.147C951.036 827.295 977.997 707.682 977.116 608.316C976.495 538.157 960.804 474.591 933.391 410.281C924.607 389.673 915.3 369.664 904.306 350.113C888.688 322.338 870.488 295.939 852.127 269.931C844.919 259.722 837.993 249.233 830.54 239.205L822.283 248.239C830.257 261.356 839.699 273.72 848.221 286.499C865.159 311.895 881.706 338.407 895.585 365.606C877.287 366.301 858.837 365.712 840.509 365.994C840.524 369.971 840.348 373.699 839.81 377.635C850.026 376.847 860.305 377.183 870.542 377.262C880.961 377.342 891.441 377.214 901.847 377.696C914.311 403.581 925.651 429.703 935.145 456.836C937.71 464.167 940.758 471.713 942.655 479.232ZM478.699 60.6433C468.38 62.2749 459.602 66.7336 453.379 75.3378C453.022 75.8299 452.677 76.3306 452.344 76.8399C452.012 77.3491 451.692 77.8663 451.385 78.3914C451.078 78.9164 450.785 79.4488 450.504 79.9885C450.223 80.5281 449.956 81.0743 449.703 81.6272C449.45 82.18 449.21 82.7388 448.985 83.3036C448.759 83.8684 448.547 84.4384 448.35 85.0136C448.153 85.5888 447.97 86.1686 447.801 86.7529C447.632 87.3372 447.477 87.9252 447.338 88.5172C447.199 89.1091 447.074 89.7042 446.963 90.3023C446.853 90.9004 446.758 91.5009 446.678 92.1038C446.597 92.7066 446.532 93.311 446.481 93.9172C446.431 94.5232 446.396 95.1302 446.375 95.7381C446.355 96.3459 446.35 96.9538 446.359 97.562C446.369 98.17 446.394 98.7775 446.434 99.3844C446.474 99.9915 446.529 100.597 446.599 101.201C446.668 101.805 446.753 102.407 446.853 103.007C448.393 112.336 454.057 121.242 461.776 126.685C468.95 131.744 478.687 134.299 487.408 133.21C498.163 131.093 506.338 126.313 512.561 117.114C512.905 116.612 513.236 116.102 513.555 115.583C513.874 115.065 514.179 114.539 514.472 114.005C514.765 113.472 515.044 112.931 515.31 112.384C515.576 111.837 515.828 111.283 516.067 110.723C516.306 110.164 516.531 109.598 516.742 109.027C516.953 108.456 517.149 107.881 517.331 107.3C517.514 106.719 517.682 106.135 517.835 105.546C517.988 104.957 518.127 104.365 518.251 103.769C518.376 103.173 518.485 102.575 518.58 101.974C518.675 101.373 518.754 100.769 518.819 100.164C518.884 99.5592 518.933 98.9529 518.968 98.3453C519.003 97.7378 519.023 97.1297 519.028 96.5212C519.033 95.9127 519.022 95.3043 518.997 94.6963C518.972 94.0883 518.932 93.4812 518.877 92.8752C518.822 92.2691 518.752 91.6648 518.667 91.0623C518.582 90.4597 518.482 89.8596 518.367 89.2619C518.245 88.6698 518.109 88.0811 517.958 87.4958C517.807 86.9104 517.642 86.3291 517.463 85.7518C517.284 85.1745 517.091 84.6019 516.884 84.0341C516.677 83.4662 516.456 82.9038 516.221 82.3468C515.986 81.7897 515.738 81.2388 515.476 80.6939C515.214 80.149 514.939 79.6109 514.651 79.0795C514.363 78.5481 514.062 78.024 513.749 77.5073C513.435 76.9906 513.109 76.4819 512.77 75.9812C512.431 75.4805 512.081 74.9884 511.718 74.5048C511.355 74.0213 510.981 73.5468 510.595 73.0816C510.209 72.6164 509.812 72.1609 509.404 71.7151C508.996 71.2693 508.577 70.8338 508.147 70.4085C507.718 69.9832 507.278 69.5686 506.828 69.1649C506.379 68.7611 505.919 68.3685 505.45 67.9873C504.981 67.606 504.503 67.2365 504.016 66.8786C503.529 66.5207 503.033 66.175 502.529 65.8414C495.185 61.0257 487.286 60.0876 478.699 60.6433ZM523.985 103.105C523.116 106.907 522.142 110.568 520.864 114.255C540.965 123.713 561.421 132.517 581.748 141.483C591.388 145.735 600.914 150.988 610.908 154.31C612.048 151.07 613.112 147.775 614.364 144.578L523.985 103.105ZM440.813 104.486C409.569 117.573 378.629 131.342 347.993 145.793C349.197 148.689 350.729 154.27 352.697 156.494C368.378 149.989 383.781 142.677 399.264 135.711C414.623 128.813 430.071 122.123 445.609 115.641C444.104 112.083 443.096 108.133 441.473 104.69L440.813 104.486ZM647.795 127.158C637.66 128.62 628.469 132.952 622.218 141.318C621.891 141.754 621.574 142.198 621.269 142.649C620.964 143.101 620.67 143.56 620.387 144.026C620.104 144.492 619.833 144.965 619.574 145.444C619.315 145.923 619.067 146.409 618.832 146.901C618.597 147.392 618.374 147.89 618.163 148.393C617.952 148.896 617.754 149.403 617.568 149.915C617.382 150.428 617.209 150.945 617.049 151.466C616.889 151.987 616.742 152.511 616.607 153.04C616.473 153.568 616.352 154.099 616.244 154.634C616.136 155.168 616.041 155.705 615.959 156.244C615.878 156.783 615.81 157.323 615.755 157.866C615.7 158.408 615.659 158.951 615.631 159.496C615.603 160.04 615.588 160.585 615.587 161.13C615.586 161.675 615.598 162.22 615.624 162.765C615.65 163.309 615.689 163.852 615.742 164.395C615.795 164.938 615.861 165.479 615.94 166.018C616.02 166.581 616.114 167.141 616.222 167.698C616.33 168.256 616.452 168.811 616.588 169.362C616.724 169.913 616.873 170.461 617.036 171.006C617.199 171.55 617.375 172.09 617.565 172.625C617.755 173.16 617.958 173.691 618.174 174.216C618.39 174.741 618.619 175.261 618.862 175.775C619.104 176.288 619.359 176.796 619.626 177.297C619.893 177.798 620.173 178.293 620.465 178.78C620.757 179.267 621.061 179.747 621.376 180.219C621.692 180.691 622.02 181.155 622.359 181.611C622.698 182.067 623.048 182.514 623.409 182.952C623.77 183.391 624.142 183.82 624.524 184.24C624.907 184.66 625.3 185.07 625.703 185.47C626.106 185.871 626.518 186.261 626.941 186.64C627.364 187.02 627.795 187.389 628.236 187.748C628.677 188.106 629.126 188.453 629.584 188.789C636.413 193.751 645.143 196.644 653.621 195.836C663.883 194.507 672.62 188.926 678.9 180.731C679.215 180.328 679.519 179.918 679.813 179.5C680.107 179.082 680.39 178.657 680.663 178.225C680.935 177.792 681.196 177.353 681.446 176.908C681.697 176.462 681.936 176.01 682.163 175.553C682.39 175.095 682.606 174.632 682.809 174.163C683.013 173.694 683.205 173.221 683.385 172.743C683.565 172.264 683.733 171.782 683.888 171.295C684.043 170.808 684.186 170.318 684.317 169.824C684.448 169.33 684.566 168.833 684.671 168.333C684.776 167.833 684.869 167.331 684.949 166.826C685.029 166.321 685.096 165.815 685.151 165.307C685.205 164.798 685.246 164.289 685.275 163.779C685.304 163.269 685.319 162.758 685.322 162.247C685.325 161.736 685.314 161.226 685.291 160.715C685.268 160.204 685.232 159.695 685.183 159.186C685.134 158.677 685.073 158.17 684.998 157.665C683.692 148.255 678.101 138.851 670.451 133.213C664.083 128.519 655.671 126.21 647.795 127.158ZM307.911 132.615C297.637 134.865 288.892 140.671 283.175 149.584C282.844 150.101 282.525 150.626 282.22 151.159C281.915 151.692 281.623 152.233 281.344 152.78C281.065 153.327 280.8 153.88 280.548 154.441C280.297 155.001 280.059 155.567 279.834 156.139C279.61 156.71 279.4 157.287 279.205 157.87C279.009 158.452 278.827 159.038 278.66 159.629C278.493 160.22 278.341 160.815 278.203 161.414C278.065 162.012 277.942 162.613 277.833 163.218C277.724 163.823 277.631 164.429 277.552 165.038C277.473 165.647 277.409 166.258 277.36 166.87C277.311 167.483 277.277 168.096 277.258 168.71C277.239 169.323 277.236 169.937 277.247 170.552C277.258 171.166 277.284 171.779 277.325 172.392C277.366 173.005 277.422 173.616 277.493 174.226C277.564 174.836 277.65 175.444 277.751 176.05C277.852 176.656 277.967 177.259 278.098 177.859C280.062 186.808 285.889 194.386 293.59 199.225C301.265 204.048 308.962 205.066 317.804 203.92C328.514 201.566 337.106 196.866 343.129 187.432C348.693 178.717 349.862 168.579 347.637 158.572C345.637 149.574 340.708 142.849 332.965 137.942C324.991 132.889 317.174 131.791 307.911 132.615ZM689.875 166.948C689.215 170.552 688.565 174.141 687.667 177.695C704.729 183.76 721.644 190.211 738.412 197.048C741.072 198.139 754.036 204.057 756.006 203.995C756.356 203.984 756.67 203.774 757.002 203.663C758.274 200.514 759.47 197.297 760.881 194.21C738.127 183.6 713.916 174.185 689.875 166.948ZM791.222 180.628C781.028 182.665 772.079 187.458 766.17 196.276C760.939 204.082 758.679 214.777 760.547 224.006C762.439 233.354 767.654 241.2 775.621 246.458C783.688 251.782 793.452 253.418 802.921 251.852C813.345 249.54 822.136 243.491 827.842 234.392C832.683 226.673 833.976 217.103 831.829 208.273C829.501 198.704 823.054 189.895 814.558 184.895C807.135 180.526 799.644 180.01 791.222 180.628ZM274.964 185.981C263.365 191.331 252.286 197.716 241.06 203.795L203.553 223.746C204.609 226.218 206.601 232.971 208.52 234.417L209.72 234.06C227.636 225.431 244.914 215.401 262.332 205.818C268.71 202.308 275.374 199.326 281.716 195.758C279.731 192.939 277.438 188.159 274.964 185.981ZM675.363 191.061L671.383 193.607C675.986 201.074 681.201 208.206 686.222 215.396C691.094 222.374 695.943 229.932 701.777 236.147C686.624 240.995 670.622 244.416 655.084 247.788L654.859 200.901C651.231 200.987 647.61 201.104 643.983 200.94C644.064 218.104 644.395 235.306 644.089 252.468C648.346 252.5 652.996 253.59 657.139 253.233C662.245 252.792 667.462 251.281 672.451 250.138C682.608 247.895 692.698 245.381 702.719 242.595C707.014 247.622 711.806 252.795 715.347 258.386C705.221 264.887 694.943 271.139 684.512 277.14C685.523 280.535 686.611 283.924 687.328 287.395C698.564 280.573 709.672 273.548 720.652 266.321C730.409 281.228 741.669 295.249 752.507 309.377C759.86 318.962 766.884 328.859 774.313 338.368C775.691 337.288 777.131 336.241 778.381 335.013C770.732 323.599 761.473 312.867 753.102 301.941C749.747 297.507 724.975 266.316 725.4 262.811C726.689 262.64 727.272 263.111 728.264 263.879C732.61 267.245 736.478 273.578 739.819 277.946L768.357 315.177C771.809 319.69 777.215 327.882 781.17 331.458C782.253 332.436 782.464 332.412 783.832 332.378C784.892 331.726 785.665 331.335 786.331 330.248C783.843 324.062 777.142 317.963 773.098 312.635C759.413 294.298 745.445 276.178 731.194 258.276C741.601 252.255 751.753 245.832 761.65 239.005L758.154 233.325L726.186 252.553C722.491 248.443 718.895 244.248 715.4 239.967C729.319 236.965 743.319 233.904 757.436 232.009L755.252 225.56C740.451 228.599 725.618 231.477 710.753 234.193C704.632 225.686 696.87 218.437 690.205 210.354C685.535 204.69 679.973 195.976 675.363 191.061ZM476.91 204.63C467.371 206.557 459.118 210.929 453.603 219.167C448.051 227.46 446.223 237.138 448.264 246.9C450.287 256.576 455.962 264.387 464.257 269.685C472.276 274.807 480.271 275.503 489.449 273.925C499.816 271.068 508.058 265.332 513.482 255.906C517.8 248.402 519.575 239.929 517.284 231.449C514.738 222.021 507.655 212.732 499.124 207.951C492.305 204.129 484.527 203.758 476.91 204.63ZM165.445 208.212C155.044 209.02 145.386 213.243 138.472 221.24C132.128 228.579 129.302 238.716 130.134 248.31C130.187 248.941 130.255 249.569 130.339 250.196C130.423 250.823 130.523 251.448 130.639 252.069C130.755 252.691 130.887 253.31 131.034 253.925C131.181 254.54 131.343 255.152 131.521 255.759C131.699 256.366 131.892 256.968 132.1 257.565C132.309 258.162 132.532 258.754 132.77 259.34C133.009 259.926 133.262 260.506 133.529 261.079C133.796 261.652 134.078 262.219 134.375 262.778C134.671 263.337 134.981 263.888 135.305 264.431C135.629 264.974 135.966 265.509 136.317 266.036C136.668 266.562 137.032 267.079 137.409 267.587C137.786 268.095 138.176 268.593 138.579 269.081C138.981 269.57 139.395 270.048 139.822 270.515C140.248 270.982 140.686 271.438 141.136 271.883C141.585 272.328 142.046 272.762 142.517 273.184C142.988 273.606 143.47 274.016 143.962 274.413C151.537 280.609 159.867 283.292 169.609 282.979C180.294 281.469 190.537 276.889 197.128 268C203.159 259.867 205.243 248.648 203.702 238.749C202.217 229.209 197.038 221.204 189.211 215.614C181.973 210.444 174.252 208.346 165.445 208.212ZM316.777 209.253C313.575 209.406 310.403 209.517 307.196 209.454L307.274 251.026C307.276 254.116 306.57 260.753 307.274 263.54C307.362 263.888 307.734 264.09 307.965 264.364L308.875 264.395C312.006 264.433 315.143 264.43 318.272 264.52C318.399 252.095 318.449 239.669 318.42 227.244C318.389 221.489 318.727 215.43 318.086 209.719L317.405 209.142L316.777 209.253ZM208.733 254.224C207.414 258.02 206.172 261.866 204.478 265.514L247.828 284.142C255.315 287.399 265.303 292.742 273.065 294.537C274.491 290.727 276.088 287.146 277.968 283.539C267.464 278.572 256.505 274.466 245.823 269.886C233.537 264.618 221.284 258.804 208.733 254.224ZM645.385 255.686C635.207 256.888 625.988 260.981 619.476 269.139C613.508 276.614 610.632 285.696 611.718 295.236C611.787 295.814 611.871 296.39 611.968 296.965C612.066 297.539 612.178 298.11 612.303 298.679C612.428 299.248 612.567 299.813 612.72 300.375C612.873 300.937 613.04 301.495 613.22 302.049C613.4 302.603 613.594 303.152 613.801 303.696C614.008 304.241 614.228 304.78 614.461 305.313C614.694 305.847 614.94 306.375 615.199 306.897C615.458 307.418 615.73 307.933 616.014 308.442C616.298 308.95 616.594 309.451 616.902 309.945C617.211 310.439 617.531 310.925 617.863 311.404C618.196 311.883 618.539 312.353 618.894 312.814C619.249 313.275 619.616 313.728 619.993 314.172C620.37 314.616 620.758 315.05 621.156 315.475C621.555 315.9 621.963 316.315 622.382 316.72C622.8 317.125 623.228 317.519 623.666 317.903C624.104 318.288 624.551 318.661 625.007 319.023C631.977 324.449 640.452 326.645 649.167 326.631C649.747 326.598 650.326 326.552 650.904 326.491C651.482 326.43 652.058 326.354 652.632 326.264C653.207 326.175 653.778 326.071 654.347 325.953C654.916 325.834 655.481 325.702 656.044 325.556C656.607 325.41 657.165 325.25 657.72 325.076C658.275 324.903 658.824 324.715 659.369 324.514C659.914 324.313 660.454 324.098 660.989 323.871C661.524 323.643 662.052 323.402 662.575 323.148C663.098 322.894 663.614 322.627 664.123 322.347C664.632 322.068 665.135 321.776 665.63 321.471C666.125 321.166 666.612 320.85 667.091 320.521C667.57 320.192 668.041 319.852 668.503 319.5C668.966 319.148 669.419 318.785 669.863 318.41C670.308 318.035 670.743 317.65 671.168 317.254C671.593 316.858 672.008 316.452 672.413 316.035C672.818 315.618 673.213 315.192 673.597 314.756C673.99 314.309 674.371 313.853 674.742 313.387C675.112 312.921 675.47 312.446 675.817 311.962C676.163 311.478 676.497 310.986 676.819 310.485C677.141 309.985 677.45 309.477 677.747 308.961C678.043 308.445 678.326 307.922 678.597 307.392C678.868 306.861 679.125 306.325 679.368 305.782C679.612 305.239 679.842 304.691 680.058 304.136C680.274 303.581 680.476 303.022 680.665 302.458C680.853 301.893 681.027 301.324 681.187 300.751C681.347 300.178 681.492 299.601 681.623 299.02C681.754 298.44 681.871 297.857 681.973 297.27C682.075 296.684 682.162 296.096 682.235 295.505C682.308 294.914 682.365 294.322 682.408 293.729C682.451 293.135 682.48 292.541 682.493 291.946C682.506 291.351 682.505 290.756 682.489 290.161C682.472 289.566 682.441 288.972 682.395 288.379C681.734 278.841 677.502 270.357 670.244 264.113C663.494 258.305 654.329 254.942 645.385 255.686ZM805.643 256.205C802.476 256.63 799.312 257.093 796.129 257.377C795.963 265.552 794.993 326.145 796.34 328.204L797.034 328.296L805.805 328.55C805.873 319.539 807.38 260.097 806.127 256.377L805.643 256.205ZM311.382 269.192C300.492 270.15 291.39 274.467 284.294 282.933C278.516 289.827 275.761 297.836 276.585 306.857C277.492 316.795 282.325 325.458 290.025 331.76C296.516 337.073 303.784 339.51 312.126 339.765C322.676 339.344 330.79 336.682 338.136 328.831C344.1 322.458 347.047 314.382 346.67 305.661C346.214 295.127 342.326 285.317 334.459 278.136C328.11 272.341 320.009 269.032 311.382 269.192ZM477.485 279.435C477.523 288.216 477.666 296.995 477.915 305.772C480.295 305.781 485.487 306.447 487.535 305.391C488.254 296.778 488.171 288.067 488.294 279.427L477.485 279.435ZM161.006 287.479C160.655 301.011 160.791 314.494 160.93 328.027C165.049 327.994 169.112 327.93 173.209 328.446C173.538 315.056 174.064 301.154 173.07 287.799C169.047 287.773 165.019 287.801 161.006 287.479ZM478.49 310.675C467.762 311.992 458.754 315.98 451.946 324.617C445.443 332.867 442.476 343.006 443.744 353.459C443.819 354.061 443.908 354.661 444.012 355.258C444.116 355.856 444.235 356.451 444.368 357.042C444.501 357.634 444.649 358.222 444.812 358.806C444.975 359.391 445.151 359.971 445.342 360.546C445.533 361.122 445.739 361.693 445.958 362.258C446.177 362.823 446.41 363.383 446.657 363.937C446.904 364.491 447.164 365.039 447.438 365.58C447.712 366.121 447.999 366.655 448.3 367.182C448.6 367.709 448.913 368.228 449.239 368.74C449.565 369.251 449.903 369.754 450.254 370.249C450.605 370.744 450.967 371.23 451.342 371.707C451.717 372.184 452.103 372.651 452.501 373.109C452.899 373.567 453.308 374.015 453.727 374.452C454.147 374.89 454.578 375.317 455.019 375.733C455.46 376.15 455.911 376.555 456.372 376.949C456.833 377.344 457.303 377.726 457.783 378.097C465.07 383.777 472.9 385.782 482.021 385.449C492.94 384.106 501.775 380.273 508.73 371.445C515.35 363.042 517.735 352.609 516.388 342.083C515.155 332.438 509.909 324.065 502.164 318.253C495.639 313.357 486.756 309.918 478.49 310.675ZM682.696 310.257C680.598 313.404 678.474 316.44 676.079 319.37C685.148 323.119 693.957 327.527 702.857 331.658L735.143 346.404C743.727 350.395 752.299 354.776 761.168 358.084C763.014 357.149 765.111 350.039 766.375 347.786C738.19 335.928 710.297 323.418 682.696 310.257ZM272.444 315.462C256.357 322.971 240.402 330.748 224.578 338.795C217.596 342.353 210.434 345.711 203.704 349.723C204.858 352.135 206.84 358.894 208.359 360.274L208.974 360.066C232.095 348.832 255.605 337.939 278.129 325.537C277.081 323.355 274.612 316.478 272.571 315.488C272.532 315.47 272.487 315.471 272.444 315.462ZM670.252 323.883L665.9 326.329C680.13 340.609 694.9 354.261 709.265 368.382C716.221 375.22 722.628 382.712 729.747 389.355C727.404 389.586 725.064 389.839 722.727 390.114C714.474 379.516 704.556 371.094 695.237 361.53C684.474 350.486 674.381 338.571 662.631 328.547L657.783 330.281C664.359 337.825 671.893 344.655 678.851 351.863C691.554 365.02 704.131 378.694 717.723 390.934C707.739 392.753 697.698 394.167 687.6 395.176L689.934 403.173C701.29 401.078 712.707 399.397 724.184 398.13C729.574 404.633 734.239 411.773 739.286 418.547C748.452 430.85 758.014 442.88 765.856 456.104C767.089 454.948 768.368 453.818 769.559 452.621C763.768 443.182 756.639 434.514 749.871 425.761C746.292 420.939 731.297 402.286 729.89 398.082L730.209 397.289C734.206 397.747 753.544 422.678 757.25 427.342C762.831 434.366 768.465 441.433 773.682 448.731L778.209 446.379C769.35 434.695 760.372 422.959 751.048 411.645C747.491 407.328 740.533 401.101 738.152 396.688C739.229 396.382 739.682 396.262 740.795 396.766C743.288 397.894 746.72 401.68 748.877 403.543C756.479 410.107 764.162 416.639 771.493 423.504C777.2 428.848 782.662 434.705 788.629 439.734C789.247 440.256 789.773 440.473 790.53 440.723C791.491 440.087 791.528 439.925 791.799 438.743C792.121 437.342 791.862 436.103 791.093 434.891C788.884 431.409 784.682 428.682 781.626 425.898C770.163 415.456 758.945 405.118 746.944 395.266C753.446 394.561 760.321 394.203 766.694 392.761C765.674 390.223 764.688 387.688 763.397 385.272C754.618 386.713 745.693 388.077 736.808 388.615C729.38 381.125 674.671 324.858 670.252 323.883ZM649.693 331.301L643.589 331.52L643.33 370.291C645.095 370.17 646.856 370.052 648.615 369.87C650.778 369.703 652.949 369.486 655.119 369.465C655.112 364.871 655.683 332.47 654.432 331.038C652.811 331.014 651.302 331.096 649.693 331.301ZM162.864 333.13C152.137 334.939 142.189 340.381 135.851 349.404C135.526 349.876 135.213 350.356 134.912 350.844C134.611 351.331 134.322 351.826 134.045 352.328C133.768 352.83 133.504 353.338 133.252 353.853C133 354.368 132.761 354.888 132.535 355.415C132.309 355.942 132.096 356.474 131.896 357.011C131.696 357.548 131.509 358.09 131.336 358.636C131.163 359.183 131.003 359.733 130.856 360.287C130.71 360.841 130.577 361.398 130.458 361.959C130.339 362.52 130.234 363.083 130.143 363.649C130.052 364.215 129.975 364.783 129.912 365.352C129.849 365.921 129.799 366.492 129.764 367.065C129.729 367.637 129.708 368.209 129.701 368.782C129.694 369.355 129.701 369.928 129.722 370.501C129.743 371.074 129.779 371.646 129.828 372.217C129.877 372.788 129.941 373.357 130.018 373.925C130.095 374.493 130.187 375.059 130.292 375.622C130.404 376.222 130.531 376.819 130.672 377.412C130.813 378.005 130.968 378.595 131.138 379.181C131.308 379.767 131.492 380.348 131.691 380.925C131.889 381.502 132.101 382.074 132.328 382.64C132.554 383.207 132.794 383.767 133.048 384.322C133.301 384.877 133.568 385.426 133.849 385.967C134.13 386.509 134.423 387.044 134.73 387.571C135.037 388.098 135.356 388.618 135.688 389.13C136.02 389.641 136.364 390.145 136.721 390.64C137.078 391.135 137.446 391.621 137.826 392.098C138.207 392.575 138.599 393.042 139.002 393.5C139.405 393.958 139.819 394.406 140.244 394.843C140.669 395.281 141.105 395.708 141.551 396.124C141.997 396.54 142.453 396.945 142.918 397.339C143.384 397.734 143.859 398.116 144.343 398.487C144.828 398.858 145.321 399.216 145.823 399.563C153.796 404.953 162.345 406.294 171.779 405.417C182.474 403.23 191.712 398.465 197.822 389.116C203.227 380.847 204.707 370.945 202.618 361.36C200.454 351.428 194.877 343.801 186.276 338.395C178.91 333.766 171.444 332.435 162.864 333.13ZM799.896 333.204C789.158 334.012 779.919 338.09 772.764 346.331C772.379 346.77 772.004 347.217 771.641 347.674C771.278 348.131 770.927 348.597 770.587 349.071C770.247 349.546 769.919 350.028 769.602 350.519C769.286 351.01 768.982 351.508 768.691 352.013C768.4 352.519 768.121 353.032 767.855 353.551C767.589 354.07 767.336 354.596 767.096 355.128C766.856 355.66 766.629 356.198 766.416 356.741C766.202 357.284 766.002 357.833 765.816 358.386C765.63 358.939 765.458 359.496 765.299 360.058C765.14 360.62 764.996 361.185 764.865 361.754C764.734 362.323 764.618 362.894 764.516 363.469C764.413 364.044 764.325 364.621 764.252 365.2C764.178 365.779 764.119 366.359 764.074 366.941C764.029 367.523 763.998 368.106 763.982 368.689C763.966 369.272 763.964 369.856 763.977 370.439C763.99 371.023 764.017 371.606 764.059 372.188C764.099 372.767 764.154 373.346 764.223 373.923C764.292 374.5 764.376 375.074 764.474 375.647C764.573 376.22 764.686 376.789 764.813 377.356C764.94 377.923 765.082 378.486 765.237 379.046C765.393 379.605 765.563 380.161 765.747 380.712C765.931 381.263 766.129 381.809 766.34 382.35C766.552 382.891 766.777 383.427 767.016 383.956C767.255 384.486 767.507 385.009 767.772 385.526C768.037 386.043 768.315 386.552 768.606 387.055C768.897 387.558 769.201 388.054 769.517 388.541C769.833 389.028 770.161 389.507 770.502 389.978C770.843 390.449 771.195 390.91 771.559 391.363C771.922 391.816 772.297 392.26 772.684 392.693C773.07 393.127 773.467 393.551 773.875 393.965C774.283 394.379 774.701 394.782 775.129 395.175C775.558 395.567 775.996 395.948 776.443 396.319C783.435 402.208 791.067 404.459 800.068 404.862C810.576 404.029 819.989 399.833 826.96 391.739C827.347 391.287 827.723 390.826 828.087 390.355C828.452 389.884 828.804 389.405 829.144 388.917C829.485 388.429 829.813 387.933 830.129 387.428C830.445 386.924 830.748 386.412 831.038 385.892C831.329 385.373 831.606 384.846 831.87 384.313C832.134 383.78 832.385 383.24 832.623 382.695C832.86 382.149 833.084 381.598 833.294 381.041C833.504 380.484 833.7 379.923 833.882 379.356C834.065 378.789 834.233 378.219 834.386 377.644C834.54 377.069 834.68 376.49 834.805 375.909C834.93 375.327 835.04 374.742 835.136 374.155C835.232 373.568 835.313 372.978 835.38 372.387C835.447 371.796 835.5 371.203 835.537 370.609C835.574 370.015 835.597 369.42 835.604 368.825C835.612 368.23 835.605 367.635 835.583 367.04C835.562 366.445 835.525 365.852 835.474 365.259C835.421 364.684 835.354 364.111 835.273 363.54C835.192 362.968 835.096 362.399 834.987 361.832C834.878 361.265 834.754 360.702 834.617 360.141C834.48 359.58 834.328 359.024 834.163 358.471C833.998 357.918 833.819 357.369 833.627 356.825C833.434 356.28 833.228 355.741 833.009 355.207C832.79 354.673 832.558 354.145 832.313 353.623C832.068 353.1 831.809 352.584 831.538 352.074C831.267 351.565 830.984 351.062 830.688 350.566C830.392 350.071 830.084 349.583 829.763 349.103C829.443 348.622 829.111 348.15 828.768 347.687C828.424 347.223 828.069 346.768 827.703 346.322C827.337 345.876 826.96 345.439 826.572 345.011C826.184 344.584 825.786 344.166 825.377 343.759C824.968 343.351 824.55 342.954 824.121 342.567C823.693 342.18 823.255 341.804 822.808 341.439C816.117 335.926 808.557 333.22 799.896 333.204ZM307.598 344.541C306.265 355.324 306.561 366.657 306.676 377.524C310.39 377.439 314.137 377.253 317.845 377.481C318.694 366.675 318.206 355.488 318.167 344.632C314.606 344.786 311.155 344.769 307.598 344.541ZM208.245 374.048C207.393 377.923 206.485 381.71 205.275 385.489C211.705 388.397 269.721 409.292 272.548 408.679C273.919 404.89 275.352 401.176 276.984 397.492C262.211 392.598 247.473 387.598 232.772 382.492C224.617 379.657 216.555 376.385 208.245 374.048ZM649.383 374.191C638.463 375.248 629.061 378.828 621.869 387.44C615.7 394.827 613.344 403.995 614.233 413.498C615.091 422.662 619.035 431.593 626.239 437.504C633.006 443.057 641.548 445.937 650.252 446.149C659.882 445.517 669.551 441.479 676.013 434.151C682.617 426.66 685.635 416.393 684.891 406.512C684.146 396.617 680.236 388.319 672.665 381.805C672.277 381.473 671.881 381.151 671.478 380.838C671.075 380.525 670.664 380.222 670.247 379.929C669.829 379.636 669.404 379.352 668.973 379.079C668.542 378.806 668.105 378.543 667.661 378.291C667.218 378.038 666.768 377.797 666.313 377.566C665.858 377.335 665.397 377.115 664.931 376.906C664.466 376.697 663.995 376.5 663.52 376.313C663.045 376.126 662.566 375.951 662.082 375.787C661.599 375.624 661.112 375.472 660.621 375.331C660.13 375.19 659.637 375.062 659.14 374.945C658.643 374.828 658.144 374.722 657.642 374.629C657.14 374.536 656.636 374.454 656.131 374.385C655.625 374.316 655.118 374.259 654.609 374.214C654.101 374.169 653.592 374.136 653.082 374.115C652.572 374.094 652.062 374.085 651.551 374.088C651.041 374.092 650.531 374.108 650.021 374.135C649.808 374.148 649.596 374.172 649.383 374.191ZM306.744 382.078C296.417 384.358 287.403 389.803 281.638 398.849C281.319 399.359 281.013 399.876 280.719 400.401C280.426 400.926 280.145 401.457 279.878 401.995C279.611 402.534 279.356 403.078 279.115 403.629C278.874 404.18 278.647 404.737 278.433 405.299C278.22 405.861 278.02 406.428 277.834 406.999C277.648 407.571 277.476 408.147 277.318 408.727C277.161 409.308 277.017 409.891 276.888 410.478C276.759 411.065 276.644 411.655 276.543 412.248C276.443 412.841 276.357 413.436 276.286 414.033C276.215 414.63 276.158 415.229 276.116 415.828C276.074 416.428 276.047 417.029 276.034 417.63C276.021 418.231 276.023 418.832 276.04 419.433C276.057 420.034 276.088 420.634 276.134 421.233C276.18 421.833 276.241 422.431 276.316 423.027C276.391 423.624 276.481 424.218 276.586 424.81C276.69 425.403 276.809 425.992 276.942 426.578C278.989 435.56 285.037 443.679 292.866 448.477C300.41 453.101 308.267 453.928 316.928 453.415C327.177 451.194 335.99 446.021 341.701 437.035C342.026 436.532 342.339 436.021 342.638 435.502C342.937 434.983 343.224 434.457 343.497 433.924C343.77 433.391 344.029 432.852 344.275 432.305C344.521 431.759 344.753 431.207 344.972 430.649C345.19 430.092 345.394 429.529 345.585 428.961C345.775 428.393 345.951 427.821 346.112 427.244C346.274 426.667 346.421 426.086 346.553 425.502C346.686 424.918 346.803 424.331 346.906 423.741C347.009 423.151 347.098 422.559 347.171 421.964C347.244 421.369 347.303 420.773 347.346 420.176C347.389 419.579 347.418 418.981 347.432 418.382C347.445 417.783 347.444 417.184 347.427 416.585C347.41 415.986 347.379 415.388 347.333 414.791C347.286 414.194 347.225 413.598 347.148 413.004C347.072 412.41 346.981 411.818 346.875 411.229C346.769 410.639 346.648 410.052 346.513 409.469C346.384 408.904 346.24 408.342 346.083 407.783C345.926 407.225 345.755 406.671 345.57 406.121C345.385 405.571 345.187 405.026 344.976 404.486C344.764 403.946 344.539 403.412 344.301 402.883C344.063 402.354 343.812 401.832 343.547 401.315C343.283 400.799 343.006 400.289 342.717 399.786C342.428 399.283 342.126 398.788 341.812 398.301C341.498 397.813 341.172 397.333 340.835 396.862C340.497 396.39 340.148 395.927 339.787 395.473C339.426 395.019 339.055 394.574 338.672 394.138C338.289 393.702 337.896 393.276 337.492 392.86C337.089 392.443 336.675 392.037 336.251 391.641C335.827 391.246 335.393 390.861 334.95 390.486C334.507 390.112 334.055 389.749 333.594 389.397C333.133 389.045 332.663 388.705 332.185 388.376C331.707 388.047 331.221 387.731 330.728 387.426C323.313 382.872 315.353 381.241 306.744 382.078ZM161.187 410.434C161.024 421.361 160.963 432.289 161.002 443.218C165.146 443.128 169.281 443.016 173.424 443.179L173.497 410.425C169.386 410.517 165.298 410.593 161.187 410.434ZM687.022 426.466C685.178 429.506 683.194 432.283 680.982 435.067C697.725 443.466 714.538 451.723 731.42 459.838C739.647 463.781 747.868 468.024 756.299 471.51C758.047 470.752 760.068 464.452 760.946 462.414C748.178 455.642 734.981 449.651 721.974 443.353C710.359 437.729 698.806 431.711 687.022 426.466ZM474.253 428.125C463.936 429.951 455.666 433.905 449.495 442.662C444.035 450.41 441.386 460.821 443.023 470.203C444.726 479.963 450.502 489.231 458.638 494.917C466.119 500.144 475.15 501.843 484.134 500.9C494.35 499.054 502.964 494.007 508.965 485.405C514.641 477.272 517.255 466.77 515.482 456.964C515.377 456.391 515.258 455.82 515.125 455.253C514.992 454.686 514.844 454.122 514.683 453.562C514.522 453.001 514.347 452.445 514.158 451.894C513.969 451.343 513.767 450.796 513.551 450.255C513.334 449.714 513.105 449.178 512.862 448.648C512.619 448.119 512.364 447.595 512.095 447.078C511.826 446.561 511.545 446.05 511.251 445.547C510.956 445.044 510.65 444.549 510.331 444.061C510.012 443.573 509.682 443.093 509.339 442.622C508.996 442.15 508.642 441.687 508.276 441.234C507.911 440.78 507.534 440.335 507.146 439.9C506.758 439.465 506.36 439.04 505.951 438.625C505.542 438.21 505.122 437.805 504.693 437.41C504.264 437.016 503.826 436.633 503.377 436.26C502.929 435.887 502.472 435.526 502.006 435.176C501.539 434.826 501.065 434.488 500.582 434.162C493.032 429.088 483.257 426.882 474.253 428.125ZM272.358 431.925C250.258 444.141 226.903 454.599 204.378 466.08C205.277 468.608 206.765 474.777 208.779 476.345L209.883 476.062C232.799 465.321 256.391 454.096 278.86 442.477C277.603 440.125 274.642 432.892 272.358 431.925ZM795.282 444.665C784.103 446.156 775.074 451.453 768.214 460.444C762.344 468.137 759.775 477.184 761.123 486.806C762.39 495.848 766.765 504.061 774.154 509.541C774.627 509.885 775.107 510.218 775.595 510.54C776.083 510.863 776.578 511.174 777.079 511.474C777.581 511.774 778.089 512.063 778.604 512.34C779.119 512.618 779.639 512.884 780.166 513.138C780.693 513.392 781.225 513.634 781.762 513.864C782.299 514.095 782.842 514.313 783.389 514.519C783.936 514.725 784.488 514.919 785.043 515.1C785.599 515.281 786.159 515.45 786.722 515.607C787.285 515.763 787.852 515.907 788.422 516.038C788.992 516.169 789.564 516.287 790.139 516.392C790.714 516.497 791.292 516.59 791.871 516.669C792.45 516.749 793.031 516.816 793.613 516.869C794.196 516.922 794.779 516.963 795.363 516.99C795.947 517.017 796.531 517.032 797.116 517.033C797.701 517.034 798.285 517.023 798.869 516.998C799.453 516.973 800.036 516.935 800.619 516.884C810.993 515.651 819.714 512.455 826.425 504.05C832.435 496.523 835.669 486.371 834.552 476.761C834.475 476.152 834.384 475.545 834.278 474.94C834.171 474.335 834.05 473.734 833.914 473.135C833.778 472.536 833.628 471.94 833.463 471.349C833.298 470.758 833.118 470.171 832.924 469.588C832.73 469.005 832.522 468.428 832.3 467.855C832.077 467.283 831.841 466.716 831.591 466.155C831.341 465.594 831.077 465.04 830.8 464.492C830.523 463.944 830.232 463.403 829.929 462.87C829.625 462.336 829.308 461.81 828.979 461.292C828.649 460.774 828.307 460.264 827.953 459.763C827.598 459.262 827.232 458.769 826.853 458.286C826.474 457.803 826.083 457.329 825.681 456.864C825.279 456.4 824.866 455.946 824.442 455.502C824.018 455.058 823.583 454.625 823.137 454.202C822.692 453.779 822.236 453.368 821.771 452.968C821.305 452.567 820.83 452.179 820.345 451.802C819.904 451.463 819.456 451.134 819 450.815C818.544 450.497 818.081 450.19 817.61 449.893C817.139 449.596 816.661 449.311 816.177 449.038C815.693 448.764 815.203 448.502 814.706 448.252C814.209 448.001 813.707 447.763 813.199 447.536C812.691 447.309 812.178 447.095 811.66 446.892C811.141 446.69 810.619 446.5 810.092 446.323C809.565 446.145 809.033 445.98 808.498 445.828C807.963 445.675 807.425 445.536 806.884 445.409C806.342 445.282 805.798 445.168 805.251 445.067C804.704 444.966 804.154 444.879 803.603 444.804C803.052 444.729 802.5 444.667 801.945 444.618C801.391 444.569 800.836 444.534 800.281 444.511C799.725 444.488 799.169 444.479 798.613 444.483C798.056 444.487 797.5 444.504 796.945 444.535C796.39 444.565 795.835 444.608 795.282 444.665ZM166.425 448.221C155.661 449.009 147.105 453.4 140.061 461.626C133.651 469.113 130.785 478.719 131.548 488.513C131.596 489.114 131.659 489.713 131.738 490.31C131.817 490.907 131.91 491.502 132.019 492.094C132.128 492.687 132.251 493.276 132.389 493.863C132.527 494.449 132.68 495.031 132.847 495.61C133.015 496.189 133.197 496.763 133.393 497.332C133.59 497.901 133.8 498.466 134.025 499.025C134.25 499.584 134.489 500.136 134.742 500.683C134.995 501.23 135.261 501.77 135.541 502.304C135.821 502.837 136.114 503.363 136.421 503.882C136.727 504.4 137.046 504.91 137.379 505.413C137.711 505.916 138.056 506.41 138.413 506.895C138.77 507.38 139.139 507.856 139.52 508.322C139.901 508.789 140.294 509.245 140.698 509.692C141.102 510.139 141.517 510.576 141.943 511.001C142.369 511.427 142.805 511.842 143.252 512.246C143.699 512.65 144.156 513.042 144.623 513.423C152.048 519.598 160.383 521.704 169.881 521.547C180.338 520.222 189.043 516.446 195.609 507.896C195.996 507.383 196.371 506.861 196.733 506.33C197.095 505.799 197.443 505.258 197.778 504.709C198.113 504.161 198.435 503.605 198.742 503.04C199.049 502.475 199.343 501.903 199.622 501.324C199.901 500.745 200.165 500.159 200.416 499.567C200.666 498.975 200.901 498.377 201.122 497.773C201.342 497.169 201.547 496.56 201.738 495.946C201.928 495.332 202.103 494.714 202.263 494.091C202.423 493.468 202.567 492.842 202.696 492.212C202.825 491.583 202.938 490.95 203.035 490.314C203.132 489.679 203.214 489.041 203.28 488.402C203.346 487.763 203.396 487.122 203.43 486.48C203.464 485.838 203.482 485.196 203.484 484.553C203.487 483.91 203.473 483.268 203.443 482.625C203.414 481.983 203.368 481.342 203.307 480.702C203.246 480.062 203.169 479.424 203.076 478.788C201.717 469.183 197.272 461.279 189.471 455.454C182.293 450.095 175.311 448.223 166.425 448.221ZM644.489 450.806C644.494 462.78 644.52 474.708 645.014 486.675C648.5 486.57 651.987 486.424 655.474 486.491L655.248 450.963C651.6 451.148 648.129 451.112 644.489 450.806ZM306.944 458.382L306.839 493.785C310.093 493.744 315.787 494.396 318.738 493.251C318.754 481.65 318.686 470.049 318.533 458.449C314.672 458.458 310.802 458.52 306.944 458.382ZM521.372 464.173C520.724 465.678 520.005 467.044 520.707 468.683C522.606 473.111 527.228 476.994 529.829 481.232C526.21 478.866 523.051 476.035 519.814 473.187L515.261 483.574C519.147 485.634 523.348 487.029 527.47 488.538C531.17 493.815 535.446 498.703 539.267 503.907C545.709 512.682 551.928 522.179 559.153 530.32C552.079 531.364 544.992 532.305 537.891 533.144C526.974 521.188 516.457 508.89 506.339 496.251C504.723 497.123 503.117 498.023 501.473 498.84C511.123 510.707 521.034 522.352 531.207 533.774C516.649 536.677 501.832 539.225 487.076 540.891C487.122 529.047 487.56 517.167 487.45 505.33L476.611 505.663C476.904 526.05 476.415 546.61 477.566 566.956L487.452 567.087L487.395 546.816C503.213 544.56 518.989 542.041 534.724 539.259C544.53 549.715 554.336 560.133 563.378 571.269C548.875 577.526 534.491 584.043 520.226 590.822C521.272 594.209 522.274 597.525 522.9 601.019C539.039 594.237 554.392 585.613 570.837 579.485C586.341 595.864 600.85 613.071 616.792 629.07C619.35 631.637 622.555 635.801 625.611 637.462C626.629 637.302 626.578 637.392 627.471 636.688C627.727 633.976 626.154 632.095 624.485 630.091C619.639 624.268 614.016 619.021 608.851 613.478C599.915 603.888 591.213 594.065 582.396 584.366C580.257 581.934 578.031 579.536 576.023 576.995C580.03 575.195 584.486 573.525 588.138 571.073C593.414 578.402 629.229 632.019 631.645 633.484C632.923 632.805 633.012 632.792 633.632 631.497C633.208 627.462 629.154 623.938 627.05 620.632C623.39 614.88 592.799 570.554 592.671 569.027L593.564 568.35C595.34 569.215 622.939 610.215 626.444 615.343C629.393 619.659 632.158 625.061 635.754 628.809C636.733 629.828 637.501 630.337 638.914 630.301L639.657 629.568C639.657 625.76 602.923 573.601 598.242 567.123C606.169 563.658 614.083 560.098 622.1 556.845C619.386 554.242 616.642 551.694 614.247 548.787C606.954 552.244 599.48 556.37 591.828 558.923C585.98 550.41 580.235 541.829 574.593 533.178C586.024 532.321 597.351 530.731 608.576 528.409C608.708 526.785 609.137 524.977 608.262 523.521C602.745 523.801 597.193 525.048 591.73 525.862C585.028 526.861 578.273 527.596 571.548 528.428C562.525 517.048 554.587 504.311 544.409 493.942C565.928 502.915 587.935 509.98 609.686 518.24L613.085 508.905C594.686 501.446 575.648 495.367 557.006 488.518C550.776 486.23 543.824 484.427 537.932 481.423C530.678 477.724 528.495 467.503 521.372 464.173ZM753.975 488.568C731.608 495.092 708.951 501.876 686.958 509.567C687.823 511.776 689.55 518.495 691.288 519.724L691.729 519.637C704.333 515.783 716.841 511.589 729.417 507.635C739.201 504.559 749.167 501.772 758.839 498.377C758.012 495.731 757.039 490.536 755.181 488.597L753.975 488.568ZM208.035 490.085C207.159 493.871 206.3 497.628 205.091 501.324C213.583 505.057 268.357 525.419 272.943 525.35C274.029 521.702 275.252 518.21 276.706 514.693C264.355 509.645 251.721 505.303 239.169 500.782C228.903 497.085 218.545 493.005 208.035 490.085ZM646.776 492.174C636.819 493.37 628.377 497.511 622.047 505.458C615.983 513.072 613.445 522.537 614.645 532.172C615.773 541.235 620.193 549.686 627.52 555.241C635.218 561.076 645.072 563.189 654.584 561.841C664.93 560.152 673.758 555.39 679.97 546.756C680.297 546.305 680.612 545.845 680.916 545.378C681.219 544.911 681.511 544.437 681.792 543.956C682.072 543.475 682.34 542.987 682.597 542.492C682.853 541.997 683.097 541.497 683.328 540.99C683.559 540.483 683.778 539.97 683.985 539.453C684.191 538.936 684.384 538.413 684.564 537.886C684.744 537.359 684.911 536.827 685.065 536.292C685.219 535.757 685.36 535.218 685.487 534.676C685.614 534.133 685.728 533.588 685.829 533.04C685.93 532.492 686.016 531.942 686.089 531.39C686.162 530.837 686.222 530.283 686.268 529.728C686.313 529.173 686.345 528.617 686.363 528.06C686.382 527.503 686.386 526.947 686.377 526.39C686.368 525.833 686.345 525.276 686.308 524.72C686.271 524.164 686.22 523.609 686.156 523.056C686.091 522.503 686.013 521.951 685.922 521.402C684.371 511.947 678.489 503.392 670.677 497.962C663.39 492.898 655.537 491.382 646.776 492.174ZM310.857 497.657C299.929 499.208 290.458 504.109 283.719 513.008C278.199 520.298 275.679 529.158 276.998 538.24C277.087 538.84 277.19 539.437 277.309 540.032C277.427 540.627 277.559 541.218 277.706 541.806C277.853 542.395 278.014 542.979 278.189 543.559C278.364 544.14 278.554 544.716 278.757 545.287C278.96 545.858 279.178 546.423 279.409 546.984C279.64 547.545 279.884 548.099 280.142 548.648C280.4 549.197 280.671 549.739 280.955 550.275C281.24 550.81 281.537 551.338 281.847 551.859C282.157 552.38 282.48 552.894 282.815 553.399C283.15 553.904 283.497 554.401 283.856 554.89C284.215 555.378 284.586 555.857 284.969 556.328C285.352 556.799 285.745 557.259 286.15 557.71C286.555 558.161 286.971 558.603 287.397 559.034C287.824 559.465 288.26 559.885 288.707 560.295C289.154 560.704 289.611 561.103 290.077 561.49C290.544 561.878 291.019 562.254 291.504 562.618C299.029 568.209 306.936 569.711 316.118 569.459C327.039 567.897 336.075 563.658 342.777 554.606C348.211 547.267 350.785 537.837 349.337 528.781C349.248 528.194 349.144 527.609 349.026 527.026C348.908 526.444 348.776 525.865 348.629 525.289C348.483 524.714 348.323 524.142 348.148 523.574C347.973 523.006 347.785 522.443 347.583 521.884C347.381 521.325 347.165 520.772 346.935 520.224C346.706 519.676 346.463 519.134 346.207 518.598C345.951 518.061 345.682 517.532 345.4 517.009C345.118 516.486 344.823 515.971 344.516 515.462C344.209 514.953 343.889 514.453 343.557 513.96C343.226 513.467 342.882 512.983 342.526 512.507C342.17 512.031 341.803 511.564 341.424 511.107C341.045 510.649 340.656 510.201 340.255 509.762C339.854 509.323 339.443 508.895 339.022 508.476C338.6 508.057 338.168 507.649 337.727 507.252C337.285 506.855 336.834 506.469 336.373 506.094C335.912 505.719 335.443 505.355 334.964 505.003C328.119 500.066 319.292 497.334 310.857 497.657ZM689.851 537.457C688.647 540.628 687.518 543.863 686.145 546.964C699 553.602 712.619 559.004 725.825 564.93C735.722 569.371 745.913 574.916 756.215 578.142C757.015 574.798 757.691 571.362 758.969 568.164C736.426 557.186 713.078 546.891 689.851 537.457ZM353.026 544.102C351.808 547.609 350.458 550.991 348.948 554.382C358.017 559.085 438.784 595.211 442.837 595.213L447.687 585.523C423.466 574.452 399.103 563.705 374.597 553.28C367.469 550.317 360.427 546.276 353.026 544.102ZM796.04 548.188C785.559 549.049 776.394 552.981 769.47 561.092C763.551 568.026 760.285 577.313 761.007 586.444C761.055 587.005 761.117 587.565 761.192 588.123C761.268 588.681 761.357 589.237 761.46 589.791C761.563 590.344 761.68 590.895 761.811 591.443C761.942 591.991 762.086 592.535 762.243 593.076C762.401 593.617 762.572 594.153 762.756 594.685C762.941 595.217 763.138 595.744 763.348 596.267C763.559 596.79 763.782 597.307 764.018 597.818C764.254 598.329 764.503 598.834 764.764 599.333C765.025 599.832 765.299 600.324 765.584 600.81C765.87 601.295 766.168 601.773 766.477 602.244C766.786 602.715 767.107 603.177 767.44 603.632C767.772 604.087 768.115 604.533 768.47 604.97C768.825 605.407 769.19 605.836 769.565 606.256C769.941 606.675 770.327 607.085 770.723 607.485C771.12 607.886 771.526 608.276 771.941 608.656C772.356 609.036 772.781 609.406 773.215 609.765C780.558 615.859 789.389 618.566 798.836 618.519C808.836 617.548 817.739 613.675 824.252 605.813C824.643 605.337 825.021 604.852 825.387 604.357C825.753 603.862 826.107 603.359 826.448 602.847C826.789 602.334 827.117 601.814 827.432 601.285C827.747 600.756 828.048 600.22 828.337 599.676C828.625 599.132 828.9 598.581 829.161 598.024C829.422 597.467 829.668 596.903 829.901 596.333C830.134 595.764 830.352 595.189 830.556 594.608C830.76 594.027 830.949 593.442 831.124 592.851C831.299 592.261 831.459 591.667 831.604 591.069C831.749 590.471 831.879 589.87 831.994 589.265C832.109 588.66 832.209 588.053 832.294 587.443C832.379 586.834 832.449 586.222 832.503 585.609C832.557 584.996 832.596 584.382 832.62 583.767C832.644 583.152 832.652 582.537 832.645 581.922C832.638 581.306 832.616 580.691 832.578 580.077C832.54 579.463 832.487 578.85 832.419 578.238C831.527 569.581 827.429 562.006 820.653 556.541C820.224 556.192 819.788 555.852 819.343 555.523C818.899 555.193 818.448 554.873 817.989 554.563C817.531 554.254 817.066 553.954 816.594 553.665C816.123 553.376 815.645 553.098 815.161 552.83C814.677 552.563 814.187 552.306 813.691 552.06C813.196 551.814 812.695 551.579 812.189 551.355C811.683 551.132 811.172 550.92 810.657 550.719C810.142 550.518 809.622 550.328 809.098 550.15C808.574 549.973 808.046 549.807 807.515 549.652C806.984 549.498 806.449 549.356 805.912 549.225C805.375 549.094 804.834 548.976 804.291 548.87C803.748 548.763 803.203 548.669 802.656 548.587C802.109 548.504 801.561 548.434 801.011 548.377C800.46 548.319 799.909 548.273 799.357 548.24C798.805 548.207 798.252 548.186 797.699 548.177C797.146 548.168 796.593 548.172 796.04 548.188ZM643.931 566.843C644.526 586.896 645.237 606.944 646.062 626.988C649.391 626.612 652.695 626.37 656.041 626.204C656.01 606.465 655.802 586.727 655.415 566.992C651.832 567.18 648.399 567.354 644.828 566.942L643.931 566.843ZM478.19 571.64C477.555 571.731 476.924 571.836 476.295 571.957C475.666 572.078 475.04 572.215 474.417 572.366C473.794 572.517 473.176 572.684 472.561 572.865C471.946 573.046 471.337 573.242 470.732 573.453C470.127 573.664 469.527 573.89 468.933 574.13C468.339 574.37 467.751 574.624 467.169 574.893C466.588 575.161 466.013 575.443 465.445 575.74C464.876 576.037 464.316 576.347 463.763 576.67C463.21 576.993 462.665 577.33 462.128 577.68C461.591 578.03 461.063 578.393 460.544 578.769C460.025 579.144 459.516 579.532 459.015 579.933C458.515 580.333 458.025 580.745 457.544 581.169C457.064 581.593 456.594 582.028 456.135 582.475C455.676 582.922 455.228 583.38 454.791 583.849C454.354 584.317 453.928 584.796 453.514 585.285C453.1 585.774 452.698 586.273 452.309 586.782C446.704 594.142 444.497 602.981 445.737 612.135C445.82 612.75 445.918 613.362 446.031 613.971C446.144 614.58 446.272 615.187 446.415 615.79C446.558 616.393 446.717 616.993 446.89 617.588C447.063 618.183 447.251 618.774 447.454 619.36C447.657 619.946 447.875 620.526 448.106 621.101C448.338 621.676 448.584 622.245 448.844 622.808C449.104 623.371 449.378 623.927 449.666 624.476C449.954 625.025 450.255 625.567 450.57 626.101C450.885 626.635 451.213 627.161 451.554 627.679C451.895 628.197 452.248 628.706 452.615 629.206C452.982 629.706 453.36 630.197 453.751 630.678C454.142 631.159 454.545 631.631 454.959 632.092C455.374 632.553 455.799 633.003 456.236 633.443C456.673 633.883 457.121 634.312 457.579 634.729C458.038 635.147 458.506 635.553 458.985 635.947C459.464 636.341 459.952 636.723 460.449 637.093C468.379 642.95 477.464 644.555 487.125 643.484C497.009 641.926 505.623 637.256 511.614 629.11C517.298 621.382 519.573 610.973 518.041 601.541C516.489 591.981 510.733 583.424 502.852 577.878C495.294 572.559 487.256 571.157 478.19 571.64ZM756.525 594.922C737.646 605.199 718.915 615.741 700.332 626.546C693.105 630.674 685.564 634.382 678.473 638.726C680.728 641.605 682.859 644.429 684.71 647.586C702.478 638.295 719.941 628.142 737.472 618.393C745.591 613.878 753.724 609.116 762.087 605.075C761.027 603.086 758.084 595.797 756.525 594.922ZM522.666 614.479C521.584 618.097 520.642 621.862 519.274 625.379C549.771 637.823 580.486 650.447 611.394 661.822C612.482 658.32 613.579 654.857 614.936 651.448C596.682 643.565 578.081 636.651 559.628 629.271C547.414 624.386 535.123 618.657 522.666 614.479ZM648.807 631.666C639.144 632.926 630.113 637.71 624.056 645.454C618.124 653.038 614.666 664.133 615.885 673.744C617.036 682.83 621.943 692.107 629.262 697.721C636.014 702.899 643.924 704.57 652.307 704.308C662.489 703.18 671.457 698.509 677.953 690.478C684.004 682.997 686.485 673.615 685.424 664.108C684.332 654.309 679.31 644.526 671.533 638.37C665.053 633.241 657.199 631.057 649.005 631.64C648.938 631.645 648.873 631.657 648.807 631.666Z" fill="#101D22"/>
<path d="M676.946 154.482C672.918 151.402 673.002 145.277 668.977 141.888C665.172 138.684 659.568 139.598 655.713 136.855C655.487 135.46 656.102 135.077 656.844 133.943C661.799 133.845 666.284 135.524 670.258 138.414C674.009 141.141 678.31 145.434 678.821 150.23C679.041 152.302 678.207 153.015 676.946 154.482Z" fill="#101D22"/>
<path d="M338.408 149.711C337.611 149.667 336.804 149.589 336.021 149.428C332.87 148.78 329.079 146.568 327.392 143.734C326.447 142.146 326.906 141.301 327.334 139.649C330.792 140.376 337.059 142.832 338.654 146.265C339.312 147.681 338.852 148.352 338.408 149.711Z" fill="#101D22"/>
<path d="M287.928 164.901C286.198 164.622 284.119 164.213 283.091 162.609C282.466 161.635 282.392 160.611 282.909 159.577C283.596 158.206 285.181 157.593 286.494 157C288.149 157.106 290.132 157.462 291.118 158.953C291.79 159.97 291.84 161.058 291.41 162.185C290.819 163.732 289.319 164.297 287.928 164.901Z" fill="#101D22"/>
<path d="M812.711 195.414C811.005 194.467 809.259 193.408 807.467 192.642C804.564 191.401 800.59 191.169 798.147 189.072L798.089 187.964C799.028 186.55 800.078 186.145 801.56 185.471C805.418 185.826 811.739 187.873 814.365 190.997C815.183 191.97 815.22 192.609 815.17 193.828C814.36 194.475 813.682 195.032 812.711 195.414Z" fill="#101D22"/>
<path d="M489.173 188.381C495.383 187.599 501.827 187.632 508.082 187.402L540.254 186.222L542.483 186.317C544.406 187.534 545.612 189.594 546.928 191.414C530.452 192.003 510.741 195.224 494.202 197.381L488.799 198.543C488.61 195.096 488.635 191.796 489.173 188.381Z" fill="#101D22"/>
<path d="M560.949 186.713C570.759 186.788 580.57 186.323 590.387 186.37C600.214 186.417 610.103 186.98 619.918 186.538C604.532 190.605 589.37 195.384 574.433 200.875L568.027 193.697C565.886 191.091 563.477 188.936 560.949 186.713Z" fill="#101D22"/>
<path d="M557.593 190.282C556.017 190.47 554.57 190.577 552.984 190.49C551.432 189.529 551.203 188.73 550.354 187.145C551.535 187.016 552.837 186.809 554.014 187.041C555.807 187.396 556.668 188.879 557.593 190.282Z" fill="#101D22"/>
<path d="M567.503 203.764C566.438 203.935 565.504 204.221 564.569 203.533C562.209 201.798 558.819 198.191 558.115 195.319L559 194.372C559.845 194.398 560.588 194.505 561.419 194.645C564.024 196.853 567.228 199.423 568.599 202.635L567.503 203.764Z" fill="#101D22"/>
<path d="M345.866 204.392C351.759 209.786 357.054 216.137 362.594 221.911C373.883 233.674 385.261 245.118 397.507 255.888C400.178 258.236 403.753 260.818 405.632 263.826C404.229 263.968 402.028 264.479 400.826 263.602C395.051 259.388 387.136 249.174 381.79 243.641C372 233.508 361.152 223.971 351.903 213.393C349.637 210.801 347.031 207.65 345.866 204.392Z" fill="#101D22"/>
<path d="M464.052 221.997C462.666 221.797 461.519 221.122 460.286 220.497C459.481 219.35 459.42 219.412 459.592 218.035C461.436 215.463 463.315 214.619 466.243 213.527C467.474 213.606 469.27 213.978 470.354 214.584C471.432 215.187 471.409 215.524 471.593 216.626C470.299 219.55 466.773 220.756 464.052 221.997Z" fill="#101D22"/>
<path d="M374.424 266.994C369.944 257.924 365.713 248.706 361.319 239.59C357.932 232.56 354.213 225.584 351.359 218.321C351.456 218.393 351.56 218.457 351.651 218.538C354.725 221.29 394.152 262.67 394.32 264.557L393.508 264.823L374.424 266.994Z" fill="#101D22"/>
<path d="M509.917 245.556C508.065 245.202 506.036 244.717 504.89 243.056C504.051 241.838 503.893 240.99 504.232 239.551C504.735 237.417 506.537 236.436 508.251 235.362C509.833 235.678 511.287 236.161 512.401 237.403C513.426 238.546 513.854 239.957 513.565 241.486C513.143 243.714 511.704 244.507 509.917 245.556Z" fill="#101D22"/>
<path d="M721.226 255.717L719.966 255.909C716.915 254.473 711.727 244.632 709.816 241.383C712.17 242.819 720.266 252.948 721.226 255.717Z" fill="#101D22"/>
<path d="M197.91 252.352C195.96 252.674 193.616 253.162 191.998 251.644C191.395 251.08 191.057 250.385 191.021 249.575C190.919 247.254 192.158 245.984 193.655 244.422C195.421 244.332 197.722 244.375 199.053 245.774C199.883 246.647 200.377 247.466 200.297 248.705C200.191 250.35 199.028 251.324 197.91 252.352Z" fill="#101D22"/>
<path d="M658.932 268.964C658.271 269.011 657.661 269.044 656.998 269.014C653.996 268.88 650.066 268.767 648.064 266.189C646.997 264.816 647.495 263.001 647.735 261.424C649.478 261.431 651.247 261.467 652.972 261.746C655.053 262.082 657.875 262.709 658.972 264.773C659.777 266.286 659.269 267.428 658.932 268.964Z" fill="#101D22"/>
<path d="M379.736 275.427C379.309 275.395 378.909 275.104 378.635 274.776C377.818 273.799 377.62 273.359 377.732 272.173C379.378 270.883 392.786 269.687 395.962 269.165C396.83 269.058 397.474 269.16 398.332 269.281C396.486 271.134 383.369 274.011 379.736 275.427Z" fill="#101D22"/>
<path d="M370.731 279.158L369.99 278.977C369.506 278.148 368.994 277.306 368.602 276.43C368.141 275.399 367.516 274.208 367.934 273.144L371.156 272.565C372.175 272.812 373.374 274.576 373.783 275.558C374.292 276.781 374.032 277.199 373.502 278.261L370.731 279.158Z" fill="#101D22"/>
<path d="M374.341 287.305C375.658 286.648 377.164 286.152 378.534 285.596C381.54 289.14 394.105 317.199 396.814 323.589L396.491 323.987L393.675 323.948C391.107 322.007 376.975 292.396 374.341 287.305Z" fill="#101D22"/>
<path d="M566.643 316.103C565.317 316.628 564.203 316.985 562.766 317.144C555.45 309.699 549.051 300.148 542.638 291.885C544.67 291.922 546.402 291.952 548.341 292.6C550.718 294.867 566.559 313.892 566.643 316.103Z" fill="#101D22"/>
<path d="M336.66 316.578C334.883 316.634 333.178 316.66 331.659 315.555C330.647 314.819 330.111 313.865 330.079 312.607C330.027 310.525 331.189 309.018 332.453 307.501C334.284 307.341 335.846 307.234 337.375 308.462C338.472 309.343 338.95 310.289 339.078 311.698C339.274 313.854 338.067 315.175 336.66 316.578Z" fill="#101D22"/>
<path d="M347.557 324.253C362.343 328.771 377.614 331.43 392.63 335.035C398.827 345.836 405.275 356.658 410.939 367.745C400.736 365.405 390.538 362.752 380.274 360.718C369.195 348.786 359.12 335.684 347.557 324.253Z" fill="#101D22"/>
<path d="M526.609 341.204C530.934 339.328 535.547 337.933 539.975 336.304C548.018 333.345 556.014 330.264 564.144 327.546C566.026 328.234 603.047 379.743 608.464 386.12C598.829 383.405 589.168 380.783 579.483 378.252C569.602 375.358 559.665 372.673 549.672 370.198C541.928 360.543 534.812 350.491 526.609 341.204Z" fill="#101D22"/>
<path d="M401.46 332.625C400.318 332.512 398.782 332.38 397.73 331.928C396.199 331.269 395.783 329.678 395.241 328.241C398.554 328.766 399.55 330.005 401.46 332.625Z" fill="#101D22"/>
<path d="M419.475 370.774C419.094 370.636 418.548 370.448 418.198 370.273C415.312 368.834 401.832 341.684 400.185 337.648C401.014 337.712 401.764 337.688 402.587 337.594L403.543 337.482L404.324 337.644C410.03 346.567 418.096 360.767 421.878 370.418L421.456 370.885L419.475 370.774Z" fill="#101D22"/>
<path d="M806.957 360.166C806.563 360.142 806.169 360.112 805.776 360.075C802.773 359.783 798.505 358.328 796.723 355.717C796.058 354.742 795.825 353.713 796.23 352.575C796.701 351.249 798.345 350.585 799.505 349.987C800.593 350.013 801.713 350.054 802.783 350.257C804.976 350.672 808.631 352.536 809.718 354.59C810.291 355.673 810.503 356.57 810.057 357.752C809.552 359.088 808.151 359.626 806.957 360.166Z" fill="#101D22"/>
<path d="M368.171 393.513C361.541 382.034 355.088 370.457 348.811 358.781C358.891 362.335 368.567 366.207 378.844 369.34C384.133 375.143 389.527 380.99 395.224 386.389L389.636 387.741C382.45 389.537 375.334 391.626 368.171 393.513Z" fill="#101D22"/>
<path d="M404.266 383.059C402.433 381.338 400.304 379.14 397.649 378.984C397.886 380.701 399.342 382.186 400.276 383.657L399.701 383.991C394.81 380.57 390.16 374.859 386.158 370.384C396.147 372.827 406.871 373.978 416.599 377.058C417.335 377.828 417.369 377.747 417.671 378.874C415.328 380.299 412.38 380.826 409.749 381.55L404.266 383.059Z" fill="#101D22"/>
<path d="M426.63 377.71C425.293 378.003 424.107 378.249 422.725 378.204L422.733 377.226C423.142 377.074 423.263 377.007 423.75 376.949C424.976 376.803 425.683 376.973 426.63 377.71Z" fill="#101D22"/>
<path d="M581.3 420.885L580.929 420.821C580.342 420.723 579.763 420.632 579.19 420.467C576.067 419.572 546.955 382.83 543.861 377.484C546.02 378.093 548.741 378.891 550.46 380.361C555.065 384.301 577.838 414.864 581.3 420.885Z" fill="#101D22"/>
<path d="M667.569 391.038C664.911 390.025 662.676 388.678 659.863 387.942C657.399 387.297 654.263 386.58 652.922 384.285C653.424 382.564 654.228 382.104 655.524 380.901C659.322 380.921 664.087 382.344 667.284 384.473C668.703 385.417 669.437 386.267 669.76 387.994C669.383 389.546 668.733 390.064 667.569 391.038Z" fill="#101D22"/>
<path d="M391.808 438.258C390.451 438.095 389.268 437.857 387.956 437.475C386.396 435.853 369.149 404.841 368.599 402.899C371.532 403.844 388.933 433.644 391.808 438.258Z" fill="#101D22"/>
<path d="M555.276 437.822C553.778 438.338 552.563 438.706 550.972 438.744C542.505 432.859 530.801 419.432 524.035 411.318C527.317 412.053 530.621 413.341 533.833 414.37C539.392 422.876 547.788 430.156 555.263 436.986L555.276 437.822Z" fill="#101D22"/>
<path d="M561.119 436.32C554.114 429.752 547.421 423.229 541.2 415.901C546.071 416.738 572.749 423.703 577.011 425.938C578.665 426.805 579.941 428.558 581.126 429.97L575.622 431.695C570.761 433.13 565.946 434.773 561.119 436.32Z" fill="#101D22"/>
<path d="M590.975 433.133L589.025 432.403C588.331 431.176 588.611 431.211 588.936 429.917C590.369 430.844 590.538 431.573 590.975 433.133Z" fill="#101D22"/>
<path d="M603.882 450.508C601.087 447.976 594.871 440.958 594.221 437.155C597.558 439.609 602.165 446.601 603.882 450.508Z" fill="#101D22"/>
<path d="M570.902 443.773C576.51 442.046 582.161 440.474 587.855 439.057C588.309 439.076 588.757 439.169 589.204 439.247C595.09 445.221 600.032 452.919 605.143 459.592C612.641 469.382 621.309 478.999 627.312 489.784C624.287 487.373 621.245 484.985 618.186 482.618C601.935 470.619 585.646 457.584 570.902 443.773Z" fill="#101D22"/>
<path d="M402.911 456C401.888 456.053 400.39 456.258 399.424 455.904C396.647 454.886 393.515 448.455 391.97 445.994C392.551 446.04 393.129 446.091 393.707 446.168C397.605 446.688 400.589 452.957 402.911 456Z" fill="#101D22"/>
<path d="M603.882 450.508L604.58 451.057L604.617 451.496L604.226 451.358L603.882 450.508Z" fill="#101D22"/>
<path d="M604.617 451.496C607.128 453.831 609.413 456.92 610.889 460.014C608.301 457.782 606.072 454.576 604.617 451.496Z" fill="#101D22"/>
<path d="M153.529 457.732C157.386 455.724 160.822 454.346 165.131 453.626C166.209 453.554 167.288 453.535 168.367 453.568C169.447 453.602 170.522 453.689 171.593 453.828C172.664 453.967 173.726 454.159 174.778 454.402C175.831 454.646 176.869 454.941 177.892 455.286C180.956 456.341 185.651 458.311 187.093 461.32L186.565 461.915C184.186 461.956 182.245 460.826 180.131 459.852C169.665 455.576 164.284 457.13 153.529 457.732Z" fill="#101D22"/>
<path d="M610.889 460.014C611.948 460.772 611.579 460.275 612 461.5C610.944 460.774 611.325 461.261 610.889 460.014Z" fill="#101D22"/>
<path d="M612 461.5C612.838 462.232 613.336 462.659 613.713 463.72C612.751 463.033 612.462 462.583 612 461.5Z" fill="#101D22"/>
<path d="M422.309 490.039C420.992 490.342 419.915 490.715 418.562 490.494C412.399 482.097 406.843 472.111 401.924 462.913C403.697 463.207 405.386 463.694 407.113 464.189C409.834 468.627 422.065 486.717 422.309 490.039Z" fill="#101D22"/>
<path d="M824.371 481.829C823.472 482.2 822.538 482.43 821.569 482.521C819.019 482.76 816.172 480.889 814.389 479.237C812.466 477.453 810.996 474.95 811.031 472.262C811.056 470.248 811.922 469.334 813.294 468.063C817.814 467.829 821.137 468.858 824.635 471.895C826.166 473.224 827.544 475.139 827.463 477.266C827.382 479.403 825.866 480.568 824.371 481.829Z" fill="#101D22"/>
<path d="M566.352 529.367L564.486 529.57C564.152 529.427 563.758 529.378 563.482 529.14C561.196 527.173 558.828 522.593 556.946 520.051C549.451 509.93 542.024 499.586 534.081 489.821C534.447 489.924 534.811 490.033 535.173 490.15C536.348 490.537 537.264 490.96 538.139 491.854C542.279 496.083 564.042 524.903 566.352 529.367Z" fill="#101D22"/>
<path d="M881.697 506.213C879.721 504.59 877.777 502.579 876.829 500.169L876.982 499.662L877.81 499.471C879.345 501.484 880.899 503.794 881.697 506.213Z" fill="#101D22"/>
<path d="M901.397 526.541C895.556 517.77 889.022 509.139 883.619 500.112C895.29 501.996 906.989 503.692 918.715 505.201C924.696 505.953 930.71 506.376 936.675 507.247C933.133 510.203 928.995 512.314 924.94 514.464C917.265 518.58 909.492 523.327 901.397 526.541Z" fill="#101D22"/>
<path d="M674.676 514.01C672.659 513.907 669.785 513.333 668.22 511.958C667.156 511.022 667.13 510.677 666.98 509.362C667.625 507.875 668.543 507.292 669.812 506.389C671.736 506.819 673.466 507.249 675.129 508.356C676.463 509.244 676.898 509.92 677.243 511.466C676.559 512.932 675.998 513.132 674.676 514.01Z" fill="#101D22"/>
<path d="M905.933 532.862C920.552 526.628 934.686 517.406 948.541 509.558C950.205 511.252 950.821 516.766 951.385 519.295C958.433 550.857 959.677 582.668 961.161 614.823C956.506 605.611 949.722 596.973 943.912 588.44C931.359 569.841 918.7 551.315 905.933 532.862Z" fill="#101D22"/>
<path d="M587.534 561.455C586.423 561.314 586.264 561.249 585.469 560.435C583.216 558.128 568.148 536.716 568.115 533.834C569.004 534.02 569.471 534.072 570.156 534.727C572.806 537.262 575.033 541.761 577.153 544.822C580.107 549.09 583.331 553.178 586.256 557.463C587.289 558.978 587.85 559.622 587.534 561.455Z" fill="#101D22"/>
<path d="M541.414 538.248C547.249 537.154 553.203 536.491 559.086 535.682C559.631 535.582 560.428 535.372 561.001 535.397C561.12 535.402 562.278 535.532 562.481 535.645C563.866 536.414 579.776 559.085 582.622 562.648C578.991 564.459 573.394 568.028 569.456 568.388C568.512 568.475 568.506 568.222 567.797 567.678C558.767 558.084 550.155 548.105 541.414 538.248Z" fill="#101D22"/>
<path d="M872.495 551.178C881.086 546.757 889.277 541.669 897.733 537.007C899.749 537.788 909.479 554.101 911.705 557.457C922.36 573.516 933.562 589.186 944.658 604.942C950.677 613.488 957.972 622.446 962.56 631.767C957.436 628.374 952.894 624.301 948.358 620.182L872.495 551.178Z" fill="#101D22"/>
<path d="M652.195 552.178C649.676 551.951 646.846 551.385 645.27 549.15C644.531 548.101 644.238 547.078 644.536 545.805C644.91 544.209 646.244 543.377 647.475 542.465C648.347 542.473 649.232 542.46 650.098 542.58C651.743 542.807 653.625 544.047 654.528 545.447C655.246 546.559 655.522 547.69 655.144 548.99C654.68 550.588 653.495 551.328 652.195 552.178Z" fill="#101D22"/>
<path d="M916.457 598.873C911.202 595.872 863.923 559.513 861.772 556.766C862.218 555.999 861.91 556.232 862.6 555.959L866.685 554.04L900.031 583.789C905.316 588.499 912.004 593.397 916.457 598.873Z" fill="#101D22"/>
<path d="M818.168 567.134C813.33 567.135 809.905 563.617 806.642 560.38C806.222 558.918 806.426 558.882 807.098 557.487C810.158 557.437 812.966 557.996 815.7 559.423C817.363 560.29 818.908 561.594 819.311 563.52C819.612 564.955 818.888 565.986 818.168 567.134Z" fill="#101D22"/>
<path d="M916.457 598.873C917.424 599.246 917.326 599.067 917.954 600.032C916.886 599.641 917.061 599.693 916.457 598.873Z" fill="#101D22"/>
<path d="M661.693 648.725C660.938 648.442 660.067 648.165 659.389 647.729C658.299 647.028 658.05 646.221 657.749 645.037C658.095 643.282 658.787 642.5 659.977 641.194C660.764 641.337 661.849 641.486 662.526 641.945C663.463 642.581 663.985 643.593 663.942 644.717C663.878 646.399 662.756 647.555 661.693 648.725Z" fill="#101D22"/>
<path d="M813.287 662.536C833.696 662.029 854.396 659.419 874.777 657.861C892.71 656.49 910.493 655.026 928.389 653.196C938.126 652.201 948.394 651.798 957.8 649.026L958.549 649.048L959.109 649.706C957.882 669.081 954.984 695.609 950.101 714.243C948.649 719.783 946.339 725.241 944.334 730.605C940.581 740.372 936.931 750.177 933.383 760.02C922.499 790.646 910.899 820.717 898.908 850.916C889.327 875.045 879.273 900.827 867.823 924.109C864.246 931.384 860.168 938.459 856.28 945.572C856.19 933.221 853.06 920.361 851.238 908.119C849.717 899.231 848.668 890.272 847.241 881.369C839.946 836.24 833.023 791.055 826.472 745.812C822.292 718.121 816.174 690.374 813.287 662.536Z" fill="#101D22"/>
<path d="M812.001 690.071C815.159 704.424 817.216 719.113 819.585 733.62C824.19 761.995 828.506 790.413 832.535 818.876L838.744 862.476C840.002 870.876 841.909 879.545 842.49 887.998C840.547 882.17 839.9 875.367 838.821 869.3C836.2 854.564 833.942 839.811 831.551 825.039C826.094 792.946 821.196 760.769 816.857 728.506L813.697 704.684C813.06 699.867 812.11 694.92 812.001 690.071Z" fill="#101D22"/>
<path d="M880.299 909.412C882.658 901.231 887.26 892.935 890.551 885.021C897.992 867.013 905.308 848.954 912.499 830.845C919.646 812.5 926.615 794.089 933.407 775.61C937.541 764.182 941.134 752.162 946.139 741.099C945.129 748.934 942.255 756.983 940.105 764.609C927.611 808.935 909.848 852.912 888.791 893.835C886.263 898.748 883.764 905.24 880.299 909.412Z" fill="#101D22"/>
</g>
<defs>
<clipPath id="clip0_145_340">
<rect width="1024" height="1024" fill="white"/>
</clipPath>
</defs>
</svg>
