<svg width="174" height="174" viewBox="0 0 174 174" fill="none" xmlns="http://www.w3.org/2000/svg">
<path d="M87 0C38.9515 0 0 38.9515 0 87C0 135.051 38.9515 174 87 174C135.051 174 174 135.051 174 87C174 38.9515 135.051 0 87 0ZM87 163.296C45.0252 163.296 10.875 128.975 10.875 86.9997C10.875 45.0249 45.0252 10.8747 87 10.8747C128.975 10.8747 163.125 45.025 163.125 86.9997C163.125 128.974 128.975 163.296 87 163.296ZM121.721 55.1662L70.6765 106.531L47.6894 83.5445C45.5661 81.4211 42.1241 81.4211 39.9981 83.5445C37.8747 85.6678 37.8747 89.1097 39.9981 91.2331L66.911 118.149C69.0343 120.269 72.4763 120.269 74.6023 118.149C74.847 117.904 75.0565 117.637 75.2468 117.36L129.415 62.8573C131.536 60.734 131.536 57.292 129.415 55.1662C127.289 53.0428 123.847 53.0428 121.721 55.1662Z" fill="#2A9D8F"/>
</svg>
