<svg width="244" height="84" viewBox="0 0 244 84" fill="none" xmlns="http://www.w3.org/2000/svg">
<path d="M200.984 55.7087C201.712 55.199 202.44 54.7074 203.169 54.2341C203.933 53.7607 204.661 53.3056 205.353 52.8687C206.082 52.4317 206.773 52.0312 207.429 51.6671C208.084 51.303 208.703 50.9753 209.286 50.684C209.795 50.4291 210.196 50.3927 210.487 50.5748C210.779 50.7204 210.979 50.9935 211.088 51.394C211.197 51.7945 211.179 52.1951 211.033 52.5956C210.924 52.9597 210.724 53.251 210.433 53.4694C209.668 53.9064 208.867 54.3797 208.03 54.8895C207.192 55.3628 206.336 55.8726 205.463 56.4187C204.625 56.9649 203.769 57.5111 202.896 58.0572C202.022 58.6398 201.148 59.2224 200.274 59.8049L200.984 55.7087ZM185.091 84C183.234 84 181.759 83.4902 180.667 82.4707C179.574 81.4512 179.028 80.1404 179.028 78.5384C179.028 77.3004 179.283 76.0442 179.793 74.7698C180.303 73.4954 181.031 72.2211 181.977 70.9467C182.961 69.6723 184.162 68.3433 185.582 66.9597C187.039 65.6125 188.695 64.2107 190.552 62.7542C191.499 62.0624 192.391 61.407 193.228 60.788C194.102 60.169 194.958 59.5501 195.795 58.9311C196.669 58.3485 197.561 57.7477 198.472 57.1287L202.841 43.8023C201.567 45.987 200.256 47.8804 198.909 49.4824C197.598 51.0481 196.269 52.3589 194.922 53.4148C193.611 54.4343 192.318 55.199 191.044 55.7087C189.806 56.2185 188.604 56.4733 187.439 56.4733C185.91 56.4733 184.69 56.1092 183.78 55.381C182.87 54.6164 182.342 53.4694 182.196 51.9402C182.087 50.4109 182.414 48.4993 183.179 46.2055L188.914 28.9467C189.132 28.3641 189.369 27.9818 189.624 27.7997C189.915 27.6177 190.37 27.5267 190.989 27.5267C191.827 27.5267 192.373 27.6723 192.628 27.9636C192.919 28.2549 192.955 28.6918 192.737 29.2744L186.838 46.9155C186.438 48.117 186.201 49.1729 186.128 50.0832C186.056 50.9935 186.219 51.7035 186.62 52.2133C187.02 52.6866 187.712 52.9233 188.695 52.9233C189.897 52.9233 191.226 52.4499 192.682 51.5033C194.175 50.5202 195.741 49.0819 197.379 47.1886C199.054 45.2952 200.711 42.9467 202.349 40.143C204.024 37.3394 205.626 34.0988 207.156 30.4213L207.593 28.9467C207.811 28.3641 208.066 27.9818 208.357 27.7997C208.648 27.6177 209.085 27.5267 209.668 27.5267C210.505 27.5267 211.052 27.6723 211.306 27.9636C211.598 28.2549 211.634 28.71 211.416 29.329L198.199 70.0182C197.47 72.2757 196.669 74.2783 195.795 76.026C194.922 77.7737 193.975 79.2302 192.955 80.3953C191.936 81.5969 190.771 82.4889 189.46 83.0715C188.149 83.6905 186.693 84 185.091 84ZM185.746 80.5592C186.984 80.5592 188.113 80.1404 189.132 79.303C190.188 78.4655 191.153 77.2276 192.027 75.5891C192.901 73.987 193.702 72.0026 194.43 69.6359L196.888 62.1534C196.342 62.4811 195.795 62.8453 195.249 63.2458C194.74 63.6463 194.212 64.0468 193.665 64.4473C193.119 64.8479 192.573 65.2484 192.027 65.6489C190.461 66.9597 189.096 68.1795 187.931 69.3082C186.802 70.4733 185.873 71.5475 185.145 72.5306C184.453 73.5501 183.925 74.4967 183.561 75.3706C183.234 76.2809 183.07 77.1547 183.07 77.9922C183.07 78.4655 183.161 78.8843 183.343 79.2484C183.525 79.6489 183.816 79.9584 184.217 80.1768C184.617 80.4317 185.127 80.5592 185.746 80.5592Z" fill="white"/>
<path d="M171.221 55.7087C170.238 55.7087 169.327 55.3992 168.49 54.7802C167.616 54.1612 166.833 53.251 166.141 52.0494C165.413 50.8114 164.794 49.2822 164.284 47.4616C163.738 45.6411 163.301 43.5293 162.974 41.1261C162.901 40.7256 162.992 40.4343 163.247 40.2523C163.465 40.0702 163.72 40.0156 164.011 40.0884C164.303 40.1248 164.503 40.3615 164.612 40.7984C165.085 43.1287 165.686 45.1678 166.414 46.9155C167.106 48.6632 167.889 50.0286 168.763 51.0117C169.6 51.9584 170.474 52.4317 171.384 52.4317C172.295 52.4317 173.278 52.0312 174.334 51.2302C175.39 50.3927 176.591 49.0819 177.938 47.2978C179.286 45.4772 180.833 43.0923 182.581 40.143C184.365 37.1573 186.44 33.5163 188.807 29.2198C188.953 28.9285 189.171 28.7828 189.462 28.7828C189.754 28.7464 190.027 28.801 190.282 28.9467C190.537 29.0923 190.719 29.329 190.828 29.6567C190.937 29.948 190.901 30.2757 190.719 30.6398C188.279 35.3368 186.113 39.2874 184.219 42.4915C182.326 45.6957 180.615 48.2809 179.085 50.2471C177.556 52.1769 176.154 53.5787 174.88 54.4525C173.606 55.29 172.386 55.7087 171.221 55.7087Z" fill="white"/>
<path d="M155.135 83.8908C154.115 83.8908 153.223 83.6541 152.459 83.1807C151.658 82.7074 151.057 81.9246 150.656 80.8323C150.256 79.7763 150.128 78.3745 150.274 76.6268C150.42 74.8791 150.929 72.7308 151.803 70.182L170.646 12.3433C172.029 8.04681 173.522 4.91547 175.124 2.94929C176.726 0.983095 178.602 0 180.75 0C181.879 0 182.825 0.291288 183.59 0.873864C184.391 1.42003 185.01 2.18466 185.447 3.16775C185.884 4.11443 186.102 5.24317 186.102 6.55397C186.102 7.13654 185.902 7.57347 185.502 7.86476C185.137 8.11964 184.7 8.24708 184.191 8.24708C183.681 8.24708 183.244 8.11964 182.88 7.86476C182.516 7.57347 182.334 7.13654 182.334 6.55397C182.334 5.93498 182.261 5.40702 182.115 4.97009C182.006 4.53316 181.806 4.18726 181.515 3.93238C181.223 3.6775 180.823 3.55007 180.313 3.55007C179.621 3.55007 178.966 3.85956 178.347 4.47855C177.728 5.06112 177.072 6.08063 176.381 7.53706C175.725 8.9935 174.979 10.9597 174.141 13.4356L164.911 41.9454C165.348 43.4746 165.676 45.1677 165.894 47.0247C166.149 48.8453 166.313 50.7386 166.386 52.7048C166.495 54.671 166.495 56.6736 166.386 58.7126C166.313 60.7516 166.167 62.7542 165.949 64.7204C165.767 66.6866 165.494 68.5436 165.13 70.2913C164.766 72.039 164.347 73.6593 163.873 75.1521C163.364 76.8635 162.708 78.3745 161.907 79.6853C161.106 81.0325 160.16 82.0702 159.067 82.7984C157.975 83.5267 156.664 83.8908 155.135 83.8908ZM155.572 80.3407C156.045 80.3407 156.482 80.2133 156.883 79.9584C157.283 79.7399 157.665 79.394 158.029 78.9207C158.394 78.4473 158.721 77.8648 159.013 77.1729C159.34 76.5175 159.668 75.7711 159.996 74.9337C160.396 73.7685 160.76 72.4759 161.088 71.0559C161.452 69.6723 161.762 68.1977 162.016 66.632C162.271 65.1027 162.49 63.5371 162.672 61.935C162.854 60.3329 162.981 58.749 163.054 57.1833C163.127 55.6177 163.145 54.1066 163.109 52.6502C163.072 51.1573 162.963 49.8101 162.781 48.6086L155.353 71.4928C154.37 74.5878 153.915 76.827 153.988 78.2107C154.061 79.6307 154.589 80.3407 155.572 80.3407Z" fill="white"/>
<path d="M144.43 56.5826C143.884 56.5826 143.52 56.4005 143.338 56.0364C143.156 55.7087 143.119 55.3264 143.228 54.8895C143.338 54.4525 143.593 54.0702 143.993 53.7425C144.357 53.3784 144.831 53.1964 145.413 53.1964C146.396 53.1964 147.671 52.7412 149.236 51.8309C150.802 50.9207 152.531 49.6645 154.425 48.0624C156.355 46.4239 158.375 44.5306 160.487 42.3823C162.599 40.2341 164.693 37.922 166.768 35.446C168.88 32.9701 170.864 30.4395 172.721 27.8544C174.578 25.2328 176.217 22.6476 177.637 20.0988C179.093 17.5501 180.24 15.1287 181.078 12.8348C181.915 10.5045 182.334 8.42913 182.334 6.60858C182.334 6.02601 182.516 5.58907 182.88 5.29779C183.244 5.0065 183.681 4.86086 184.191 4.86086C184.7 4.86086 185.137 5.0065 185.502 5.29779C185.902 5.58907 186.102 6.02601 186.102 6.60858C186.102 8.31989 185.738 10.2315 185.01 12.3433C184.282 14.4551 183.28 16.7126 182.006 19.1157C180.768 21.5189 179.293 23.9584 177.582 26.4343C175.907 28.8739 174.087 31.3316 172.121 33.8075C170.154 36.2471 168.134 38.5956 166.058 40.8531C163.983 43.0741 161.907 45.1495 159.832 47.0793C157.793 48.9727 155.808 50.6476 153.879 52.104C151.985 53.5241 150.238 54.6346 148.635 55.4356C147.033 56.2003 145.632 56.5826 144.43 56.5826Z" fill="white"/>
<path d="M144.583 56.5826C143.309 56.5826 142.307 56.3459 141.579 55.8726C140.887 55.3992 140.432 54.7802 140.214 54.0156C140.032 53.2146 139.995 52.3407 140.105 51.394C140.25 50.4109 140.487 49.4278 140.815 48.4447L147.15 28.9467C147.369 28.3641 147.623 27.9818 147.915 27.7997C148.206 27.6177 148.643 27.5267 149.226 27.5267C150.099 27.5267 150.664 27.6723 150.919 27.9636C151.174 28.2549 151.21 28.6918 151.028 29.2744L144.747 48.3355C144.128 50.156 143.855 51.4304 143.928 52.1586C144.037 52.8505 144.547 53.1964 145.457 53.1964C145.93 53.1964 146.258 53.3784 146.44 53.7425C146.659 54.0702 146.731 54.4525 146.659 54.8895C146.622 55.3264 146.422 55.7087 146.058 56.0364C145.73 56.4005 145.239 56.5826 144.583 56.5826ZM152.557 18.7334C151.865 18.7334 151.283 18.5332 150.809 18.1326C150.373 17.7321 150.154 17.1313 150.154 16.3303C150.154 15.42 150.445 14.5826 151.028 13.818C151.61 13.0169 152.484 12.6164 153.649 12.6164C154.378 12.6164 154.96 12.8167 155.397 13.2172C155.871 13.5813 156.107 14.1639 156.107 14.9649C156.107 15.8752 155.816 16.7308 155.233 17.5319C154.651 18.3329 153.759 18.7334 152.557 18.7334Z" fill="white"/>
<path d="M126.669 56.5826C126.232 56.5826 125.904 56.4005 125.686 56.0364C125.467 55.7087 125.395 55.3264 125.467 54.8895C125.504 54.4525 125.704 54.0702 126.068 53.7425C126.396 53.3784 126.887 53.1964 127.543 53.1964C128.49 53.1964 129.545 52.7776 130.711 51.9402C131.876 51.0663 133.223 49.7009 134.752 47.844C136.281 45.9506 138.084 43.4747 140.159 40.4161C142.235 37.3212 144.674 33.5709 147.478 29.1652C147.733 28.6918 148.079 28.4916 148.516 28.5644C148.952 28.6372 149.298 28.8375 149.553 29.1652C149.845 29.4929 149.863 29.8752 149.608 30.3121C146.513 35.4825 143.837 39.7789 141.579 43.2016C139.358 46.5878 137.41 49.264 135.735 51.2302C134.06 53.1964 132.513 54.58 131.093 55.381C129.636 56.1821 128.162 56.5826 126.669 56.5826Z" fill="white"/>
<path d="M109.704 56.5826C108.466 56.5826 107.374 56.2549 106.427 55.5995C105.517 54.9441 104.807 54.0156 104.297 52.8141C103.787 51.6125 103.532 50.1925 103.532 48.554C103.532 46.8791 103.787 45.0767 104.297 43.1469C104.843 41.2172 105.626 39.3238 106.645 37.4669C107.665 35.6099 108.903 33.9168 110.359 32.3875C111.852 30.8583 113.545 29.6385 115.439 28.7282C117.332 27.7815 119.426 27.3082 121.719 27.3082C122.812 27.3082 123.977 27.472 125.215 27.7997C126.453 28.091 127.618 28.5462 128.71 29.1652L137.831 1.63851C138.013 1.05593 138.25 0.673617 138.541 0.491563C138.833 0.309504 139.288 0.218475 139.907 0.218475C140.781 0.218475 141.345 0.382327 141.6 0.710027C141.855 1.00132 141.873 1.43825 141.654 2.02082L126.307 48.3901C125.761 50.1743 125.543 51.4304 125.652 52.1587C125.797 52.8505 126.435 53.1964 127.563 53.1964C127.891 53.1964 128.128 53.3784 128.273 53.7425C128.419 54.0702 128.455 54.4525 128.383 54.8895C128.346 55.3264 128.182 55.7087 127.891 56.0364C127.636 56.4005 127.254 56.5826 126.744 56.5826C125.324 56.5826 124.232 56.3459 123.467 55.8726C122.703 55.3992 122.193 54.762 121.938 53.961C121.683 53.16 121.61 52.2861 121.719 51.3394C121.865 50.3563 122.084 49.3914 122.375 48.4447L123.303 45.6047C121.665 48.117 120.045 50.1743 118.442 51.7763C116.877 53.3784 115.366 54.58 113.909 55.381C112.453 56.1821 111.051 56.5826 109.704 56.5826ZM110.851 53.0325C112.198 53.0325 113.727 52.3589 115.439 51.0117C117.15 49.6281 118.97 47.5891 120.9 44.8947C122.866 42.2003 124.851 38.9051 126.853 35.0091L127.727 32.3329C126.38 31.7139 125.16 31.3134 124.068 31.1313C123.012 30.9129 122.029 30.8036 121.119 30.8036C119.444 30.8036 117.896 31.186 116.476 31.9506C115.056 32.7152 113.8 33.7347 112.708 35.0091C111.615 36.2471 110.687 37.6307 109.922 39.16C109.158 40.6528 108.575 42.1639 108.175 43.6931C107.774 45.2224 107.574 46.6424 107.574 47.9532C107.574 48.9727 107.701 49.8648 107.956 50.6294C108.211 51.394 108.575 51.9948 109.048 52.4317C109.558 52.8323 110.159 53.0325 110.851 53.0325Z" fill="white"/>
<path d="M103.367 34.3537C101.255 34.3537 99.3436 34.0988 97.6323 33.5891C95.8846 33.0429 94.1551 32.2601 92.4438 31.2406C92.0433 30.9493 91.8248 30.6216 91.7884 30.2575C91.7156 29.857 91.8066 29.4928 92.0615 29.1651C92.3163 28.8375 92.6258 28.619 92.9899 28.5098C93.3176 28.4005 93.6635 28.4551 94.0276 28.6736C94.9379 29.2562 95.9028 29.7477 96.9223 30.1482C97.9418 30.5488 99.0706 30.84 100.309 31.0221C101.547 31.2042 102.93 31.2952 104.459 31.2952C105.588 31.2952 106.808 31.2224 108.119 31.0767C109.466 30.8947 110.813 30.6034 112.16 30.2029C113.544 29.8023 114.782 29.3108 115.874 28.7282C116.311 28.4733 116.657 28.4915 116.912 28.7828C117.167 29.0741 117.276 29.4564 117.24 29.9298C117.24 30.3667 117.021 30.6944 116.584 30.9129C114.072 32.2601 111.651 33.1703 109.32 33.6437C106.99 34.117 105.006 34.3537 103.367 34.3537Z" fill="white"/>
<path d="M81.9267 56.6918C79.7784 56.6918 77.9579 56.2549 76.465 55.381C74.9722 54.4707 73.8434 53.2328 73.0788 51.6671C72.3506 50.065 71.9865 48.2627 71.9865 46.2601C71.9865 44.2939 72.3324 42.2185 73.0242 40.0338C73.716 37.8491 74.7537 35.7919 76.1373 33.8622C77.5209 31.9324 79.2323 30.3667 81.2713 29.1651C83.3467 27.9272 85.7498 27.3082 88.4806 27.3082C90.6289 27.3082 92.4312 27.7269 93.8876 28.5644C95.3805 29.4018 96.491 30.5852 97.2192 32.1144C97.9839 33.6073 98.3662 35.355 98.3662 37.3576C98.3662 38.814 98.1477 40.4161 97.7108 42.1638C97.3103 43.9116 96.6731 45.6411 95.7992 47.3524C94.9618 49.0637 93.8877 50.6294 92.5769 52.0494C91.2661 53.433 89.7186 54.5618 87.9345 55.4356C86.1503 56.2731 84.1477 56.6918 81.9267 56.6918ZM82.3636 53.1417C84.3298 53.1417 86.0593 52.632 87.5522 51.6125C89.045 50.593 90.283 49.3004 91.2661 47.7347C92.2492 46.1326 92.9956 44.4577 93.5053 42.71C94.0515 40.9259 94.3246 39.2874 94.3246 37.7945C94.3246 36.3017 94.0697 35.0455 93.5599 34.026C93.0866 33.0065 92.3766 32.2237 91.4299 31.6775C90.5196 31.1313 89.4091 30.8582 88.0983 30.8582C86.1321 30.8582 84.3844 31.368 82.8551 32.3875C81.3623 33.3706 80.1061 34.645 79.0866 36.2107C78.0671 37.7763 77.3025 39.433 76.7927 41.1807C76.283 42.8921 76.0281 44.4941 76.0281 45.987C76.0281 47.4798 76.2648 48.7724 76.7381 49.8647C77.2479 50.9207 77.9761 51.7399 78.9228 52.3225C79.9059 52.8686 81.0528 53.1417 82.3636 53.1417Z" fill="white"/>
<path d="M58.8786 56.5826C58.4416 56.5826 58.1139 56.4005 57.8955 56.0364C57.677 55.7087 57.6042 55.3264 57.677 54.8895C57.7134 54.4525 57.9137 54.0702 58.2778 53.7425C58.6055 53.3784 59.097 53.1964 59.7524 53.1964C60.6991 53.1964 61.7368 52.8504 62.8656 52.1586C63.9579 51.4304 65.1048 50.4291 66.3064 49.1547C67.5079 47.8804 68.7277 46.3693 69.9657 44.6216C71.2037 42.8374 72.4416 40.8895 73.6796 38.7776C73.9345 38.3771 74.2622 38.2133 74.6627 38.2861C75.0632 38.3225 75.3909 38.5045 75.6458 38.8322C75.9371 39.1599 75.9735 39.524 75.755 39.9246C74.2986 42.5462 72.8603 44.8947 71.4403 46.9701C70.0203 49.0455 68.6185 50.7932 67.2349 52.2133C65.8512 53.6333 64.4676 54.7256 63.084 55.4902C61.7004 56.2185 60.2986 56.5826 58.8786 56.5826Z" fill="white"/>
<path d="M58.9387 56.5826C57.6279 56.5826 56.6266 56.3459 55.9348 55.8726C55.2794 55.3992 54.8425 54.762 54.624 53.961C54.4056 53.1599 54.3692 52.2861 54.5148 51.3394C54.6604 50.3563 54.8789 49.3914 55.1702 48.4447L59.1572 36.8661C59.5941 35.6281 59.8308 34.5722 59.8672 33.6983C59.94 32.788 59.7762 32.0962 59.3757 31.6229C58.9751 31.1131 58.2651 30.8582 57.2456 30.8582C56.0441 30.8582 54.6969 31.3316 53.204 32.2783C51.7476 33.225 50.2001 34.6268 48.5616 36.4837C46.9595 38.3043 45.321 40.58 43.6461 43.3108C42.0076 46.0416 40.4238 49.2276 38.8945 52.8686L38.1299 55.2718C38.0207 55.6723 37.8022 55.9636 37.4745 56.1456C37.1832 56.3641 36.6917 56.4733 35.9998 56.4733C35.4901 56.4733 35.035 56.3641 34.6344 56.1456C34.2339 55.9272 34.1247 55.5449 34.3067 54.9987L41.4069 33.0429C41.6617 32.2783 41.7346 31.6957 41.6253 31.2952C41.5525 30.8947 41.2612 30.6944 40.7515 30.6944C40.2781 30.6944 39.7502 30.8582 39.1676 31.1859C38.585 31.5136 37.9478 32.0234 37.256 32.7152C36.5642 33.3706 35.7814 34.2081 34.9075 35.2276C34.5434 35.6281 34.1975 35.8647 33.8698 35.9376C33.5421 35.974 33.1598 35.8283 32.7229 35.5006C32.1767 35.1001 31.94 34.736 32.0129 34.4083C32.0857 34.0442 32.2313 33.7165 32.4498 33.4252C33.3236 32.2965 34.2339 31.277 35.1806 30.3667C36.1273 29.4564 37.1286 28.7282 38.1845 28.182C39.2768 27.5995 40.442 27.3082 41.68 27.3082C42.8087 27.3082 43.6643 27.5084 44.2469 27.909C44.8295 28.3095 45.2118 28.8556 45.3939 29.5475C45.5759 30.2393 45.5941 31.0221 45.4485 31.896C45.3392 32.7334 45.1572 33.5891 44.9023 34.4629L43.1546 39.6515C44.4654 37.5032 45.7762 35.6645 47.087 34.1352C48.3978 32.5696 49.6904 31.2952 50.9647 30.3121C52.2755 29.2926 53.5499 28.5462 54.7879 28.0728C56.0623 27.5631 57.282 27.3082 58.4472 27.3082C60.0128 27.3082 61.2508 27.6905 62.1611 28.4551C63.0714 29.1833 63.5993 30.3121 63.745 31.8413C63.927 33.3342 63.6175 35.2458 62.8165 37.5761L59.1026 48.3901C58.4836 50.1742 58.2105 51.4304 58.2833 52.1586C58.3926 52.8504 58.9023 53.1964 59.8126 53.1964C60.2495 53.1964 60.559 53.3784 60.7411 53.7425C60.9595 54.0702 61.0324 54.4525 60.9595 54.8895C60.9231 55.3264 60.7229 55.7087 60.3588 56.0364C60.0311 56.4005 59.5577 56.5826 58.9387 56.5826Z" fill="white"/>
<path fill-rule="evenodd" clip-rule="evenodd" d="M244 57.463H0V55H244V57.463Z" fill="white" fill-opacity="0.33"/>
</svg>
