<svg width="1024" height="1024" viewBox="0 0 1024 1024" fill="none" xmlns="http://www.w3.org/2000/svg">
<g clip-path="url(#clip0_145_702)">
<path d="M485.035 0H537.425L537.88 0.0788968C547.2 1.60639 557.08 1.50655 566.512 2.3977C583.757 4.17881 600.87 6.81197 617.852 10.2972C621.655 11.0746 625.449 11.8955 629.234 12.7599C633.019 13.6243 636.793 14.532 640.557 15.4829C644.321 16.4338 648.074 17.4278 651.815 18.4648C655.556 19.5018 659.285 20.5816 663.001 21.7041C666.718 22.8266 670.421 23.9916 674.11 25.199C677.799 26.4065 681.475 27.656 685.136 28.9477C688.797 30.2394 692.442 31.573 696.073 32.9483C699.704 34.3236 703.318 35.7404 706.916 37.1986C710.513 38.6568 714.094 40.1561 717.658 41.6964C721.221 43.2367 724.767 44.8177 728.294 46.4393C731.821 48.0609 735.33 49.7227 738.819 51.4248C742.308 53.1269 745.777 54.8688 749.226 56.6504C752.675 58.4321 756.104 60.253 759.511 62.1132C762.918 63.9735 766.304 65.8726 769.668 67.8105C773.032 69.7484 776.373 71.7246 779.692 73.7391C783.011 75.7536 786.306 77.8059 789.577 79.896C792.849 81.9861 796.096 84.1134 799.319 86.2779C802.542 88.4424 805.739 90.6437 808.911 92.8816C812.084 95.1195 815.23 97.3934 818.35 99.7034C821.47 102.013 824.563 104.359 827.629 106.74C830.696 109.121 833.734 111.536 836.745 113.987C839.756 116.438 842.739 118.923 845.693 121.442C848.646 123.961 851.571 126.513 854.467 129.1C857.362 131.686 860.228 134.305 863.063 136.956C865.898 139.608 868.703 142.292 871.476 145.008C874.25 147.725 876.992 150.472 879.703 153.251C882.414 156.03 885.092 158.84 887.739 161.68C890.385 164.521 892.998 167.391 895.579 170.292C898.16 173.192 900.707 176.121 903.22 179.08C905.733 182.039 908.212 185.026 910.657 188.042C913.102 191.057 915.512 194.101 917.887 197.172C920.262 200.243 922.602 203.34 924.906 206.465C927.763 210.42 930.565 214.415 933.311 218.449C936.057 222.483 938.746 226.554 941.378 230.663C944.01 234.772 946.584 238.917 949.101 243.098C951.617 247.279 954.074 251.494 956.473 255.744C958.872 259.993 961.21 264.275 963.489 268.59C965.768 272.905 967.987 277.251 970.144 281.628C972.301 286.005 974.397 290.411 976.432 294.846C978.467 299.281 980.439 303.744 982.349 308.235C984.258 312.726 986.105 317.242 987.889 321.784C989.672 326.326 991.392 330.892 993.048 335.482C994.705 340.072 996.296 344.684 997.823 349.319C999.348 353.954 1000.81 358.609 1002.21 363.284C1003.61 367.959 1004.94 372.653 1006.21 377.366C1007.47 382.079 1008.67 386.808 1009.81 391.554C1010.94 396.3 1012.01 401.061 1013.01 405.837C1014.01 410.613 1014.94 415.402 1015.81 420.204C1018.03 432.72 1019.75 445.305 1020.96 457.958C1021.77 467.235 1021.72 481.285 1024 489.717V539.289C1023.95 539.483 1023.9 539.677 1023.85 539.872C1021.3 550.697 1021.26 566.031 1019.9 577.557C1017.18 599.014 1013.25 620.249 1008.12 641.26C1007.14 645.129 1006.12 648.985 1005.05 652.829C1003.98 656.673 1002.86 660.504 1001.7 664.322C1000.54 668.139 999.339 671.943 998.089 675.732C996.838 679.521 995.543 683.295 994.203 687.053C992.863 690.812 991.479 694.554 990.05 698.279C988.621 702.005 987.149 705.713 985.633 709.404C984.116 713.095 982.556 716.767 980.952 720.42C979.349 724.074 977.702 727.708 976.012 731.323C974.322 734.938 972.589 738.532 970.814 742.105C969.039 745.678 967.222 749.23 965.363 752.761C963.504 756.292 961.603 759.8 959.66 763.285C957.717 766.77 955.734 770.232 953.709 773.67C951.684 777.109 949.619 780.523 947.514 783.912C945.409 787.301 943.263 790.665 941.078 794.004C938.893 797.342 936.668 800.654 934.404 803.94C932.14 807.225 929.838 810.484 927.497 813.715C925.156 816.946 922.776 820.149 920.359 823.324C917.942 826.499 915.487 829.644 912.996 832.761C910.504 835.877 907.976 838.963 905.411 842.02C902.846 845.077 900.245 848.102 897.609 851.097C894.972 854.092 892.3 857.055 889.593 859.987C886.886 862.918 884.145 865.817 881.369 868.684C878.594 871.55 875.784 874.383 872.941 877.183C870.098 879.983 867.223 882.749 864.315 885.481C861.406 888.212 858.466 890.909 855.493 893.571C852.52 896.233 849.517 898.859 846.482 901.45C843.447 904.041 840.382 906.595 837.287 909.113C834.192 911.631 831.068 914.112 827.913 916.556C824.759 919 821.576 921.406 818.365 923.774C815.154 926.143 811.916 928.473 808.649 930.765C805.383 933.056 802.09 935.309 798.77 937.522C795.45 939.736 792.104 941.91 788.733 944.044C785.078 946.381 781.393 948.671 777.678 950.912C773.963 953.154 770.22 955.347 766.448 957.491C762.677 959.635 758.878 961.729 755.051 963.774C751.225 965.819 747.373 967.815 743.494 969.76C739.616 971.705 735.713 973.599 731.786 975.442C727.859 977.285 723.908 979.077 719.933 980.818C715.959 982.559 711.963 984.247 707.945 985.884C703.927 987.52 699.888 989.104 695.829 990.636C691.77 992.167 687.691 993.646 683.593 995.071C679.495 996.496 675.379 997.868 671.246 999.186C667.113 1000.5 662.963 1001.77 658.796 1002.98C654.63 1004.19 650.449 1005.34 646.252 1006.45C642.055 1007.55 637.845 1008.6 633.622 1009.59C629.398 1010.58 625.162 1011.51 620.914 1012.4C616.666 1013.28 612.407 1014.1 608.138 1014.87C603.868 1015.64 599.589 1016.36 595.301 1017.02C583.046 1019.1 570.733 1020.73 558.36 1021.92C550.851 1022.64 542.758 1022.59 535.382 1024H486.728C477.963 1022.2 468.194 1022.36 459.248 1021.54C445.071 1020.17 430.975 1018.21 416.96 1015.66C411.962 1014.71 406.979 1013.7 402.011 1012.61C397.043 1011.52 392.092 1010.35 387.159 1009.11C382.226 1007.88 377.311 1006.57 372.416 1005.19C367.521 1003.8 362.648 1002.35 357.796 1000.82C352.944 999.296 348.116 997.7 343.311 996.031C338.506 994.363 333.727 992.624 328.973 990.814C324.22 989.005 319.494 987.125 314.796 985.176C310.098 983.227 305.43 981.209 300.791 979.122C296.153 977.035 291.546 974.88 286.971 972.657C282.396 970.434 277.855 968.144 273.348 965.787C268.841 963.43 264.369 961.008 259.934 958.519C255.498 956.03 251.1 953.476 246.74 950.857C242.379 948.238 238.058 945.556 233.777 942.81C229.496 940.063 225.256 937.254 221.058 934.383C216.86 931.512 212.705 928.579 208.593 925.585C204.481 922.591 200.414 919.537 196.393 916.423C104.141 845.931 34.839 736.926 11.2506 623.073C7.19047 603.87 4.28315 584.494 2.52862 564.945C1.54043 552.712 1.77552 539.977 0.075021 527.841L0 527.336V492.275C2.10301 482.448 1.82669 471.317 2.73052 461.297C3.99774 447.248 6.22892 433.155 8.61476 419.258C9.50797 414.303 10.4736 409.363 11.5117 404.436C12.5497 399.509 13.6597 394.599 14.8418 389.705C16.0238 384.811 17.2773 379.936 18.6022 375.079C19.9272 370.222 21.3231 365.385 22.7898 360.569C24.2565 355.752 25.7936 350.958 27.4009 346.187C29.0082 341.416 30.685 336.669 32.4315 331.947C34.178 327.225 35.9933 322.53 37.8774 317.861C39.7615 313.192 41.7137 308.552 43.7338 303.941C45.7539 299.329 47.8412 294.748 49.9957 290.198C52.1502 285.647 54.3709 281.129 56.6578 276.644C58.9447 272.159 61.2969 267.708 63.7143 263.292C66.1317 258.875 68.6133 254.495 71.1591 250.152C73.7049 245.808 76.3138 241.503 78.9858 237.236C81.6579 232.969 84.3919 228.742 87.1879 224.555C89.9838 220.368 92.8405 216.223 95.758 212.12C98.6753 208.017 101.652 203.957 104.689 199.941C107.004 196.923 109.352 193.931 111.733 190.966C114.114 188 116.528 185.061 118.975 182.15C121.422 179.238 123.901 176.354 126.412 173.497C128.923 170.64 131.465 167.812 134.039 165.012C136.613 162.212 139.218 159.441 141.854 156.699C144.49 153.957 147.156 151.245 149.852 148.563C152.548 145.88 155.274 143.228 158.029 140.606C160.784 137.985 163.569 135.394 166.382 132.834C169.195 130.274 172.037 127.746 174.906 125.25C177.775 122.753 180.672 120.289 183.596 117.857C186.52 115.425 189.471 113.026 192.449 110.66C195.427 108.294 198.431 105.961 201.46 103.662C204.49 101.363 207.545 99.0975 210.625 96.8665C213.705 94.6354 216.81 92.4388 219.939 90.2768C223.068 88.1149 226.221 85.988 229.397 83.8963C232.574 81.8046 235.773 79.7485 238.996 77.728C242.218 75.7076 245.462 73.7233 248.729 71.7751C251.996 69.827 255.283 67.9155 258.592 66.0406C261.901 64.1657 265.231 62.3279 268.581 60.5272C271.931 58.7265 275.301 56.9633 278.69 55.2377C282.079 53.512 285.488 51.8244 288.915 50.1747C292.342 48.525 295.786 46.9136 299.249 45.3407C302.712 43.7678 306.192 42.2336 309.689 40.7382C313.186 39.2428 316.7 37.7865 320.229 36.3694C323.758 34.9523 327.303 33.5747 330.863 32.2365C334.424 30.8984 337.998 29.6001 341.587 28.3416C345.176 27.0831 348.779 25.8648 352.395 24.6865C356.012 23.5083 359.641 22.3705 363.282 21.2731C366.923 20.1758 370.577 19.1191 374.242 18.1032C377.907 17.0872 381.583 16.1122 385.27 15.1781C388.957 14.244 392.654 13.3512 396.361 12.4995C400.068 11.6478 403.783 10.8375 407.508 10.0686C423.878 6.72381 440.369 4.15514 456.981 2.36259C466.112 1.46053 475.486 1.38319 484.549 0.0737849L485.035 0ZM496.627 26.2744C493.382 26.3833 490.137 26.5243 486.894 26.6974C483.651 26.8706 480.411 27.0759 477.172 27.3132C473.933 27.5505 470.697 27.8199 467.463 28.1214C464.23 28.4229 461 28.7563 457.773 29.1218C454.546 29.4873 451.323 29.8847 448.104 30.314C444.885 30.7433 441.671 31.2045 438.461 31.6975C435.251 32.1905 432.046 32.7153 428.847 33.2718C425.648 33.8283 422.454 34.4164 419.266 35.0362C416.079 35.6559 412.897 36.3072 409.722 36.99C406.547 37.6728 403.38 38.387 400.219 39.1326C397.058 39.8781 393.905 40.6549 390.76 41.463C387.615 42.271 384.478 43.1101 381.349 43.9803C378.22 44.8505 375.1 45.7516 371.989 46.6836C368.878 47.6156 365.777 48.5783 362.685 49.5717C359.594 50.5652 356.512 51.5891 353.44 52.6436C350.369 53.6981 347.308 54.7829 344.258 55.898C341.208 57.0131 338.169 58.1584 335.142 59.3338C332.115 60.5091 329.099 61.7143 326.096 62.9494C323.093 64.1845 320.102 65.4492 317.123 66.7435C314.145 68.0378 311.18 69.3615 308.227 70.7146C305.275 72.0677 302.337 73.4499 299.412 74.8612C296.487 76.2725 293.577 77.7127 290.68 79.1816C287.784 80.6506 284.903 82.1481 282.036 83.6741C279.169 85.2002 276.318 86.7545 273.483 88.337C270.647 89.9195 267.827 91.53 265.023 93.1685C262.219 94.8069 259.432 96.4729 256.661 98.1665C253.89 99.8602 251.136 101.581 248.399 103.329C245.662 105.078 242.943 106.853 240.242 108.655C237.54 110.457 234.856 112.286 232.191 114.141C229.526 115.996 226.879 117.877 224.251 119.785C221.623 121.692 219.014 123.626 216.424 125.586C213.835 127.545 211.265 129.53 208.714 131.54C189.033 147.206 171.162 164.606 153.929 182.886C96.3555 243.956 54.3405 327.517 37.4783 409.63C29.1539 450.167 26.327 492.205 27.6008 533.54C27.7283 537.401 27.9026 541.259 28.1238 545.115C28.3451 548.971 28.6131 552.824 28.928 556.674C29.2429 560.523 29.6046 564.368 30.0129 568.209C30.4212 572.05 30.8762 575.886 31.3778 579.715C31.8793 583.545 32.4274 587.368 33.0219 591.185C33.6164 595.001 34.2572 598.81 34.9443 602.611C35.6314 606.412 36.3645 610.204 37.1437 613.987C37.923 617.77 38.7481 621.543 39.619 625.306C40.4899 629.069 41.4065 632.82 42.3687 636.561C43.3308 640.302 44.3383 644.03 45.391 647.747C46.4438 651.463 47.5416 655.166 48.6844 658.856C49.8271 662.545 51.0146 666.22 52.2467 669.881C53.4788 673.542 54.7552 677.187 56.0759 680.817C57.3966 684.446 58.7612 688.059 60.1697 691.656C61.5782 695.253 63.0303 698.832 64.5258 702.393C66.0213 705.954 67.5599 709.496 69.1415 713.02C70.7231 716.544 72.3473 720.048 74.0141 723.532C75.6809 727.017 77.3898 730.48 79.1408 733.923C80.8918 737.366 82.6844 740.787 84.5185 744.186C86.3526 747.585 88.2278 750.962 90.144 754.316C92.0602 757.669 94.0169 760.999 96.014 764.305C98.0111 767.611 100.048 770.892 102.125 774.149C104.202 777.406 106.318 780.637 108.473 783.842C110.629 787.047 112.823 790.226 115.056 793.377C117.289 796.529 119.559 799.653 121.868 802.75C124.177 805.847 126.522 808.915 128.905 811.954C131.288 814.994 133.708 818.004 136.165 820.985C138.621 823.966 141.113 826.916 143.641 829.837C146.169 832.757 148.732 835.646 151.331 838.504C153.929 841.362 156.562 844.188 159.229 846.982C161.896 849.775 164.596 852.536 167.33 855.265C170.065 857.993 172.832 860.688 175.631 863.349C191.522 878.241 208.53 892.54 226.363 905.073C233.552 910.125 241.371 914.303 248.493 919.371C252.667 922.342 256.311 926.408 260.111 929.876C267.227 936.371 275.098 942.343 283.448 947.164C345.321 982.886 455.182 998.882 526.141 996.399L527.124 996.363C542.281 995.55 557.483 994.873 572.581 993.258C634.043 986.687 697.369 970.629 750.819 938.764C754.41 936.623 758.34 934.422 761.554 931.751C765.439 928.521 768.552 924.928 772.835 922.134C809.939 897.939 844.324 869.868 873.941 836.829C876.59 833.866 879.201 830.871 881.776 827.844C884.351 824.817 886.889 821.759 889.389 818.67C891.889 815.581 894.351 812.461 896.774 809.312C899.197 806.163 901.582 802.984 903.928 799.776C906.273 796.568 908.579 793.332 910.846 790.067C913.112 786.802 915.338 783.51 917.523 780.191C919.709 776.872 921.854 773.527 923.957 770.155C926.06 766.784 928.122 763.387 930.143 759.964C932.163 756.542 934.141 753.096 936.077 749.625C938.012 746.154 939.905 742.66 941.755 739.143C943.606 735.626 945.413 732.086 947.176 728.525C948.939 724.964 950.659 721.381 952.334 717.777C954.009 714.174 955.64 710.55 957.227 706.907C958.814 703.263 960.355 699.6 961.852 695.919C963.349 692.238 964.8 688.539 966.207 684.822C967.613 681.105 968.973 677.371 970.288 673.621C971.603 669.87 972.871 666.104 974.093 662.323C975.316 658.542 976.491 654.746 977.62 650.935C978.749 647.125 979.832 643.302 980.867 639.465C981.903 635.628 982.891 631.779 983.832 627.918C984.773 624.057 985.667 620.185 986.513 616.302C987.359 612.419 988.157 608.527 988.908 604.624C989.659 600.721 990.362 596.81 991.017 592.891C991.672 588.971 992.278 585.044 992.837 581.109C993.395 577.174 993.905 573.233 994.367 569.286C994.829 565.339 995.243 561.387 995.608 557.43C995.973 553.473 996.289 549.511 996.557 545.546C996.825 541.581 997.044 537.614 997.215 533.643C997.386 529.673 997.508 525.701 997.581 521.728C997.654 517.755 997.679 513.781 997.654 509.807C997.63 505.833 997.557 501.86 997.436 497.887C997.314 493.915 997.144 489.945 996.925 485.977C996.712 481.984 996.449 477.995 996.138 474.009C995.827 470.023 995.467 466.041 995.058 462.064C994.649 458.087 994.191 454.115 993.684 450.149C993.177 446.183 992.622 442.224 992.017 438.271C991.413 434.319 990.76 430.375 990.059 426.438C989.358 422.502 988.609 418.575 987.811 414.657C987.014 410.739 986.168 406.831 985.274 402.934C984.38 399.037 983.438 395.152 982.449 391.278C981.46 387.404 980.423 383.543 979.338 379.694C978.254 375.845 977.123 372.011 975.944 368.19C974.765 364.37 973.54 360.565 972.268 356.774C970.995 352.983 969.677 349.209 968.312 345.451C966.947 341.693 965.536 337.952 964.079 334.229C962.622 330.506 961.12 326.801 959.571 323.114C958.023 319.427 956.43 315.761 954.792 312.114C953.154 308.467 951.471 304.84 949.743 301.234C948.016 297.628 946.244 294.044 944.429 290.482C942.614 286.919 940.755 283.38 938.852 279.863C936.949 276.346 935.004 272.854 933.015 269.385C931.026 265.916 928.996 262.473 926.923 259.054C924.85 255.635 922.735 252.243 920.578 248.876C918.421 245.509 916.224 242.169 913.985 238.856C911.746 235.543 909.467 232.259 907.148 229.002C904.829 225.745 902.469 222.518 900.07 219.319C897.671 216.12 895.234 212.952 892.757 209.813C890.28 206.674 887.765 203.566 885.212 200.489C882.659 197.412 880.068 194.367 877.44 191.354C874.812 188.341 872.147 185.36 869.446 182.413C866.745 179.465 864.007 176.551 861.234 173.671C858.461 170.79 855.653 167.944 852.81 165.133C849.967 162.322 847.089 159.546 844.178 156.805C841.267 154.064 838.323 151.36 835.345 148.692C832.984 146.603 830.604 144.538 828.203 142.496C825.803 140.453 823.383 138.434 820.943 136.439C818.504 134.443 816.045 132.471 813.567 130.523C811.09 128.575 808.593 126.651 806.078 124.752C803.563 122.852 801.03 120.977 798.479 119.126C795.928 117.275 793.359 115.45 790.772 113.649C788.185 111.848 785.581 110.073 782.96 108.322C780.339 106.572 777.702 104.847 775.047 103.147C772.392 101.448 769.722 99.7743 767.035 98.1268C764.348 96.4791 761.646 94.8576 758.928 93.2623C756.209 91.6669 753.476 90.098 750.727 88.5556C747.978 87.0131 745.215 85.4974 742.438 84.0085C739.66 82.5196 736.868 81.0577 734.061 79.6228C731.255 78.1879 728.435 76.7803 725.602 75.4C722.768 74.0197 719.921 72.667 717.062 71.3418C714.202 70.0166 711.33 68.7192 708.445 67.4497C705.56 66.1801 702.664 64.9386 699.755 63.7251C696.846 62.5116 693.926 61.3264 690.994 60.1695C688.062 59.0125 685.119 57.884 682.166 56.7841C679.212 55.6841 676.248 54.6128 673.274 53.5702C670.299 52.5277 667.315 51.514 664.321 50.5291C661.327 49.5443 658.324 48.5886 655.311 47.6619C652.299 46.7352 649.278 45.8378 646.248 44.9696C643.218 44.1015 640.18 43.2627 637.134 42.4533C634.088 41.644 631.034 40.8642 627.973 40.1139C624.912 39.3637 621.843 38.6432 618.768 37.9523C615.693 37.2615 612.612 36.6005 609.523 35.9693C606.436 35.3382 603.342 34.7369 600.242 34.1656C597.143 33.5943 594.038 33.0531 590.928 32.542C587.818 32.0308 584.703 31.5498 581.583 31.0989C578.464 30.648 575.34 30.2274 572.213 29.837C569.086 29.4467 565.955 29.0866 562.82 28.7568C540.861 26.4023 518.712 25.0809 496.627 26.2744Z" fill="#192E36"/>
<path d="M177.193 180.027C178.897 178.564 182.114 174.744 184.267 174.829L184.761 176.62L185.763 176.789C186.893 176.153 187.268 175.784 187.858 174.629C187.723 174.004 187.518 173.258 187.497 172.608C187.45 171.16 188.107 170.224 189.072 169.231C201.625 156.307 216.549 144.802 231.005 134.121C233.407 132.352 235.825 130.605 238.259 128.882C240.694 127.158 243.144 125.457 245.61 123.779C248.077 122.101 250.559 120.446 253.056 118.815C255.553 117.183 258.065 115.575 260.592 113.99C263.119 112.405 265.661 110.845 268.218 109.308C270.775 107.771 273.345 106.258 275.93 104.769C278.515 103.28 281.113 101.816 283.725 100.375C286.338 98.9348 288.963 97.5191 291.602 96.1279C294.241 94.7367 296.892 93.3703 299.556 92.0287C302.221 90.6871 304.897 89.3705 307.586 88.079C310.275 86.7875 312.975 85.5212 315.688 84.2802C318.401 83.0392 321.125 81.8237 323.86 80.6336C326.595 79.4435 329.341 78.2792 332.098 77.1405C334.855 76.0018 337.623 74.889 340.401 73.8021C343.179 72.7152 345.967 71.6543 348.764 70.6196C351.562 69.5849 354.369 68.5764 357.186 67.5941C360.003 66.6118 362.828 65.656 365.663 64.7266C368.497 63.7973 371.34 62.8945 374.191 62.0182C377.042 61.142 379.902 60.2926 382.769 59.4699C385.636 58.6472 388.511 57.8513 391.393 57.0824C394.276 56.3135 397.165 55.5716 400.061 54.8567C402.957 54.1418 405.859 53.454 408.768 52.7935C411.677 52.1329 414.592 51.4996 417.513 50.8935C420.434 50.2874 423.36 49.7087 426.291 49.1574C429.223 48.6061 432.16 48.0822 435.101 47.5858C438.042 47.0894 440.988 46.6206 443.938 46.1793C446.888 45.738 449.842 45.3244 452.8 44.9383C455.758 44.5523 458.719 44.194 461.684 43.8634C464.649 43.5327 467.616 43.2299 470.586 42.9548C473.556 42.6797 476.529 42.4323 479.504 42.2128C482.479 41.9933 485.455 41.8017 488.434 41.6378C491.412 41.474 494.392 41.3381 497.373 41.23C506.228 40.9645 515.083 40.9485 523.938 41.1818C532.794 41.4152 541.636 41.8976 550.464 42.6291C559.293 43.3606 568.094 44.34 576.867 45.5673C585.64 46.7946 594.372 48.2679 603.062 49.9871C606.84 50.7315 610.608 51.5221 614.366 52.3589C618.125 53.1958 621.872 54.0786 625.609 55.0074C629.346 55.9361 633.07 56.9106 636.783 57.9308C640.496 58.9509 644.196 60.0165 647.883 61.1274C651.57 62.2383 655.242 63.3943 658.9 64.5953C662.559 65.7963 666.202 67.042 669.829 68.3325C673.457 69.6228 677.069 70.9575 680.664 72.3365C684.259 73.7156 687.836 75.1385 691.396 76.6052C694.957 78.072 698.498 79.5822 702.021 81.1359C705.544 82.6895 709.048 84.2861 712.532 85.9258C716.016 87.5654 719.479 89.2475 722.921 90.972C726.364 92.6966 729.785 94.4632 733.184 96.2717C736.583 98.0802 739.96 99.93 743.314 101.821C746.668 103.712 749.998 105.645 753.305 107.618C756.611 109.591 759.893 111.604 763.15 113.658C766.407 115.711 769.639 117.804 772.844 119.937C776.05 122.07 779.229 124.242 782.382 126.453C785.534 128.664 788.659 130.913 791.756 133.2C794.853 135.488 797.922 137.813 800.963 140.176C804.003 142.539 807.014 144.938 809.995 147.375C812.976 149.812 815.927 152.284 818.848 154.793C821.769 157.302 824.658 159.847 827.517 162.427C830.375 165.007 833.201 167.622 835.995 170.271C838.79 172.92 841.551 175.603 844.279 178.32C847.008 181.037 849.702 183.787 852.363 186.57C855.024 189.353 857.65 192.169 860.242 195.016C862.834 197.864 865.39 200.743 867.911 203.653C870.432 206.564 872.918 209.504 875.367 212.475C877.816 215.446 880.228 218.447 882.603 221.478C884.978 224.509 887.316 227.568 889.617 230.655C891.917 233.743 894.179 236.859 896.403 240.002C898.627 243.145 900.812 246.315 902.958 249.512C904.685 252.098 906.386 254.701 908.061 257.32C909.736 259.939 911.386 262.574 913.009 265.226C914.633 267.878 916.23 270.545 917.801 273.228C919.372 275.911 920.917 278.61 922.435 281.324C923.953 284.037 925.444 286.765 926.908 289.508C928.372 292.251 929.809 295.008 931.219 297.779C932.629 300.55 934.011 303.335 935.366 306.134C936.721 308.933 938.049 311.744 939.349 314.568C940.649 317.393 941.921 320.23 943.164 323.08C944.408 325.929 945.624 328.791 946.812 331.664C947.999 334.537 949.158 337.422 950.289 340.319C951.42 343.215 952.523 346.122 953.596 349.04C954.669 351.958 955.714 354.886 956.73 357.825C957.746 360.764 958.733 363.712 959.691 366.67C960.649 369.628 961.578 372.595 962.477 375.572C963.377 378.548 964.247 381.533 965.088 384.526C965.929 387.52 966.74 390.522 967.522 393.531C968.303 396.54 969.055 399.557 969.778 402.581C970.5 405.605 971.192 408.636 971.855 411.674C972.518 414.712 973.15 417.756 973.753 420.806C974.356 423.857 974.928 426.913 975.471 429.974C976.014 433.035 976.526 436.102 977.008 439.174C977.491 442.245 977.943 445.321 978.364 448.402C978.786 451.483 979.177 454.567 979.538 457.655C979.899 460.743 980.229 463.835 980.53 466.93C980.83 470.025 981.1 473.122 981.339 476.222C981.578 479.322 981.786 482.424 981.964 485.528C982.143 488.632 982.29 491.738 982.407 494.845C982.524 497.952 982.611 501.06 982.666 504.169C982.722 507.278 982.747 510.387 982.742 513.496C982.737 516.605 982.701 519.713 982.634 522.822C982.567 525.931 982.47 529.038 982.342 532.145C981.199 558.136 977.499 584.329 972.392 609.836C971.799 612.692 971.179 615.542 970.532 618.385C969.885 621.229 969.212 624.067 968.511 626.898C967.81 629.729 967.083 632.554 966.329 635.371C965.575 638.189 964.795 640.999 963.988 643.802C963.181 646.605 962.347 649.399 961.487 652.186C960.627 654.973 959.741 657.752 958.828 660.522C957.916 663.292 956.978 666.053 956.013 668.806C955.048 671.558 954.058 674.301 953.041 677.035C952.024 679.769 950.982 682.493 949.914 685.207C948.846 687.921 947.752 690.625 946.633 693.318C945.514 696.011 944.369 698.694 943.199 701.365C942.029 704.037 940.834 706.697 939.614 709.346C938.394 711.995 937.149 714.633 935.878 717.258C934.608 719.884 933.313 722.497 931.994 725.098C930.675 727.699 929.331 730.288 927.962 732.863C926.593 735.439 925.201 738.002 923.784 740.551C922.367 743.1 920.927 745.636 919.462 748.158C917.997 750.68 916.508 753.188 914.996 755.682C913.483 758.176 911.948 760.655 910.389 763.12C908.83 765.585 907.247 768.035 905.642 770.47C904.037 772.905 902.408 775.324 900.757 777.729C899.106 780.133 897.432 782.521 895.735 784.894C894.039 787.266 892.32 789.622 890.579 791.962C888.838 794.302 887.076 796.625 885.291 798.932C883.506 801.239 881.699 803.528 879.871 805.801C878.043 808.074 876.194 810.329 874.323 812.566C872.452 814.804 870.56 817.024 868.647 819.226C866.734 821.427 864.801 823.611 862.847 825.776C860.893 827.941 858.919 830.088 856.924 832.216C854.929 834.344 852.915 836.453 850.88 838.542C848.845 840.632 846.791 842.702 844.718 844.753C842.644 846.804 840.551 848.836 838.439 850.847C820.943 867.699 802.417 883.559 782.183 897.058C787.413 882.671 786.27 864.41 780.606 850.333C768.999 821.49 739.782 806.657 712.712 795.176C697.721 774.41 684.385 752.291 670.375 730.853C660.823 716.236 651.601 701.496 642.321 686.709C637.857 679.595 632.786 672.502 628.843 665.106C629.077 663.72 629.086 663.684 630.112 662.726C631.885 662.918 633.391 664.64 634.665 665.878C641.045 672.079 646.712 679.274 652.642 685.916C663.182 697.721 673.897 709.423 684.645 721.04C721.613 761.713 759.489 801.521 798.273 840.465C799.986 839.367 801.715 838.469 802.826 836.713C802.005 834.591 781.703 813.214 778.303 809.389C762.283 791.652 746.532 773.68 731.051 755.471C719.004 741.347 707.318 726.92 695.214 712.838C682.795 698.677 670.69 684.252 658.898 669.564C654.678 664.339 648.955 658.532 646.005 652.533C646.106 651.324 646.168 651.23 646.929 650.278C648.036 650.099 648.257 649.976 649.254 650.576C654.621 653.805 659.759 659.093 664.506 663.197L696.807 691.318C731.646 721.735 766.814 751.766 802.311 781.412C807.407 785.687 829.156 805.151 833.162 806.035C834.511 805.523 834.876 804.835 835.786 803.738C836.07 800.966 831.557 797.731 829.558 795.955C787.081 758.211 746.376 718.64 704.825 679.89C699.442 674.871 663.807 641.758 661.784 637.668C661.259 636.606 661.249 636.452 661.602 635.392C661.793 635.339 661.979 635.265 662.175 635.234C664.093 634.93 666.115 636.101 667.7 637.046C672.771 640.065 677.565 643.971 682.457 647.309L719.889 673.006C751.673 694.715 783.617 716.185 815.721 737.417C831.496 747.989 846.807 759.57 862.988 769.496C864.168 768.183 865.531 766.969 865.9 765.184C865.157 763.727 863.549 762.568 862.27 761.568C844.99 748.054 826.7 735.573 809.004 722.598C773.355 696.487 737.962 670.034 702.826 643.237C694.565 636.895 685.255 630.718 677.794 623.507C676.481 622.239 674.697 620.659 674.653 618.712C676.101 617.864 677.63 618.457 679.128 619.036C685.039 621.32 690.781 625.191 696.451 628.093C743.259 652.06 789.31 677.559 835.923 701.924C846.308 707.335 856.653 712.82 866.96 718.378C872.671 721.445 878.388 724.944 884.313 727.54C886.203 728.367 887.702 728.874 889.761 728.589C890.992 727.723 891.058 727.627 891.583 726.215C891.34 724.872 891.193 724.775 890.072 723.907C885.168 720.107 879.136 717.285 873.716 714.242C863.411 708.529 853.16 702.719 842.965 696.811C798.863 670.781 754.581 645.155 710.855 618.487C706.328 615.726 684.991 603.973 683.145 600.829C683.012 599.548 682.878 599.55 683.666 598.557C684.426 598.336 685.022 598.26 685.805 598.44C690.442 599.508 695.099 601.943 699.567 603.612C713.41 608.78 727.058 614.266 740.756 619.805C780.397 636.199 820.166 652.274 860.064 668.029C876.731 674.649 893.412 682.668 910.524 687.985C911.624 686.271 912.406 684.434 913.237 682.581C905.325 678.517 896.767 675.346 888.588 671.836C876.927 666.831 865.355 661.56 853.759 656.398C816.828 639.897 780.041 623.081 743.397 605.951C729.755 599.639 716.192 593.161 702.708 586.518C698.859 584.66 692.434 582.49 689.161 580.31C688.188 579.662 688.228 579.397 687.994 578.317L688.523 577.619C695.262 577.482 722.114 585.836 730.718 588.215C784.408 603.063 837.653 619.509 891.273 634.584C897.725 636.398 920.166 643.692 924.567 643.449C926.157 643.362 927.21 642.939 928.311 641.749C928.415 641.015 928.573 640.787 928.205 640.077C927.834 639.36 927.514 638.979 926.907 638.487C923.292 635.559 900.375 629.24 893.841 627.11C858.423 615.765 823.121 604.071 787.934 592.027C772.362 586.8 756.659 581.861 741.185 576.354C723.545 570.077 706.169 563.286 688.698 556.575C697.198 557.433 705.747 558.909 714.211 560.122C744.249 564.427 773.971 570.061 803.774 575.711C831.748 580.784 859.765 585.605 887.826 590.174C903.972 592.895 922.841 597.643 938.744 599.163C939.55 597.255 940.088 595.204 940.702 593.226C933.986 591.312 926.74 590.361 919.879 588.985C908.808 586.736 897.763 584.363 886.745 581.864C845.396 572.987 804.124 563.767 762.929 554.202C747.643 550.765 732.471 546.94 717.217 543.384C709.08 541.487 700.665 540.19 692.644 537.891C701.26 538.415 709.903 537.934 718.53 538.189C736.159 538.71 753.849 539.795 771.455 540.846C813.2 543.336 854.931 547.065 896.662 549.933C911.404 550.947 926.497 552.957 941.245 553.18C943.01 553.207 944.19 552.932 945.752 552.134C946.649 550.936 946.651 550.993 946.528 549.505C945.254 547.455 943.465 546.533 941.116 546.202C936.01 545.483 930.616 545.394 925.457 544.96C915.172 544.137 904.905 543.125 894.657 541.926L759.214 526.239C742.329 524.42 725.578 522.31 708.746 520.055C704.519 519.489 699.142 519.68 695.196 518.345C699.518 517.186 705.311 517.795 709.884 517.348C738.292 514.569 766.467 513.485 794.963 512.626C844.744 511.129 894.504 509.125 944.245 506.616C945.921 506.52 946.711 506.237 947.809 504.98C947.917 503.642 948.108 502.615 947.406 501.396C943.564 500.074 882.911 500.882 873.539 500.851L768.592 499.672C743.648 499.445 718.684 499.882 693.756 498.801C705.497 496.396 717.604 494.971 729.433 492.878C765.076 486.451 800.822 480.666 836.672 475.524C870.369 470.676 904.242 466.655 937.879 461.426C940.143 461.074 943.744 460.945 945.418 459.298C945.701 457.762 945.752 457.185 945.104 455.688C943.328 454.06 941.54 454.004 939.249 454.095C934.079 454.301 928.765 455.473 923.609 456.077L889.926 459.796L789.254 470.206C757.391 473.804 725.054 478.622 692.958 479.091C719.738 471.698 746.164 463.011 773.01 455.852C787.201 452.067 801.55 449.071 815.788 445.513L930.349 416.776C932.108 416.334 935.289 415.913 936.252 414.301C936.151 412.73 936.233 411.148 935.368 409.778C933.489 408.739 928.698 410.074 926.588 410.487C914.343 412.884 902.231 416.191 890.002 418.745L784.58 440.65C754.741 447.135 723.084 454.368 692.961 459.025C703.235 452.4 721.396 446.403 733.196 441.561C781.969 422.103 831.159 403.764 880.766 386.545L910.4 376.102C914.315 374.727 918.98 373.65 922.64 371.762C923.665 371.233 924.108 370.438 924.627 369.456C924.648 367.875 924.606 367.692 923.778 366.346C922.07 365.301 921.087 365.288 919.228 365.735C910.762 367.772 902.359 371.235 894.096 374.003L852.604 387.515C819.541 398.361 786.143 408.164 753.053 418.954L715.635 431.002C710.147 432.76 703.783 435.568 698.104 436.246L697.793 435.289C702.412 423.001 882.227 341.986 908.665 327.97C907.892 326.026 906.894 324.271 905.856 322.464C885.785 330.221 866.27 340.068 846.513 348.652L702.321 411.463C702.419 408.533 702.874 405.647 703.281 402.748C718.525 390.354 736.173 380.131 752.75 369.572C783.381 349.897 814.3 330.686 845.506 311.937C858.087 304.23 871.241 297.158 883.58 289.113C884.873 288.27 885.856 287.533 886.482 286.081C886.291 284.931 885.799 284.186 884.811 283.514C883.406 282.558 881.407 283.043 879.942 283.604C875.102 285.458 870.225 288.922 865.77 291.596C857.964 296.386 850.072 301.03 842.094 305.528L727.195 369.896C723.805 371.752 708.985 380.98 707.304 381.248C705.681 379.157 706.807 371.645 706.952 368.814C718.272 358.525 730.454 349.208 742.43 339.707C770.947 317.085 800.153 295.37 828.78 272.898C835.484 267.635 842.449 262.684 849.034 257.271C852.042 254.798 857.981 250.768 859.376 247.228C859.224 246.426 859.072 245.809 858.601 245.126C857.792 243.954 857.745 243.745 856.347 243.528C852.486 245.079 826.9 265.116 821.456 269.011L761.714 311.254C744.032 323.55 726.1 335.516 709.317 349.043L708.686 348.491C707.353 342.318 709.323 333.216 710.519 327.008C722.729 315.189 827.448 216.792 828.945 213.1C829.405 211.966 829.431 210.832 828.701 209.779C827.927 208.663 827.131 208.623 825.921 208.438C824.618 208.818 823.629 209.28 822.575 210.154C820.502 211.872 818.782 214.025 816.806 215.857L799.914 231.485C783.022 246.987 765.549 261.984 748.332 277.129C736.754 287.313 725.393 298.3 712.984 307.462C714.366 296.774 715.683 285.976 716.403 275.223C724.76 265.037 733.853 255.518 742.289 245.408C760.326 223.792 777.869 201.726 796.215 180.374C794.474 178.712 792.762 177.642 790.68 176.478C778.61 190.683 766.212 204.595 753.487 218.215C740.81 231.88 727.816 245.321 716.429 260.106C718.001 248.704 719.543 237.24 720.158 225.74C720.435 220.572 719.408 214.889 720.308 209.849C721.306 204.26 752.175 161.33 758.055 151.58C756.25 150.356 754.3 149.317 752.411 148.228C741.817 164.803 728.145 181.067 716.894 197.745C714.848 182.893 708.353 169.221 700.669 156.514L700.803 155.809L700.191 155.585L700.266 155.299C707.1 147.298 712.415 136.428 717.034 127.009C715.312 125.996 713.501 125.096 711.741 124.148C707.04 132.065 702.401 142.116 695.538 148.338C688.938 140.658 682.407 133.243 674.834 126.479C672.115 124.018 669.345 121.724 666.432 119.497C668.401 115.257 669.806 110.754 671.327 106.338C669.552 105.275 667.625 104.456 665.752 103.583C664.394 107.531 662.528 111.337 660.821 115.145C654.604 111.485 648.812 107.102 642.528 103.547C637.328 100.606 631.646 98.5735 626.362 95.7654C626.68 94.2072 627.111 92.5306 626.113 91.1096C625.156 89.7457 623.569 89.1053 621.984 88.8953C620.569 89.7651 620.188 91.4796 619.609 92.956C608.332 89.1895 596.797 86.352 585.546 82.6146C585.007 81.7585 584.447 80.9414 583.846 80.128C582.099 79.3318 580.944 79.0783 579.072 79.6847C577.882 80.0704 576.665 80.5831 575.394 80.563C569.918 80.4766 563.882 78.983 558.39 78.3322C552.26 77.6056 545.996 77.4884 539.91 76.5969C538.715 75.5838 538.729 74.9954 538.306 73.5181C537.418 72.701 537.14 72.6414 535.845 72.7932C534.121 72.9954 533.352 74.2279 532.446 75.5451C532.314 75.737 532.187 75.9321 532.057 76.1255C525.099 77.3939 517.191 76.5698 510.109 76.71C505.224 76.8067 500.154 77.522 495.292 77.29C491.524 77.1102 493.219 74.85 491.201 72.7172C489.597 72.4478 488.534 72.8979 487.059 73.4318C485.893 74.8601 485.899 76.8976 485.689 78.6756C479.132 79.1887 472.61 79.9828 466.122 81.0577C459.634 82.1327 453.204 83.4846 446.833 85.1135L446.498 78.3789C444.69 78.6199 442.74 78.682 441.201 79.7348C440.166 81.4107 440.443 83.9477 440.398 85.8757C435.172 88.0602 429.351 89.2555 423.9 90.7921C416.423 92.8702 409.033 95.2212 401.73 97.8452C401.489 95.1799 401.668 92.5066 400.885 89.9205C400.123 89.0796 399.722 88.5029 398.429 88.656C396.995 88.8258 396.522 89.4803 395.71 90.5099C394.991 93.3881 396.13 96.9025 396.619 99.8288C384.281 104.432 371.7 110.33 361.176 118.255C359.591 115.212 357.453 105.79 354.816 104.476C354.088 104.492 353.465 104.524 352.774 104.781C351.651 105.2 351 105.407 350.647 106.662C349.54 110.592 353.426 119.877 355.007 123.749C343.845 135.512 337.495 147.944 330.893 162.586C324.994 149.038 317.25 136.13 311.883 122.386L307.11 124.533C310.309 134.695 315.017 144.649 319.222 154.446C321.937 160.773 325.869 168.038 326.588 174.948C327.746 186.061 323.497 197.695 325.068 208.655C325.09 208.814 325.119 208.971 325.144 209.129C322.531 211.742 320.417 214.427 318.372 217.497C309.898 202.347 299.251 188.538 289.259 174.391C282.909 165.401 277.114 156.035 270.751 147.049L266.718 149.683C271.96 159.672 278.292 169.166 284.197 178.775C289.976 188.179 295.406 197.798 300.999 207.313C305.413 214.823 310.061 222.248 314.157 229.935C317.007 235.283 317.091 240.551 319.676 245.693L320.022 246.373C314.824 253.429 313.798 258.871 313.361 267.454C302.972 254.897 292.236 242.27 281.455 230.051C276.39 224.31 271.073 218.785 266.083 212.979C255.259 200.384 244.936 187.021 233.687 174.837L229.502 177.978C238.086 189.465 247.44 200.434 256.214 211.787C264.354 222.321 271.975 233.256 280.171 243.749C291.288 257.982 302.693 271.867 312.864 286.82C308.555 291.667 308.771 299.775 308.116 305.954C285.424 284.742 261.747 264.406 238.526 243.769L211.942 219.812C209 217.137 206.237 214.178 203.219 211.607C201.961 210.536 200.446 209.353 198.829 208.895C197.685 208.57 197.122 208.68 196.136 209.272C196.067 209.771 195.982 210.141 196.091 210.663C197.163 215.783 274.405 289.76 284.554 299.799C289.049 304.232 293.503 308.708 297.914 313.225C300.913 316.331 303.804 319.888 307.206 322.549C305.1 328.322 304.673 333.934 304.139 340.002C295.141 334.073 286.674 327.119 277.83 320.917L199.4 266.642C189.144 259.504 179.351 251.61 168.967 244.686C167.672 245.857 166.434 247.105 165.174 248.315C169.293 252.19 174.091 255.455 178.567 258.907L197.782 273.974C220.693 291.844 243.51 309.832 266.234 327.938C278.654 337.694 291.568 346.831 303.344 357.378C301.843 361.575 301.196 365.741 300.789 370.164C293.268 366.539 285.949 362.25 278.622 358.238L238.903 336.424C206.251 318.515 173.162 300.922 141.16 281.876L139.398 287.085C154.483 297.957 171.341 307.355 187.233 317.008C214.446 333.351 241.467 350.005 268.298 366.97C277.594 372.877 295.058 382.158 301.843 389.654C300.346 392.527 299.253 395.171 298.684 398.381C284.994 394.241 271.942 387.928 258.73 382.485C227.719 369.726 196.837 356.666 166.082 343.303C157.092 339.438 148.126 335.519 139.184 331.544C134.093 329.266 128.929 326.597 123.688 324.724C121.989 324.117 120.566 323.943 118.775 324.04C117.545 324.77 117.594 324.671 117.232 326.051C117.888 328.031 119.13 328.988 120.872 330.03C124.476 332.186 128.73 333.697 132.559 335.439C139.207 338.51 145.828 341.639 152.423 344.825L249.833 392.08C265.78 399.851 283.164 406.587 298.062 416.206C296.485 419.053 295.678 421.772 295.092 424.94C269.246 416.554 242.976 409.387 216.97 401.498L101.404 365.803C100.832 367.626 100.415 369.504 99.9522 371.359C105.909 373.737 112.18 375.55 118.249 377.66C129.812 381.679 141.341 385.796 152.834 390.013C199.151 406.794 245.557 423.325 292.051 439.604C290.546 442.681 290.476 445.263 290.468 448.611C273.213 445.829 256.116 442.431 238.935 439.25C206.376 433.281 173.854 427.117 141.369 420.76C132.575 419.058 123.711 417.442 114.961 415.545C108.253 414.091 101.48 412.2 94.7099 411.128C92.7583 410.819 90.4239 410.411 88.7267 411.653C88.3137 412.974 88.3925 413.759 88.5535 415.1C88.8677 415.449 89.0936 415.906 89.496 416.148C92.6453 418.046 118.638 423.049 124.566 424.489L227.236 449.449C249.042 454.652 271.088 459.368 292.748 465.116C290.979 468.225 290.409 471.153 289.811 474.629C252.036 470.538 214.064 467.817 176.216 464.471C146.539 461.847 116.916 458.423 87.2434 455.867C85.3456 455.704 82.8996 455.294 81.1178 455.964C80.8175 456.59 80.6797 456.81 80.4976 457.535C80.2025 458.71 80.4753 460.004 81.048 461.03C84.7576 462.443 94.9487 462.9 99.4967 463.472C107.408 464.465 115.303 465.666 123.201 466.765C162.57 471.953 201.91 477.349 241.222 482.953C257.457 485.318 273.857 487.09 289.955 490.282C290.243 493.006 290.279 495.75 290.369 498.486C270.666 498.232 250.861 499.055 231.16 499.467L147.189 500.998C133.722 501.309 120.253 501.513 106.782 501.609C99.747 501.691 92.7056 502.134 85.68 501.682C82.9986 501.51 80.3777 501.311 78.244 503.197C77.4446 504.799 77.7624 506.405 77.8989 508.127C117.294 508.063 156.745 509.665 196.113 511L292.334 513.472C292.641 516.597 293.361 519.767 293.903 522.864L159.555 538.227C133.006 541.338 106.389 545.079 79.7614 547.342L79.965 553.684L193.12 544.826C228.348 541.914 263.7 538.694 299.06 538.107L302.56 545.411C273.867 550.654 245.418 558.19 216.904 564.415L156.346 577.929C134.302 582.71 111.957 587.203 90.1265 592.85C88.5035 593.27 86.0917 593.707 84.9265 594.894C84.9425 596.372 85.2049 596.893 86.0652 598.084C87.2862 598.876 88.2183 599.281 89.679 599.056C99.2179 597.585 108.784 594.795 118.337 593.066L230.715 572.964C246.413 570.125 262.141 567.603 277.866 564.933C289.18 563.013 300.552 560.729 311.965 559.539C313.701 561.426 315.156 563.48 316.646 565.56C301.881 571.755 285.796 576.065 270.522 580.919L213.771 599.491C204.081 602.589 194.553 606.173 184.91 609.408L95.6877 639.682C96.086 641.551 96.8311 643.392 97.4489 645.199C108.129 641.975 118.696 638.377 129.382 635.163C171.015 622.608 212.807 610.609 254.758 599.166C279.826 592.273 304.673 585.308 330.011 579.438L334.868 581.301C325.408 587.178 314.524 591.203 304.425 595.854L181.172 652.078C165.027 659.349 148.635 666.126 132.58 673.595C129.889 674.847 114.981 681.352 114.155 683.07C113.52 684.39 113.696 685.238 114.114 686.574C116.209 688.354 119.727 686.334 122.012 685.29C148.3 673.278 175.454 663.299 202.311 652.653L299.265 613.654C306.828 610.659 339.605 596.499 345.09 597.094C345.89 597.181 345.835 597.468 346.232 598.076C344.187 603 238.404 663.41 224.507 671.559C205.372 682.779 186.399 694.352 167.147 705.363C155.856 711.82 144.279 717.756 132.958 724.16C133.497 725.633 134.104 726.828 134.946 728.149C136.093 728.553 135.893 728.481 136.962 728.103C142.51 726.144 148.057 722.739 153.327 720.061C166.866 713.182 180.158 705.933 193.575 698.828L305.961 639.704L336.978 623.403C342.142 620.634 347.636 616.345 353.271 614.868C354.498 615.196 354.768 616.267 355.41 617.321C352.906 620.874 319.195 645.507 313.827 649.529C298.682 660.88 283.944 672.796 268.786 684.126C233.341 710.504 197.422 736.221 161.03 761.277C160.03 761.958 159.097 762.486 158.768 763.761C158.481 764.872 158.7 766.226 159.355 767.179C159.653 767.613 160.214 768.122 160.774 768.111C161.938 768.09 163.152 767.31 164.109 766.718C169.755 763.229 175.265 759.185 180.812 755.498C194.23 746.633 207.6 737.697 220.921 728.689C247.879 710.574 275.05 692.874 301.802 674.445L339.726 648.858C347.995 643.273 356.387 637.859 364.078 631.482L366.881 635.093C358.859 640.736 352.457 649.526 345.447 656.408C329.621 671.638 313.68 686.746 297.623 701.733C275.796 721.896 253.796 741.87 231.625 761.655L205.941 784.008C199.836 789.315 193.301 794.633 187.854 800.625C188.818 802.151 189.938 803.544 191.051 804.964C252.556 754.955 313.18 703.9 372.924 651.8C374.781 650.153 376.883 648.16 379.482 648.297L380.036 649.391C379.78 651.501 378.959 653.091 377.794 654.861C374.537 659.809 370.358 664.33 366.651 668.953C356.21 681.977 345.441 694.587 334.594 707.27C325.522 717.878 316.871 728.844 307.791 739.453C291.504 758.182 274.964 776.684 258.171 794.96C250.617 803.153 242.645 811.003 234.858 818.976C230.367 823.575 225.463 828.173 221.674 833.373L221.245 833.969C222.598 835.3 224.055 836.535 225.475 837.794C234.454 829.266 242.915 820.302 251.71 811.595C280.091 783.686 307.779 755.106 334.776 725.857L373.304 683.839C379.477 677.062 385.444 669.155 392.31 663.164C393.77 661.889 394.111 661.72 396.062 661.826C396.545 662.225 396.956 662.363 397.063 663.031C397.238 664.121 396.869 665.069 396.407 666.031C394.309 670.395 391.251 674.621 388.655 678.717L373.875 701.905C357.824 726.903 341.355 751.623 324.47 776.066C320.219 782.141 316.282 788.45 311.872 794.409C289.284 803.661 266.382 811.465 251.755 832.52C241.98 846.589 241.471 860.223 241.17 876.722C241.047 883.472 240.745 890.403 241.948 897.071C219.811 882.861 194.331 861.149 175.818 842.557C173.167 839.873 170.55 837.157 167.965 834.409C165.381 831.66 162.831 828.881 160.314 826.07C157.798 823.259 155.317 820.418 152.87 817.547C150.423 814.676 148.012 811.775 145.636 808.844C143.261 805.913 140.921 802.954 138.618 799.966C136.315 796.978 134.049 793.962 131.82 790.919C129.591 787.876 127.399 784.806 125.245 781.709C123.091 778.612 120.975 775.489 118.897 772.34C116.82 769.191 114.781 766.017 112.781 762.818C110.782 759.619 108.821 756.397 106.9 753.15C104.979 749.903 103.099 746.633 101.258 743.34C99.4173 740.047 97.6172 736.732 95.8577 733.395C94.0982 730.058 92.3798 726.7 90.7025 723.321C89.0253 719.942 87.3897 716.542 85.7957 713.123C84.2017 709.704 82.6498 706.266 81.1401 702.809C79.6304 699.352 78.1632 695.876 76.7385 692.383C75.3139 688.89 73.9323 685.38 72.5937 681.853C71.255 678.326 69.9598 674.783 68.708 671.224C67.4561 667.665 66.2481 664.092 65.0838 660.503C63.9195 656.915 62.7993 653.313 61.7232 649.697C60.6472 646.082 59.6156 642.453 58.6284 638.812C57.6413 635.171 56.6988 631.519 55.8011 627.854C54.9034 624.19 54.0508 620.516 53.2431 616.831C52.4354 613.146 51.673 609.451 50.9558 605.748C50.2387 602.044 49.567 598.332 48.9407 594.612C48.3145 590.892 47.7339 587.165 47.199 583.43C46.6641 579.695 46.1749 575.955 45.7316 572.209C45.2883 568.462 44.891 564.711 44.5396 560.955C44.1882 557.199 43.8829 553.439 43.6236 549.676C43.3643 545.912 43.1511 542.146 42.9841 538.377C42.817 534.608 42.6962 530.838 42.6215 527.066C42.5468 523.295 42.5184 519.523 42.5361 515.75C42.5551 463.806 50.0613 414.235 65.8029 364.716C70.6751 349.389 76.0483 333.995 82.6071 319.3C96.4524 288.28 115.144 257.424 135.397 230.128C144.792 217.466 154.076 205.338 164.841 193.803C167.048 191.437 169.401 188.402 171.878 186.374C172.678 185.719 173.637 186.021 174.576 186.14C175.506 186.258 176.365 186.413 177.302 186.287C178.22 186.164 178.132 185.95 178.664 185.259C178.717 183.256 177.994 181.832 177.193 180.027Z" fill="#192E36"/>
<path d="M338.609 204.702L338.559 203.982C338.238 199.033 338.872 194.02 339.185 189.075C340.475 168.717 343.918 153.128 358.043 137.419C359.726 135.572 361.478 133.792 363.299 132.081C365.12 130.37 367.005 128.732 368.953 127.167C370.902 125.602 372.908 124.116 374.972 122.707C377.036 121.298 379.152 119.972 381.319 118.727C404.72 105.346 446.332 94.2862 473.278 90.3837C485.689 88.5862 498.31 87.9322 510.821 87.2161C529.548 85.2326 560.364 87.8228 579.103 91.6604C623.814 100.817 667.221 123.374 692.718 162.315C701.662 175.973 708.18 193.74 709.528 210.102C710.813 225.705 705.724 250.656 703.783 266.982C700.947 291.527 697.801 316.033 694.345 340.499C692.767 352.277 691.87 364.319 689.458 375.951C690.196 376.896 690.962 377.862 691.534 378.919C693.129 381.867 693.629 386.142 692.673 389.372C691.431 393.571 689.152 394.875 685.575 396.899C681.699 415.17 682.762 444.53 676.287 461.091C675.338 463.518 673.894 465.768 672.552 467.994L672.489 533.53C672.436 552.963 673.844 573.507 669.121 592.465C666.124 604.494 659.873 616.289 652.201 625.984C629.653 654.478 593.468 664.491 558.982 668.628C558.749 680.247 557.701 698.282 559.22 709.432C560.348 717.709 563.049 725.961 565.148 734.038C567.903 744.617 570.338 755.269 572.452 765.994C569.716 765.609 566.934 765.134 564.182 764.921C562.75 764.811 561.092 764.887 560.042 765.999C558.02 768.137 558.877 772.338 559.018 775.06C570.642 776.774 582.559 776.8 594.254 778.157C643.294 783.849 731.978 799.93 764.003 840.795C774.34 853.986 776.953 870.258 774.971 886.641C773.169 901.537 767.211 918.578 754.968 927.99C737.114 941.716 714.335 951.149 693.136 958.317C610.222 986.354 514.452 990.579 427.999 979.611C417.076 977.931 406.115 976.611 395.238 974.617C356.968 967.602 309.52 954.83 277.113 932.588C264.643 924.029 253.78 912.887 251.024 897.447C249.963 891.501 250.246 885.29 250.202 879.263C250.088 863.442 249.946 850.258 259.554 836.803C283.055 803.892 375.884 785.825 414.528 780.202C430.824 777.831 447.492 777.557 463.691 774.804L463.44 765.287C459.653 765.037 455.711 765.46 451.917 765.657C454.826 749.779 460.381 734.347 463.51 718.508C465.301 709.444 465.495 680.692 464.468 671.091C438.526 667.778 419.132 661.59 398.024 645.513C375.87 628.639 362.711 607.228 358.906 579.704C349.181 574.039 340.059 568.99 332.014 560.894C311.04 539.788 303.245 511.666 303.376 482.483C303.419 473.001 307.106 466.825 313.72 460.344C310.749 459.476 307.24 458.827 304.792 456.89C302.491 452.63 305.711 437.377 306.979 432.462C311.433 427.899 318.122 424.226 323.949 421.732C320.754 421.105 313.079 420.326 311.222 417.212C309.148 413.734 310.82 404.698 311.914 400.904C313.839 394.226 322.175 391.078 327.852 387.957C325.109 387.136 322.374 386.293 319.645 385.428C317.16 384.632 314.048 383.519 312.889 380.959C310.983 376.751 314.361 366.829 315.968 362.629C320.252 358.923 325.212 356.083 329.953 353.004C326.257 351.796 320.244 350.602 317.951 347.164C315.255 343.122 318.269 332.938 319.214 328.327C323.282 324.227 328.717 321.202 333.567 318.104C329.928 316.554 323.712 315.472 321.351 312.041C318.737 308.24 322.126 297.642 323.09 293.271C326.975 288.974 332.63 286.956 336.474 282.899C334.876 280.153 329.269 279.961 326.911 277.494C325.565 276.086 325.827 273.196 325.951 271.418C326.302 266.367 327.506 256.873 330.858 252.868C333.272 249.983 336.958 247.527 339.852 245.086C337.136 243.944 334.726 243.018 332.992 240.477C329.161 234.861 330.412 226.368 331.726 220.081C335.1 216.19 340.059 213.742 344.443 211.137C342.226 209.14 340.287 207.182 338.609 204.702ZM577.871 183.648L578.774 184.846L579.374 184.901C587.96 189.987 596.846 194.547 604.319 201.279C604.627 203.468 604.699 204.749 606.552 206.188C611.233 209.823 617.835 211.798 623.306 214.005C622.717 220.339 622.179 227.158 619.768 233.108C613.775 230.818 607.825 228.171 601.753 226.125C600.658 227.951 599.858 229.392 597.638 229.92C592.481 231.148 581.68 225.545 575.886 224.761C579.584 226.568 598.017 233.701 599.411 236.331C599.349 237.462 599.237 238.545 599.06 239.664C600.695 242.473 614.455 247.339 618.246 249.158C616.81 255.844 615.75 262.987 613.535 269.44C607.127 267.836 601.006 265.466 594.692 263.571L593.81 269.605C586.348 267.86 578.856 266.258 571.333 264.799C576.935 267.454 588.028 269.677 592.561 272.881C593.698 273.685 593.549 274.911 593.708 276.157C594.926 278.405 609.784 283.347 613.234 284.745C612.299 288.287 611.841 291.971 611.275 295.588C616.16 294.752 621.14 294.661 626.082 294.527L636.365 225.747C638.707 209.904 641.6 193.696 642.625 177.719C643.575 162.915 639.639 134.614 629.328 123.418C626.044 119.853 621.067 117.58 616.754 115.544C597.765 106.578 574.759 100.878 553.74 99.9661C568.256 104.066 581.84 110.094 590.837 122.858C606.143 144.572 610.571 170.635 605.97 196.457C597.037 193.26 588.5 187.185 579.374 184.901L578.774 184.846L577.871 183.648ZM653.243 312.289C654.446 316.001 656.307 319.619 657.599 323.339C660.701 332.274 662.129 341.062 663.198 350.397L663.726 350.815C664.322 348.304 664.561 345.968 664.356 343.387C663.61 334.013 660.887 318.73 653.243 312.289ZM678.444 337.521C674.78 335.497 670.893 334.238 667.115 332.504C667.591 336.761 667.764 340.953 667.471 345.233C671.409 345.903 675.964 346.314 678.392 349.942C679.84 352.106 679.778 355.04 679.131 357.468C678.026 361.615 675.893 364.495 672.869 367.377C672.069 362.817 669.802 358.972 668.068 354.745C668.093 365.139 668.004 375.426 667.503 385.812C669.818 386.738 674.197 389.071 676.597 388.149C677.639 386.707 678.402 385.654 678.042 383.76C677.245 379.575 671.805 378.475 672.037 373.516C672.737 372.582 672.281 372.836 673.269 372.661C674.786 372.393 675.988 372.29 677.193 371.242C679.792 367.048 679.866 356.232 679.907 351.228C679.924 349.217 679.327 346.858 679.759 344.898C680.205 342.876 681.891 341.329 682.339 339.354C684.242 330.976 684.514 321.62 685.663 313.053C684.617 310.772 683.329 308.482 683.035 305.968C684.164 303.693 685.614 304.34 687.089 302.932C688.835 301.265 690.981 278.757 689.999 275.737C688.993 272.647 687.105 269.949 685.629 267.081C687.792 266.856 690.048 266.858 691.955 265.731C695.165 261.422 695.739 247.091 695.854 241.382C691.69 236.335 693.789 233.395 688.138 228.453C691.038 228.8 694.005 229.503 696.542 227.621C698.044 226.506 698.619 224.51 698.729 222.732C698.988 218.523 697.646 213.901 696.756 209.827C696.384 215.393 697.817 222.46 695.722 227.596C694.227 228.472 692.902 228.354 691.25 227.907C684.671 226.13 677.53 221.65 671.526 218.347C672.643 216.468 673.819 214.641 674.599 212.592C679.755 196.565 678.651 180.23 671 165.203C663.568 150.606 650.424 132.681 635.158 125.538C642.829 137.882 645.833 155.235 646.067 169.591C646.287 183.089 643.79 196.906 641.926 210.254L632.947 271.244C631.788 278.984 630.281 286.744 629.317 294.503C634.299 295.125 639.114 295.956 643.943 297.349C652.522 299.824 677.174 308.941 683.678 314.15C683.346 318.995 682.502 333.17 680.251 336.764C679.663 337.03 679.069 337.356 678.444 337.521ZM603.193 309.197C598.519 310.823 594.373 312.618 590.619 315.93C584.348 321.462 580.661 330.254 580.085 338.545C579.413 348.223 582.777 359.61 589.193 366.98C588.114 363.623 586.849 360.209 586.041 356.775C585.14 352.946 583.982 342.8 586.323 339.486C586.816 338.788 586.74 339.014 587.692 338.94C588.569 341.312 588.25 344.388 588.57 346.915C589.552 354.682 593.458 362.712 597.807 369.107C592.566 355.502 593.211 343.946 595.644 329.882C597.294 322.288 598.892 315.778 603.193 309.197ZM537.555 451.44C542.682 452.97 552.977 454.881 557.004 457.868C557.008 458.794 557.059 459.334 557.307 460.249C560.516 462.087 564.882 462.841 568.464 463.833L568.373 457.53C568.217 457.464 568.062 457.396 567.906 457.332L567.122 457.016C559.139 453.739 546.194 451.892 537.555 451.44ZM532.057 485.474L550.624 490.848C550.181 499.048 547.662 523.048 543.734 529.486C540.842 534.225 537.039 535.932 531.884 537.155C530.132 536.648 528.342 536.031 526.736 535.159C518.781 530.84 513.037 521.061 510.667 512.578C507.885 502.62 510.554 489.41 511.729 479.27C514.452 455.767 518.823 432.295 522.438 408.906C529.369 362.285 536.749 315.735 544.577 269.256L557.809 185.303C559.548 174.601 560.533 163.411 562.954 152.868C564.442 146.39 567.872 140.654 571.121 134.935L570.718 135.366L570.056 136.093C561.66 145.207 560.418 156.159 558.641 167.915L520.298 410.998L510.024 474.942C508.407 484.414 505.249 494.545 504.794 504.094C504.45 511.315 506.828 518.447 510.695 524.488C522.603 543.093 546.136 551.566 566.755 556.161C567.297 534.43 567.481 512.559 567.597 490.82C559.471 488.678 553.52 488.292 545.437 487.216C540.955 486.62 536.582 485.809 532.057 485.474ZM612.29 646.653C625.098 641.034 637.186 630.629 644.552 618.779C652.15 606.554 657.638 590.922 659.582 576.651C660.914 566.872 660.376 556.683 660.416 546.815L660.638 495L661.775 403.008C661.849 393.038 663.028 372.298 660.955 363.459L660.438 363.531C658.954 369.984 656.892 376.785 656.154 383.354C655.4 390.061 656.28 397.538 656.332 404.316C656.387 417.137 656.341 429.957 656.193 442.776C656.098 482.244 656.812 521.708 656.077 561.158C655.521 591.074 648.01 611.849 626.672 633.6C622.216 638.142 617.164 641.938 612.612 646.338L612.29 646.653ZM369.161 582.904C369.13 583.102 369.084 583.299 369.07 583.5C368.496 591.823 380.23 612.274 385.164 618.785C397.459 635.007 425.386 655.862 445.937 658.683C441.431 655.598 434.969 654.051 429.999 651.539C415.969 644.448 402.139 632.871 391.991 620.807C386.683 614.497 381.79 607.462 378.249 599.99C376.007 595.26 374.196 590.101 371.638 585.553C370.811 584.083 370.62 583.77 369.161 582.904ZM307.935 926.231C289.839 920.781 274.197 908.292 261.938 894.292C265.251 908.925 274.437 918.033 286.883 925.954C305.812 938.001 328.003 945.374 349.457 951.418C367.96 956.631 386.671 960.344 405.617 963.487C466.102 973.523 523.835 974.552 584.75 968.464C605.863 966.355 627.3 963.746 648.01 959.013C676.392 952.526 732.443 934.517 754.188 915.932C755.915 906.822 757.766 898.105 757.003 888.784C740.012 902.287 717.623 910.29 697.124 916.712C655.023 929.648 610.289 936.647 566.406 939.778C551.336 940.854 536.404 940.935 521.313 941.016C450.504 941.396 353.037 933.942 289.885 900.448C278.087 894.191 271.211 888.836 262.293 878.981C261.775 880.449 261.691 881.384 262.365 882.835C268.264 895.527 300.923 912.609 314.237 918.5C317.458 919.925 325.858 922.211 327.778 924.245C319.563 925.813 289.441 909.404 282.695 904.825C275.279 899.791 268.667 894.122 262.995 887.152L262.392 887.223C261.87 888.733 261.811 889.646 262.542 891.114C264.098 894.241 267.231 896.964 269.748 899.32C281.423 910.246 294.155 918.303 307.935 926.231ZM503.002 98.669C492.346 100.067 485.828 107.022 479.506 115.23C472.473 124.359 468.51 134.3 466.286 145.554C465.521 149.42 465.107 153.925 463.533 157.524C462.723 159.377 461.898 159.525 460.012 159.803C456.477 160.325 451.785 160.313 448.355 159.298C447.096 158.218 446.549 157.483 446.487 155.769C446.394 153.174 447.552 149.981 448.217 147.453C451.235 135.973 455.196 124.54 463.857 116.033C469.626 110.368 476.951 105.333 483.814 101.066C471.116 102.349 458.646 101.431 449.749 112.188C438.374 125.939 436.843 143.371 433.075 160.051C429.77 161.248 423.933 162.865 420.566 161.476C419.218 160.92 418.725 160.29 418.248 158.926C415.646 151.5 423.76 132.391 427.654 125.822C431.639 119.099 437.878 112.854 443.909 107.956C436.252 109.796 428.318 111.374 421.01 114.372C408.924 130.609 407.007 143.849 403.699 163.057C400.642 163.881 396.17 165.521 393.285 163.655C392.495 163.144 392.326 162.718 392.135 161.79C391.781 160.061 392.386 157.193 392.545 155.402C393.768 141.549 398.844 130.772 406.853 119.541C395.386 124.94 389.452 125.714 384.796 138.624C383.887 141.164 383.117 143.745 382.484 146.367C381.852 148.99 381.362 151.638 381.013 154.313C380.55 157.83 380.503 161.947 379.367 165.294C378.845 166.833 377.954 168.075 376.479 168.852C375.336 169.455 373.993 169.614 372.754 169.216C371.403 168.783 370.447 167.828 369.918 166.537C367.224 159.962 374.402 141.637 377.138 135.374C361.772 149.243 352.807 163.874 351.685 185.01C351.401 190.344 351.498 195.705 351.134 201.031C358.643 199.494 397.919 191.423 402.717 193.585C404.118 197.811 401.716 210.279 399.816 214.476C399.726 214.674 399.643 214.876 399.554 215.075C399.5 215.195 399.443 215.312 399.387 215.431C389.603 216.165 351.501 220.225 345.664 226.494C343.985 228.296 344.533 232.768 344.577 235.105C357.707 230.903 370.481 229.561 384.105 228.272C388.27 227.878 392.849 227.11 397.014 227.511C398.111 228.19 398.389 228.624 398.652 229.914C399.203 232.625 397.436 247.593 396.027 249.722C395.161 251.031 393.537 250.982 392.088 251.163C375.511 253.238 357.819 252.549 342.344 260.006C341.725 263.283 341.199 266.527 340.819 269.841C350.499 267.313 382.777 261.853 391.695 263.949C392.866 265.086 392.984 266.225 393.009 267.837C393.107 274.06 391.637 280.806 390.811 286.995C380.676 288.027 343.253 290.276 337.508 297.023C335.725 299.117 335.776 302.569 335.507 305.197C351.899 300.382 368.498 300.739 385.301 299.144C389.247 295.962 393.739 291.879 399.202 292.348C401.556 292.55 404.405 293.626 405.833 295.606C406.545 296.593 406.759 297.551 406.557 298.745C406.317 300.158 405.047 301.564 404.157 302.621L404.252 303.191C406.62 303.387 407.809 302.588 409.791 301.365C411.066 300.579 412.163 299.997 413.637 299.69C419.683 298.428 426.521 298.567 432.709 298.235C449.705 297.344 466.712 296.922 483.731 296.968C494.751 296.962 505.747 297.859 516.741 297.876C517.301 293.936 517.813 289.985 518.64 286.09C503.379 285.019 488.099 284.504 472.8 284.546C457.501 284.588 442.225 285.187 426.97 286.342C423.284 286.633 407.575 288.585 405.564 287.759C405.135 287.583 404.897 287.116 404.564 286.794C403.233 283.202 405.075 269.031 406.243 264.929C409.131 261.634 441.403 260.275 448.261 259.824C472.917 258.203 498.207 257.509 522.851 259.561C523.35 255.765 523.939 251.955 524.285 248.143C496.97 246.384 470.33 246.298 442.998 248.077C436.931 248.471 413.841 251.542 410.1 249.273C408.45 245.965 410.525 231.73 411.737 228.054C411.925 227.485 412.288 227.26 412.708 226.848C419.078 224.54 428.003 225.032 434.819 224.549C452.963 223.265 471.05 221.768 489.251 221.579C502.491 221.441 515.611 222.346 528.82 222.492C529.574 218.389 530.296 214.299 530.855 210.164L529.912 210.054C523.127 209.296 516.189 209.385 509.367 209.254C489.602 208.769 469.875 209.436 450.188 211.253C439.763 212.129 429.24 213.501 418.792 213.928C417.01 214.001 416.419 213.595 415.054 212.478C413.621 209.161 415.096 199.056 416.448 195.627C417.325 193.404 418.682 191.786 420.922 190.861C425.919 188.798 435.709 188.974 441.356 188.499C474.16 185.739 502.514 184.005 535.587 185.359C537.003 177.361 538.145 169.12 540.342 161.302C544.431 146.755 553.672 129.338 566.36 120.538C569.022 118.691 571.842 117.118 574.68 115.562C569.54 112.64 564.517 109.737 558.999 107.566C542.089 120.877 533.591 139.969 529.073 160.534C525.509 160.281 510.883 160.564 508.867 158.846C507.45 152.23 518.049 131.075 521.961 125.054C527.687 116.237 536.603 107.036 546.037 102.237C539.867 101.075 533.896 100.142 527.595 100.047L526.994 100.486C516.493 108.223 508.711 119.671 503.622 131.521C502.068 135.14 494.791 159.267 493.692 159.852C493.247 160.09 482.007 160.015 480.894 159.855C479.783 159.696 478.987 159.293 478.04 158.715C476.553 156.378 477.007 153.809 477.603 151.184C481.375 134.577 490.703 118.513 503.961 107.743C507.868 104.568 512.331 101.882 516.525 99.0941C512.188 98.6732 507.341 98.0248 503.002 98.669ZM591.586 296.983C591.496 298.561 591.169 299.716 591.925 301.127C593.501 301.032 594.74 300.182 596.09 299.437L597.256 298.713C596.373 297.633 593.068 297.327 591.586 296.983ZM558.482 299.094C563.545 300.348 568.739 301.383 573.54 303.472C576.651 304.826 579.468 306.738 582.569 308.098L585.221 305.304L587.809 303.257C582.816 301.894 563.565 298.984 558.482 299.094ZM401.635 303.636C395.582 304.712 391.201 307.115 387.631 312.346C384.128 317.476 382.422 324.329 383.647 330.469C384.456 334.519 386.683 338.465 390.275 340.652C393.006 342.314 396.236 342.671 399.31 341.871C403.081 340.891 405.826 338.682 408.631 336.127C435.209 333.692 462.736 333.982 489.375 335.046C496.454 335.266 503.775 335.113 510.807 335.847C511.602 332.083 512.396 328.357 512.836 324.531C505.19 323.231 497.064 323.295 489.31 322.984C463.15 321.935 437.322 323.133 411.194 323.881C411.165 317.356 410.536 311.059 405.692 306.144C404.545 304.98 403.27 303.944 401.635 303.636ZM613.566 306.532C608.322 308.047 605.389 309.622 602.698 314.709C596.306 326.79 596.96 345.238 601.115 357.918C602.264 361.423 603.83 364.487 605.526 367.743L606.445 369.472C606.821 365.524 604.361 360.595 604.004 356.514C602.976 344.752 605.916 334.609 608.633 323.409C609.76 318.76 610.503 314.573 612.692 310.267C613.249 309.17 614.42 307.803 614 306.636L613.566 306.532ZM373.582 324.21C360.217 325.247 344.779 326.431 332.707 332.518C332.51 334.936 331.805 337.944 333.002 340.095C334.311 340.667 335.489 340.151 336.795 339.8C350.145 337.318 363.311 336.094 376.902 336.474C376.578 333.807 376.586 325.731 374.757 324.18L373.582 324.21ZM622.409 326.136C619.812 327.203 617.648 328.407 616.47 331.091C615.519 333.256 615.965 335.599 616.878 337.698C620.046 344.981 626.954 350.219 634.251 352.873C639.645 354.834 644.517 355.017 650.19 354.653C649.743 352.635 649.485 350.736 648.202 349.057C647.021 348.443 646.482 348.162 645.156 348.544C639.193 350.263 636.181 351.157 630.131 348.137C626.332 346.241 623.051 343.505 620.214 340.368L619.599 339.011L619.981 338.605C621.186 339.016 622.166 339.512 623.279 340.131C628.303 342.924 634.069 344.789 639.637 346.159C635.774 343.721 628.665 340.298 627.014 336.028L626.574 336.696L626.089 335.94C632.019 335.764 639.505 344.427 645.477 342.09C646.018 341.235 646.034 341.195 645.766 340.243C644.533 335.861 638.366 330.064 634.494 328.075C630.619 326.085 626.675 325.742 622.409 326.136ZM554.084 337.607C559.674 339.432 565.578 341.658 571.337 342.819C571.111 341.499 571.206 340.273 570.215 339.333C565.022 338.557 559.336 337.626 554.084 337.607ZM386.435 356.623C384.846 357.602 383.106 358.801 381.299 359.307C376.522 360.644 370.996 360.555 366.056 360.938C354.069 361.868 340.037 363.456 329.136 368.564C328.652 371.297 328.212 374.037 327.817 376.784C338.006 374.468 370.103 370.503 379.144 373.334C380.225 374.331 380.1 375.321 380.129 376.773C380.203 380.519 379.167 393.091 377.205 395.947C374.338 397.275 352.339 398.08 347.032 398.682C339.921 399.488 333.155 400.777 326.354 403.037C325.877 406.017 325.391 408.986 325.097 411.991C341.064 409.993 360.07 407.402 376.093 409.681C375.186 417.772 374.573 426.548 372.261 434.369C354.368 436.503 336.131 434.759 318.621 440.19C318.373 442.891 318.085 445.546 317.635 448.223C324.848 447.263 362.884 444.137 367.515 447.917C368.454 448.684 368.406 451.315 368.386 452.467C368.254 460.345 366.444 468.644 365.176 476.405C348.109 474.079 329.995 477.152 312.888 478.065C313.245 505.876 318.401 534.299 339.234 554.498C340.606 555.815 342.013 557.094 343.456 558.335C344.899 559.575 346.374 560.775 347.883 561.934C349.392 563.093 350.931 564.209 352.501 565.284C354.07 566.359 355.668 567.389 357.295 568.376C358.922 569.363 360.574 570.304 362.252 571.2C363.931 572.096 365.632 572.945 367.357 573.748C369.082 574.551 370.827 575.305 372.594 576.011C374.36 576.718 376.144 577.375 377.947 577.984C372.79 574.36 367.674 570.705 363.207 566.23C346.127 549.124 337.712 524.509 333.573 501.171C332.491 495.07 331.96 488.892 331.408 482.725C334.774 482.68 338.182 482.518 341.536 482.832C342.919 489.71 343.717 496.682 345.126 503.552C350.833 531.39 361.632 559.287 386.231 575.782C392.056 579.689 411.771 589.942 418.461 589.181C418.568 589.169 418.671 589.13 418.775 589.104L418.169 588.921C417.482 588.706 416.798 588.483 416.117 588.252C415.436 588.021 414.758 587.781 414.083 587.532C413.408 587.284 412.736 587.027 412.067 586.762C411.398 586.497 410.733 586.224 410.071 585.943C409.409 585.661 408.751 585.371 408.096 585.073C407.441 584.776 406.79 584.47 406.143 584.156C405.496 583.842 404.853 583.52 404.214 583.189C403.575 582.859 402.94 582.521 402.309 582.176C401.678 581.83 401.051 581.476 400.429 581.115C399.807 580.754 399.19 580.385 398.577 580.008C397.964 579.631 397.356 579.247 396.753 578.855C396.15 578.463 395.551 578.064 394.958 577.657C394.365 577.251 393.776 576.837 393.193 576.416C392.61 575.995 392.032 575.566 391.46 575.13C390.887 574.695 390.32 574.252 389.759 573.802C389.198 573.353 388.642 572.896 388.091 572.432C387.541 571.969 386.997 571.499 386.459 571.022C385.92 570.545 385.388 570.061 384.861 569.571C384.335 569.081 383.815 568.584 383.3 568.081C382.786 567.578 382.278 567.068 381.777 566.552C381.276 566.037 380.781 565.515 380.292 564.987C379.803 564.458 379.322 563.924 378.847 563.384C378.372 562.844 377.903 562.298 377.441 561.747C376.98 561.195 376.525 560.638 376.077 560.075C375.629 559.512 375.188 558.943 374.755 558.37C374.321 557.796 373.894 557.217 373.475 556.632C373.056 556.047 372.644 555.458 372.239 554.863C371.834 554.268 371.437 553.669 371.047 553.064C370.658 552.459 370.276 551.85 369.901 551.236C369.526 550.622 369.159 550.003 368.8 549.38C368.441 548.757 368.089 548.129 367.745 547.497C367.402 546.865 367.066 546.229 366.738 545.589C359.59 531.828 355.795 515.314 354.456 499.929C360.08 500.102 365.718 500.201 371.336 500.497C371.215 505.837 372.059 511.297 372.947 516.559C375.591 532.227 380.049 546.849 391.217 558.585C409.046 577.324 442.367 592.253 468.061 594.829L467.539 594.605C460.95 591.841 453.964 589.942 447.285 587.35C423.707 578.201 402.468 564.41 392.485 540.107C388.631 530.724 385.063 513.795 388.843 504.02C389.344 502.725 390.061 501.568 391.379 500.968C394.736 499.438 400.511 499.938 403.838 501.36C405.767 502.185 407.289 503.396 407.998 505.42C410.285 511.951 410.009 519.984 411.283 526.844C415.851 551.445 432.533 568.49 454.239 579.855C469.127 587.65 490.528 593.837 507.438 593.56C486.056 587.776 472.874 585.318 453.4 572.785C452.405 572.12 451.428 571.43 450.467 570.717C449.506 570.004 448.563 569.267 447.638 568.508C446.713 567.749 445.808 566.967 444.921 566.163C444.034 565.36 443.168 564.535 442.322 563.688C441.475 562.842 440.65 561.976 439.846 561.09C439.043 560.203 438.261 559.298 437.501 558.373C436.742 557.448 436.005 556.506 435.292 555.545C434.578 554.584 433.888 553.607 433.223 552.612C432.557 551.617 431.916 550.607 431.3 549.582C430.683 548.556 430.092 547.516 429.527 546.461C428.962 545.406 428.423 544.338 427.91 543.257C427.397 542.176 426.91 541.083 426.45 539.978C425.991 538.873 425.558 537.758 425.153 536.632C424.748 535.506 424.371 534.371 424.021 533.226C423.672 532.081 423.35 530.929 423.057 529.769C422.764 528.609 422.499 527.442 422.263 526.269C420.733 518.333 420.09 509.032 423.066 501.341C426.977 500.246 430.643 499.409 434.46 501.49C436.25 502.465 437.087 503.564 437.599 505.545C439.018 511.04 439.163 516.829 440.471 522.373C445.677 544.43 458.224 560.234 477.399 571.962C497.274 584.118 526.503 592.919 549.975 590.662C544.115 588.44 536.624 588.455 530.386 587.023C502.178 580.546 468.046 568.839 455.222 540.373C451.292 531.65 446.037 511.79 449.84 502.739C450.41 501.381 451.221 500.42 452.635 499.856C455.928 498.544 464.64 498.449 467.812 500.344C469.4 501.293 469.806 503.01 470.123 504.718C470.938 509.104 470.902 513.618 471.877 517.975C475.535 534.316 485.691 548.632 499.232 558.346C514.841 569.543 536.679 576.193 555.607 579.368C557.842 579.743 561.821 580.877 563.995 580.463C564.313 580.403 564.603 580.24 564.892 580.096L564.469 580.287L565.697 578.9C562.614 575.88 551.897 574.727 547.385 573.424C528.22 567.889 499.982 555.049 488.265 538.696C481.215 528.856 477.77 514.411 477.678 502.46C477.659 499.893 477.902 497.066 479.795 495.152C482.043 494.246 484.514 494.486 486.903 494.496C487.748 489.909 488.428 485.298 488.945 480.663C471.896 478.327 454.623 477.85 437.441 477.251C426.796 476.88 416.166 476.25 405.515 475.939C400.233 475.784 394.913 475.952 389.642 475.692C388.179 475.619 386.706 475.566 385.408 474.834C381.89 469.197 384.584 455.443 386.025 449.25C386.233 448.36 386.455 447.474 386.692 446.591C422.294 446.938 457.85 448.4 493.361 450.977C494.041 447.208 494.538 443.485 494.894 439.671C472.713 436.609 446.347 435.321 423.837 434.841C414.85 434.649 405.752 435.273 396.796 434.824C394.838 434.726 391.08 434.716 389.726 433.161C386.761 429.758 389.012 420.823 389.633 416.639C389.999 414.173 390.396 410.69 392.559 409.106C395.239 407.144 403.674 408.567 407.104 408.58C437.991 408.463 468.831 409.614 499.624 412.033L501.191 400.029C479.205 398.361 456.772 397.108 434.718 396.852C422.481 396.711 410.044 397.63 397.846 397.025C396.091 396.938 394.431 396.931 393.089 395.669C391.547 390.583 394.284 378.579 395.327 373.044C403.777 371.404 412.894 371.681 421.493 371.473C449.415 370.801 477.276 372.032 505.138 373.671C505.855 369.922 506.537 366.167 507.183 362.406C498.004 361.092 488.521 360.914 479.264 360.365C465.212 359.531 451.082 358.505 437.001 358.707C425.869 358.866 414.684 359.782 403.56 359.662C398.308 359.605 394.148 356.149 389.015 356.461C388.154 356.513 387.295 356.553 386.435 356.623ZM579.876 363.16C578.722 372.147 578.966 381.339 578.868 390.386L578.346 426.041C577.583 469.679 577.075 513.387 575.708 557.006C575.355 568.259 575.152 579.48 574.613 590.732C574.282 597.649 574.228 604.459 572.515 611.225C569.472 623.244 564.396 629.524 557.077 638.876C561.168 636.819 572.932 630.64 576.843 630.626C576.266 631.57 576.682 631.179 575.576 631.665C564.272 636.623 554.417 644.574 543.173 649.754C534.697 653.659 525.417 656.932 516.099 657.965C494.928 660.312 462.421 652.688 442.358 645.049C421.46 637.092 403.437 624.606 394.028 603.673C393.089 601.626 392.301 599.523 391.664 597.364C391.027 595.205 390.546 593.011 390.222 590.783C386.548 589.644 382.856 588.566 379.147 587.549L377.974 587.595C377.179 590.067 383.252 603.488 384.823 606.524C398.135 632.249 423.644 647.138 450.424 655.525C474.486 663.06 508.276 666.689 533.123 661.519C542.272 659.616 551.422 656.136 559.672 651.765C560.694 651.234 561.702 650.679 562.696 650.098C563.691 649.517 564.67 648.911 565.633 648.281C566.597 647.65 567.545 646.996 568.476 646.319C569.407 645.641 570.32 644.94 571.216 644.217C572.112 643.494 572.989 642.748 573.848 641.981C574.707 641.214 575.546 640.425 576.365 639.616C577.184 638.806 577.982 637.976 578.76 637.127C579.537 636.278 580.293 635.409 581.027 634.522C581.761 633.635 582.472 632.73 583.161 631.807C583.85 630.884 584.515 629.944 585.156 628.988C585.797 628.031 586.414 627.059 587.007 626.072C587.6 625.085 588.168 624.083 588.711 623.068C589.254 622.052 589.77 621.023 590.261 619.982C590.752 618.94 591.217 617.887 591.655 616.822C592.094 615.757 592.505 614.682 592.889 613.596C593.274 612.511 593.631 611.416 593.96 610.313C596.86 600.587 597.826 590.285 598.296 580.176C599.006 564.899 598.52 549.433 598.48 534.138C598.487 506.802 598.309 479.467 597.946 452.133L597.825 401.236C597.798 395.534 598.296 389.531 597.944 383.873C597.851 382.381 597.301 380.883 596.619 379.567C594.479 375.436 583.974 365.814 579.876 363.16ZM604.012 373.452C607.314 387.276 606.002 402.799 606.085 416.947L606.553 473.433C606.905 498.077 607.082 522.722 607.083 547.368C607.073 563.458 607.334 579.74 605.468 595.749C604.04 608.007 601.01 620.445 594.514 631.055C588.776 640.428 581.151 647.269 572.547 653.925C569.719 656.112 566.443 658.188 563.948 660.713C565.089 660.941 566.045 660.553 567.127 660.229C582.515 654.865 593.993 642.475 600.989 627.996C605.717 618.21 609.166 607.144 610.205 596.298C611.925 578.343 611.278 559.963 611.149 541.939C611.148 518.508 610.969 495.079 610.612 471.652L610.208 415.65C610.157 406.22 610.503 396.63 609.942 387.229C609.815 385.112 609.564 383.028 608.846 381.018C607.832 378.177 606.043 375.661 604.012 373.452ZM550.017 377.972L569.856 384.308C569.678 382.949 569.793 381.852 568.895 380.781C563.158 379.651 555.818 377.669 550.017 377.972ZM546.527 415.414C547.408 415.714 547.615 415.829 548.556 415.634L547.538 415.036L546.527 415.414ZM548.557 415.564C554.486 418.115 560.66 419.773 566.555 422.518C567.459 422.94 567.104 422.807 568.217 422.881C568.385 421.322 568.762 419.685 568.189 418.185C562.81 417.582 553.377 415.398 548.557 415.564ZM668.502 415.18C668.074 416.926 667.811 418.155 668.133 419.937L668.777 420.667C669.198 419.119 669.882 417.511 669.414 415.919L668.502 415.18ZM564.601 599.162C534.527 604.371 490.504 607.674 460.447 603.816C464.767 607.821 469.314 611.062 474.385 614.045C493.052 622.797 513.892 626.677 534.47 626.89C541.198 626.96 547.923 626.474 554.648 626.479C559.767 620.408 565.316 607.411 565.333 599.499L564.601 599.162ZM417.574 600.418C420.488 610.377 434.55 620.754 443.217 625.497C449.016 628.638 455.047 631.242 461.31 633.309C474.975 637.877 513.653 647.657 526.505 643.862C530.23 642.763 533.774 641.091 537.308 639.502L543.594 636.523C516.272 636.605 473.319 634.338 448.037 624.177C440.487 621.142 433.622 616.992 427.823 611.247C424.953 608.403 421.028 601.947 417.574 600.418ZM474.623 670.851L474.574 823.656C470.628 822.751 468.262 822.022 465.106 819.37C463.924 819.589 463.927 819.654 463.125 820.566L463.301 821.355C465.456 822.576 468.119 823.194 470.477 823.939C490.845 830.382 524.785 831.46 545.647 825.629C550.757 824.201 555.348 821.934 560.625 821.05L560.87 820.532C559.82 819.711 559.023 819.453 557.771 819.081C555.743 819.377 554.49 820.595 552.94 821.853C550.656 823.707 545.049 825.195 542.126 824.833C541.891 824.803 541.657 824.758 541.422 824.721L541.035 824.055L541.859 823.765C543.501 823.175 545.36 822.66 546.227 820.999C547.3 818.942 546.69 686.292 546.418 671.91C543.786 672.253 541.128 672.536 538.511 672.975L538.626 773.338C538.612 790.277 538.408 807.245 538.917 824.177C526.486 826.613 514.128 827.941 501.445 827.265L501.053 671.746C495.822 671.532 490.588 671.444 485.352 671.482C485.022 707.283 484.913 743.084 485.024 778.883L484.927 807.89C484.92 812.122 485.197 816.426 484.981 820.648C484.899 822.264 484.719 823.655 484.056 825.142C482.811 825.482 482.954 825.303 481.87 824.769C481.128 823.613 480.94 822.755 480.893 821.413C480.755 817.501 481.126 813.447 481.139 809.511L481.216 777.329C481.299 741.963 481.448 706.531 480.978 671.169L474.623 670.851ZM558.698 792.459C558.814 797.354 558.997 802.258 558.987 807.154C564.304 811.123 569.425 815.184 570.48 822.192C571.501 828.973 570.495 837.04 570.306 843.941C611.926 866.459 678.98 876.303 725.955 877.744C732.917 877.958 742.089 879.197 748.852 878.188C749.314 877.685 749.633 877.328 749.951 876.716C752.816 869.708 753.315 863.227 750.258 856.081C742.219 837.292 713.451 824.495 695.205 817.483C661.129 804.387 619.023 797.673 582.694 794.219C574.784 793.467 566.647 792.48 558.698 792.459ZM462.515 793.228C414.806 795.054 356.866 806.435 312.22 822.987C300.078 827.489 285.982 832.226 276.987 841.985C273.469 845.802 270.632 850.97 270.871 856.305C271.205 863.751 276.277 870.005 281.678 874.669C290.713 882.473 301.82 887.314 312.65 892.073C384.53 923.654 489.479 927.405 567.464 921.21C594.993 919.023 657.53 912.393 680.506 896.784C628.755 910.059 578.969 913.782 525.665 912.711C516.169 912.52 506.755 911.78 497.278 911.429C487.014 910.41 476.759 909.589 466.541 908.138C480.931 907.924 495.298 908.763 509.685 908.694C541.979 908.54 599.745 905.032 628.895 890.837C590.92 899.632 553.542 900.797 514.745 898.731C505.073 898.216 495.274 897.85 485.644 896.866C494.626 895.638 503.985 896.739 513.034 896.371C536.601 895.415 582 891.318 602.546 882.397C593.973 883.7 585.368 884.724 576.729 885.47C568.09 886.216 559.435 886.682 550.766 886.867C542.097 887.053 533.431 886.958 524.768 886.583C516.105 886.207 507.464 885.552 498.843 884.617C493.531 884.089 487.278 884.131 482.2 882.603L482.14 882.545C508.379 883.34 540.74 883.912 565.582 874.737C557.39 875.238 549.331 876.19 541.095 876.061C518.25 875.702 458.066 868.85 437.699 859.851C442.88 857.98 447.805 855.989 452.512 853.106C452.52 842 452.183 830.773 452.571 819.682C455.89 814.954 459.468 811.384 463.881 807.668C464.063 803.807 465.232 796.891 463.937 793.355C463.457 793.284 462.999 793.175 462.515 793.228ZM559.231 823.467C556.765 824.931 554.393 825.939 551.695 826.896C551.609 832.21 550.517 842.863 552.256 847.664L559.837 842.675C559.938 839.412 561.027 825.386 559.231 823.467ZM463.542 824.719C463.211 833.991 462.818 843.258 462.983 852.538C474.845 855.554 486.303 857.36 498.508 858.394L498.674 833.678C487.274 832.4 473.835 829.919 463.542 824.719Z" fill="#192E36"/>
<path d="M649.493 246.614C651.295 238.88 652.103 230.91 653.555 223.097C661.588 226.202 669.293 230.192 677.177 233.661C682.808 236.14 689.049 237.895 694.179 241.32C693.974 249.097 693.315 258.186 689.657 265.134C684.383 263.712 678.669 259.827 673.642 257.437C665.676 253.651 657.48 250.361 649.493 246.614Z" fill="#192E36"/>
<path d="M644.498 283.527C645.605 275.995 646.654 268.455 647.644 260.907C657.12 263.358 666.027 267.593 675.048 271.325C679.75 273.27 684.589 275.563 689.632 276.418C689.129 279.945 686.672 301.434 685.881 302.785C684.739 302.237 683.829 301.788 682.528 301.953C682.228 301.991 681.93 302.044 681.631 302.089C675.533 296.063 653.267 287.185 644.498 283.527Z" fill="#192E36"/>
<path d="M673.78 339.435L674.35 338.176C675.826 337.301 676.751 337.516 678.444 337.521C676.861 338.943 675.825 339.203 673.78 339.435Z" fill="#192E36"/>
<path d="M351.623 560.404C350.421 559.733 349.428 558.937 348.395 558.03C327.454 539.652 318.644 510.11 316.963 483.144C320.475 482.986 323.975 483.086 327.489 483.169C327.499 502.877 332.41 529.029 341.962 546.557C344.466 551.152 349.13 554.874 351.259 559.564C351.385 559.842 351.502 560.124 351.623 560.404Z" fill="#192E36"/>
<path d="M329.136 788.739L327.698 788.987L327.447 788.488C329.13 785.261 331.81 782.484 333.995 779.567L346.627 762.497C357.863 747.237 368.537 731.55 379.888 716.378C386.54 707.624 393.093 698.796 399.546 689.895C403.968 683.839 408.637 677.798 412.282 671.232C413.422 671.827 414.19 672.098 414.821 673.274C414.624 679.398 370.274 769.554 364.23 779.109C352.409 781.763 340.745 785.282 329.136 788.739Z" fill="#192E36"/>
<path d="M661.306 778.999C650.559 760.015 641.467 740.25 631.955 720.655C624.935 706.192 616.966 691.409 611.349 676.361C610.548 674.212 610.287 673.288 611.25 671.181C611.779 671.352 612.285 671.653 612.783 671.901C634.012 702.563 656.02 732.747 677.594 763.173C680.276 766.956 693.204 783.677 694.168 786.863C694.299 787.296 694.227 787.765 694.257 788.216C683.434 784.567 672.451 781.495 661.306 778.999Z" fill="#192E36"/>
<path d="M619.943 770.96C611.006 749.601 605.26 726.996 598.341 704.938C597.006 700.682 590.89 683.802 590.953 680.494C590.967 679.721 591.858 679.236 592.39 678.736C594.098 679.719 594.919 681.296 595.882 682.948C601.862 693.202 606.653 704.209 612.467 714.586C620.164 728.233 627.741 741.946 635.198 755.725C638.439 761.766 642.301 767.96 644.863 774.308L644.415 775.299C636.207 774.151 628.222 771.891 619.943 770.96Z" fill="#192E36"/>
<path d="M380.884 776.179C379.923 776.359 379.158 776.414 378.183 776.333C379.013 772.665 384.73 764.128 386.846 760.248L417.785 704.343C422.127 696.308 427.054 688.655 430.492 680.162C431.548 680.34 432.497 680.687 433.506 681.035C434.315 683.51 409.06 760.375 406.175 771.693C397.704 772.224 389.189 774.454 380.884 776.179Z" fill="#192E36"/>
<path d="M586.186 766.873C581 746.488 577.854 726.082 574.904 705.295C573.959 698.635 572.128 690.997 572.602 684.301C573.719 685.078 574.092 685.826 574.649 687.026C579.348 697.15 582.609 708.326 586.565 718.783C592.856 735.412 599.788 751.967 605.48 768.797C599.059 767.946 592.642 767.384 586.186 766.873Z" fill="#192E36"/>
<path d="M418.606 769.764L418.277 768.916C420.727 759.228 428.223 743.592 432.218 733.592L444.892 701.591C447.034 696.323 449.016 690.83 451.704 685.822C451.843 685.951 452.002 686.061 452.122 686.208C452.219 686.328 452.296 686.466 452.346 686.612C452.991 688.484 440.843 759.038 438.587 767.399C431.914 768.078 425.253 768.866 418.606 769.764Z" fill="#192E36"/>
<path d="M276.848 858.686C279.529 847.161 290.943 840.139 300.125 833.919L300.791 834.277C300.317 834.714 299.848 835.155 299.383 835.602C293.193 841.557 289.227 850.468 289.234 859.109C289.241 868.355 294.627 873.946 300.738 880.047C298.182 878.891 295.723 877.448 293.252 876.119C291.157 874.889 289.073 873.642 286.999 872.378C281.168 868.786 278.421 865.366 276.848 858.686Z" fill="#192E36"/>
<path d="M386.132 901.746C364.915 899.823 341.326 892.947 321.826 884.386C313.104 880.557 300.774 874.557 297.304 864.901C295.828 860.796 296.232 855.918 298.122 852.012C301.016 846.032 309.402 837.051 315.653 834.712C312.552 838.767 309.997 842.261 308.515 847.23C306.317 854.594 306.376 863.029 310.266 869.813C312.811 874.253 316.42 878.274 320.64 881.176C334.334 890.594 361.777 896.007 378.192 899.175C383.738 900.245 389.45 900.909 394.897 902.404L395.486 902.572C392.318 902.453 389.265 902.243 386.132 901.746Z" fill="#192E36"/>
<path d="M327.229 873.612C323.798 871.511 320.485 869.343 317.781 866.32C315.227 863.464 313.408 859.951 313.745 856.029C314.475 847.521 323.326 841.038 329.424 836.034L329.736 836.37C326.05 841.874 322.731 847.26 322.366 854.107C321.874 863.339 327.402 870.627 333.124 877.178L327.229 873.612Z" fill="#192E36"/>
<path d="M686.637 928.518L686.269 928.306C688.382 926.404 704.944 922.12 708.912 920.621C714.259 918.602 719.403 915.741 724.579 913.312C733.345 909.197 742.131 905.493 750.511 900.597L750.937 901.485C750.818 902.034 750.746 902.512 750.481 903.028C749.733 904.487 747.414 905.819 746.111 906.745C729.076 918.843 706.494 922.828 686.637 928.518Z" fill="#192E36"/>
<path d="M698.65 935.476L698.244 935.24C700.225 933.514 713.384 928.332 716.82 926.717C727.635 921.632 738.538 916.539 748.84 910.47L749.267 910.945C749.226 911.088 749.204 911.239 749.144 911.375C748.337 913.205 745.098 914.962 743.477 916.066C729.693 925.447 714.518 930.835 698.65 935.476Z" fill="#192E36"/>
<path d="M537.623 950.151C535.836 950.045 533.845 950.099 532.162 949.478C537.399 947.872 545.986 948.322 551.62 947.858L608.506 942.988C621.778 941.846 634.974 939.517 648.176 937.754L649.298 937.717C646.576 939.535 636.067 940.745 632.312 941.608C618.28 944.833 604.591 948.797 590.238 950.495C573.09 952.524 554.869 951.074 537.623 950.151Z" fill="#192E36"/>
<path d="M514.495 962.012L511.97 961.839L511.795 961.573C525.093 960.256 538.768 961.318 552.178 960.314C563.144 959.493 574.038 957.375 584.962 956.093C610.086 953.144 633.375 950.718 658.302 945.636L660.32 945.529C655.979 948.166 643.346 950.211 637.687 951.591C624.435 954.821 611.227 958.634 597.754 960.844C573.96 964.749 538.469 964.406 514.495 962.012Z" fill="#192E36"/>
</g>
<defs>
<clipPath id="clip0_145_702">
<rect width="1024" height="1024" fill="white"/>
</clipPath>
</defs>
</svg>
