<svg width="1024" height="1024" viewBox="0 0 1024 1024" fill="none" xmlns="http://www.w3.org/2000/svg">
<g clip-path="url(#clip0_145_629)">
<path d="M404.264 0H427.719C433.96 1.473 440.267 2.53097 446.456 4.23687C457.746 7.34903 467.851 12.0292 478.156 17.4578C512 11.1873 529.383 13.459 560.636 27.986C589.73 21.648 607.052 23.5853 634.783 34.5514C660.887 29.1524 688.139 33.0013 710.981 47.2433C711.772 47.0302 712.566 46.8267 713.363 46.6328C714.16 46.4389 714.958 46.2545 715.759 46.0797C716.56 45.905 717.362 45.7398 718.167 45.5843C718.972 45.4288 719.779 45.2831 720.587 45.147C721.396 45.0109 722.206 44.8846 723.017 44.7679C723.828 44.6513 724.641 44.5444 725.455 44.4473C726.269 44.3502 727.084 44.2629 727.9 44.1854C728.716 44.1079 729.533 44.0402 730.35 43.9823C731.168 43.9244 731.986 43.8764 732.805 43.8381C733.624 43.7999 734.443 43.7715 735.262 43.753C736.082 43.7345 736.902 43.7258 737.721 43.7269C738.541 43.7281 739.361 43.7391 740.18 43.76C740.999 43.7808 741.818 43.8115 742.637 43.852C743.456 43.8926 744.274 43.943 745.091 44.0032C745.909 44.0634 746.726 44.1334 747.541 44.2132C748.357 44.293 749.172 44.3826 749.985 44.482C750.799 44.5814 751.611 44.6906 752.422 44.8095C753.233 44.9284 754.043 45.0571 754.851 45.1955C755.659 45.3338 756.465 45.4819 757.269 45.6397C758.074 45.7974 758.876 45.9648 759.677 46.1419C760.477 46.3189 761.275 46.5055 762.071 46.7017C762.867 46.8979 763.66 47.1037 764.451 47.319C765.242 47.5343 766.03 47.759 766.816 47.9932C767.601 48.2275 768.384 48.4711 769.164 48.7241C769.943 48.9771 770.72 49.2395 771.493 49.5112C772.266 49.7829 773.036 50.0638 773.803 50.354C774.57 50.6442 775.333 50.9436 776.092 51.2521C776.851 51.5606 777.607 51.8782 778.359 52.2049C779.111 52.5316 779.859 52.8673 780.602 53.2119C781.346 53.5566 782.086 53.9101 782.821 54.2726C783.556 54.635 784.287 55.0062 785.013 55.3862C785.74 55.7662 786.461 56.1549 787.178 56.5522C788.789 57.4638 790.318 58.4708 791.826 59.5434C812.716 56.2049 838.111 61.4778 856.711 71.2735C873.388 63.8083 896.56 68.6808 912.804 74.8999C919.128 77.321 924.923 80.3615 930.435 84.2887C954.267 81.9771 971.057 86.7869 989.785 102.207C1004 113.909 1014.7 130.743 1016.47 149.323C1017.56 160.795 1013 170.379 1013.41 180.971C1013.66 187.382 1016.14 193.455 1018.28 199.414C1023.64 214.381 1024.42 228.583 1021.15 244.159C1017.74 260.435 1011.76 276.608 1006.33 292.303L990.442 339.491L936.5 504.503L845.52 780.672L807.666 897.338C797.864 927.834 788.412 958.541 777.977 988.822C775.84 995.022 773.412 1000.9 769.144 1005.95C760.726 1015.92 749.73 1020.63 737.438 1024H708.123C694.667 1019.71 680.647 1016.87 667.085 1012.83C598.195 992.791 529.188 973.164 460.064 953.948C381.083 931.852 302.759 907.453 223.909 884.928L108.387 852.033L66.8655 839.973C57.9144 837.385 48.6553 835.12 39.903 831.92C30.1447 828.353 21.9134 821.487 17.62 811.921C11.1975 797.611 16.3446 785.817 21.5203 772.119C18.7563 769.736 15.9588 767.342 13.4174 764.719C4.06994 755.071 1.6618 742.356 1.96519 729.321C2.58796 702.566 16.1339 669.271 26.1399 644.777C55.3111 573.368 88.5424 503.584 121.655 433.931L195.924 277.223C222.34 223.56 247.983 169.53 272.853 115.133C280.889 97.5523 289.027 79.951 296.621 62.1741C300.661 52.719 303.963 42.8279 308.324 33.5327C309.504 31.0173 310.936 27.6649 313.022 25.787C313.194 25.6314 313.377 25.4868 313.553 25.3348C314.804 24.2534 316.039 23.2083 317.442 22.3232C328.175 15.5519 343.824 21.6579 355.137 24.4693C367.873 10.1598 385.853 3.45837 404.264 0ZM442.552 219.946C447.234 221.51 466.39 222.481 472.76 223.201C483.808 224.45 498.316 227.607 508.881 227.465L508.901 226.232C508.618 225.962 508.411 225.579 508.053 225.422C503.836 223.579 450.377 219.938 442.552 219.946ZM369.407 429.916C379.835 432.557 390.601 434.359 401.115 436.73C417.981 440.535 434.753 444.745 451.67 448.326C489.611 456.359 528.069 463.69 565.559 473.592C580.5 477.538 595.617 481.786 610.3 486.596C617.576 488.979 624.935 492.484 632.337 494.292C633.768 494.641 635.01 494.41 636.413 494.06C636.563 493.642 636.749 493.153 636.843 492.726C637.124 491.456 637.26 490.795 636.48 489.709C634.291 486.663 626.576 485.653 623.035 484.516C606.505 479.205 589.567 475.002 572.698 470.863C536.216 461.913 499.525 454.602 462.744 447.033L413.005 436.893C398.688 434.033 383.99 430.925 369.407 429.916ZM345.552 521.467C366.941 525.81 388.275 530.409 409.554 535.264C424.577 538.911 439.624 542.459 454.693 545.908C460.662 547.275 468.158 549.878 474.222 549.814C474.301 548.888 474.635 548.215 473.997 547.455C473.431 546.779 472.867 546.414 472.038 546.131C465.352 543.852 451.604 541.785 444.014 540.079C415.867 533.754 387.722 527.587 359.241 522.915C354.684 522.167 350.168 521.66 345.552 521.467ZM541.073 578.353C546.498 581.587 566.228 587.02 573.491 589.67C584.453 593.671 594.868 598.614 605.615 603.07C607.595 603.891 609.013 604.5 611.122 603.636C611.396 602.521 611.541 601.923 611.19 600.815C602.012 594.677 552.849 579.699 541.073 578.353ZM793.656 832.08L760.105 916.482C754.306 931.168 745.81 956.154 737.527 968.382C737.367 971.889 737.117 975.567 737.938 979.016C742.265 977.44 746.566 973.587 748.62 969.458C752.52 961.619 754.681 952.232 757.465 943.911L779.074 877.295L788.907 847.96C790.583 842.956 793.049 837.301 793.656 832.08ZM485.396 897.815C497.828 900.344 510.076 904.779 522.355 908.076C558.023 917.622 593.534 927.722 628.887 938.376C653.279 945.565 677.573 953.071 701.77 960.892C711.806 964.212 722.422 967.15 732.077 971.451C738.278 955.435 742.787 938.769 748.792 922.673C798.641 786.454 846.428 649.514 892.153 511.855C895.587 501.363 898.187 490.646 901.386 480.086C906.871 462.429 912.533 444.828 918.372 427.285C935.007 376.572 955.215 326.994 972.409 276.45C975.902 266.183 979.784 256.006 983.057 245.671C987.265 231.999 990.893 218.175 993.941 204.199C994.832 228.744 982.133 258.599 975.18 282.017L938.393 402.042L904.474 517.689C903.526 520.836 902.994 524.055 902.017 527.195C905.33 521.359 908.075 510.467 910.436 503.726C920.437 475.161 928.976 446.171 938.694 417.534L977.08 305.302C982.306 290.872 987.372 276.386 992.278 261.845C994.723 254.793 997.828 247.872 999.543 240.6C999.854 239.241 1000.12 237.873 1000.35 236.496C1000.58 235.12 1000.77 233.738 1000.91 232.351C1001.06 230.963 1001.16 229.572 1001.22 228.179C1001.27 226.785 1001.29 225.391 1001.27 223.996C1001.24 222.601 1001.17 221.209 1001.06 219.818C1000.95 218.427 1000.79 217.042 1000.6 215.661C1000.4 214.28 1000.16 212.906 999.883 211.539C999.603 210.172 999.282 208.816 998.919 207.469C997.61 202.757 995.868 198.211 994.05 193.677C983.572 227.166 972.572 260.483 961.05 293.627C944.247 343.11 926.891 392.4 908.984 441.495L824.581 664.534C800.012 729.973 776.045 795.598 750.5 860.671C741.561 883.325 732.314 905.853 722.761 928.256C720.533 933.509 718.17 938.72 716.031 944.008C714.909 946.783 714.17 949.75 712.842 952.425C704.539 949.913 696.433 946.109 688.317 943.005C670.643 936.076 652.825 929.542 634.862 923.401C583.428 905.977 531.045 891.6 478.644 877.442L190.99 806.379L100.863 784.238C81.1847 779.583 61.1029 776.113 41.8863 769.727C41.1906 772.173 40.5688 774.675 39.7053 777.066C62.2376 786.022 85.5333 791.943 108.786 798.61L230.22 832.697C345.201 865.316 459.831 899.121 574.11 934.113C602.731 942.65 631.415 950.974 660.16 959.083C678.098 964.277 696.651 969.133 713.981 976.135C715.661 976.814 718.66 977.732 719.561 979.384C718.306 980.238 716.585 979.794 715.123 979.509C708.996 978.312 702.952 976.093 696.908 974.492C677.5 969.289 658.16 963.847 638.887 958.164L446.82 901.34C356.567 875.693 266.48 849.475 176.557 822.686C150.224 814.666 123.947 806.675 97.735 798.256C78.125 791.958 58.4727 785.614 39.4038 777.809C38.347 780.336 37.1835 782.857 36.3324 785.461C37.3673 786.55 38.468 787.769 39.7209 788.616C44.154 791.612 59.4162 797.776 64.7919 799.49C101.595 811.222 139.055 820.858 176.301 831.039C230.752 845.896 285.085 861.169 339.301 876.858L566.554 944.046C600.636 954.269 634.609 964.831 668.973 974.083C682.74 977.79 698.042 983.287 712.293 983.605C717.365 983.718 725.76 983.672 730.208 981.085L730.425 980.282C728.341 978.165 725.669 976.864 722.973 975.69C713.745 971.671 703.984 968.649 694.461 965.405C681.833 961.025 669.18 956.718 656.503 952.484C621.018 940.533 585.406 928.977 549.666 917.815L507.551 905.176C500.351 902.987 492.146 901.122 485.396 897.815ZM409.815 20.706C395.555 21.9571 379.964 25.6291 370.309 37.0411C367.928 39.8555 366.061 43.0511 364.363 46.3129C353.079 44.1859 338.453 39.8467 327.36 39.3072C323.14 46.1738 320.146 54.0714 316.9 61.4485L300.277 99.2916C285.713 131.718 269.953 163.711 254.406 195.682L123.985 470.776C108.8 502.469 94.0135 534.346 79.6265 566.409C63.4055 601.88 47.4846 637.592 34.1672 674.28C27.1155 693.706 16.4159 722.692 21.3096 743.097C22.877 749.633 26.8643 754.202 32.5281 757.609C50.7288 768.557 82.2071 772.162 103.238 777.031C125.004 782.071 146.826 787.475 168.487 792.971L456.884 866.016C486.966 873.866 516.768 882.272 546.685 890.699C579.411 899.715 611.8 909.813 643.851 920.994C661.483 927.138 678.904 933.365 696.034 940.805C699.426 942.278 704.39 945.112 708.132 944.322C708.993 944.14 709.427 943.74 710.029 943.152C710.634 941.593 711.189 939.849 710.554 938.215C710.071 936.974 708.454 936.305 707.279 935.905C704.468 934.946 701.327 934.449 698.388 934.048C698.245 933.907 698.105 933.764 697.96 933.625C692.711 928.572 683.988 925.439 677.415 922.378C637.554 903.819 596.025 891.236 553.998 878.659C506.101 864.188 457.97 850.541 409.605 837.718C395.095 833.763 380.731 829.181 366.158 825.472C310.401 811.835 254.478 798.91 198.391 786.697C167.811 780.223 137.062 774.377 106.408 768.248C90.0284 764.973 73.7777 762.205 57.592 757.963C53.019 756.764 47.8362 755.828 43.6863 753.493C37.2358 749.864 36.1347 740.34 35.9715 733.612C35.5885 717.828 39.8372 701.094 44.7335 686.141C55.2624 653.989 69.453 622.564 83.3653 591.744C97.1791 560.4 111.499 529.289 126.324 498.41L164.507 415.987C193.679 356.16 222.075 295.967 249.696 235.408C256.002 221.427 261.878 207.227 267.984 193.156C282.315 160.157 296.376 127.044 310.166 93.8149C316.725 77.8778 322.092 61.3298 329.032 45.5783C340.299 48.6496 351.725 50.9603 363.04 53.8117C361.312 66.5286 361.339 78.7396 361.545 91.5183C357.956 93.9664 355.578 96.2854 354.704 100.737C353.629 106.207 355.538 111.931 358.676 116.394C362.796 122.253 369.245 126.829 376.382 127.974C380.343 128.609 384.269 127.999 387.523 125.56C388.503 124.825 389.142 124.09 389.834 123.092C389.962 121.982 390.119 121.699 389.403 120.762C387.25 117.942 383.771 115.538 381.368 112.713C369.262 98.4798 363.486 85.8611 365.088 67.0352C366.093 55.2347 368.739 43.9462 378.15 36.0262C389.812 26.2125 407.411 23.8515 422.084 25.2628C436.887 26.6866 451.627 31.7522 464.511 39.1275C466.252 40.1242 469.775 41.8824 470.83 43.5775C471.265 44.2768 471.245 44.3648 471.442 45.0641L470.336 46.3793C466.355 46.1416 458.967 41.338 454.66 39.6552C436.403 32.5213 402.92 24.6615 386.225 39.1916C376.787 47.405 375.242 59.8009 374.649 71.5964C373.869 87.1071 377.446 101.111 388.006 112.866C389.52 114.551 391.207 116.061 392.898 117.564C395.625 113.791 398.208 108.987 397.508 104.173C396.945 100.298 393.915 97.4399 390.862 95.2927C387.768 93.1173 384.432 91.3323 381.028 89.6999C377.065 77.6551 378.267 66.5439 381.678 54.5141C389.974 54.7618 398.187 56.6409 406.321 58.178C423.05 61.3392 440.129 65.3524 457.044 67.249C453.468 80.8317 453.504 92.3095 455.744 106.169C451.893 109.534 448.34 113.082 448.004 118.523C447.71 123.284 450.341 127.849 453.557 131.163C458.201 135.949 465.497 139.819 472.227 139.947C475.696 140.013 479.747 138.956 482.218 136.376C483.055 135.503 483.126 135.253 483.224 134.109C480.491 130.099 475.398 127.383 472.065 123.654C462.366 111.908 457.612 97.3437 459.03 82.104C460.229 69.2333 465.47 58.9677 475.513 50.7709C487.843 40.7077 504.206 37.8983 519.745 39.6527C531.737 41.0065 543.353 46.2816 552.985 53.4514L548.895 56.5257C533.323 47.1515 515.945 42.1292 497.843 46.7054C488.217 49.1391 479.291 55.6319 474.253 64.2291C467.234 76.2074 466.845 92.9424 470.385 106.068C472.08 112.354 478.525 125.712 484.181 129.085C484.937 129.536 485.209 129.411 486.052 129.396C487.414 128.285 487.711 127.044 487.897 125.371C488.361 121.206 487.904 117.741 485.185 114.497C482.463 111.25 479.096 108.989 475.475 106.87C472.909 93.2691 471.957 81.6747 477.33 68.4815C485.002 69.7804 492.886 70.2485 500.627 71.0582C511.49 72.1944 522.547 73.7702 533.194 76.2314C526.909 90.4548 527.364 106.068 532.94 120.465L533.149 120.997C530.398 123.705 528.962 127.085 528.917 130.971C528.857 136.09 531.499 140.986 535.151 144.445C535.394 144.678 535.644 144.906 535.899 145.127C536.154 145.348 536.414 145.562 536.68 145.771C536.946 145.979 537.217 146.18 537.492 146.374C537.768 146.569 538.048 146.756 538.333 146.937C538.618 147.118 538.908 147.291 539.202 147.457C539.495 147.623 539.793 147.782 540.095 147.933C540.396 148.084 540.702 148.228 541.011 148.364C541.32 148.5 541.632 148.628 541.947 148.749C542.262 148.87 542.58 148.982 542.901 149.086C543.222 149.191 543.545 149.287 543.871 149.376C544.196 149.465 544.524 149.545 544.854 149.617C545.183 149.689 545.515 149.753 545.848 149.808C546.181 149.863 546.515 149.911 546.85 149.95C547.185 149.989 547.521 150.019 547.858 150.041C548.195 150.063 548.532 150.077 548.869 150.082C549.206 150.087 549.544 150.084 549.881 150.073C554.231 149.941 558.366 148.37 561.287 145.083C561.977 144.306 562.578 143.477 563.179 142.632C552.103 137.756 542.253 131.303 537.618 119.62C532.606 106.988 531.666 91.7865 537.194 79.1745C542.625 66.7842 552.928 58.3627 565.393 53.6032C580.921 47.6735 598.996 46.3419 614.406 53.3226C619.301 55.5399 624.177 58.5577 628.122 62.2239L624.7 65.0854C610.512 55.5841 594.522 52.7118 577.727 56.0595C566.774 58.2426 556.222 64.5797 550.034 74.0165C542.252 85.8834 541.591 102.535 544.528 116.032C546.053 123.041 548.77 131.649 555.06 135.754C557.305 137.219 561.233 138.97 563.984 138.243C565.093 137.95 566.043 137.386 566.507 136.302C567.355 134.322 566.74 132.176 565.902 130.291C563.77 125.494 559.212 121.104 554.258 119.239C552.96 118.751 551.574 118.536 550.209 118.327C546.92 103.929 546.567 91.6086 553.938 78.2303L586.804 83.9533C594.177 85.3092 601.683 87.2844 609.152 87.9323C604.435 103.474 604.879 118.196 610.57 133.448C607.573 137.412 604.859 141.13 605.606 146.4C606.313 151.39 609.414 156.06 613.539 158.889C618.419 162.236 624.495 163.23 630.245 162.014C632.364 161.566 636.432 160.432 637.681 158.442C638.056 157.843 638.049 157.73 638.22 157.122C637.737 155.8 637.352 155.324 636.083 154.653C634.108 153.608 631.946 153.164 630.015 151.938C623.164 147.589 617.643 139.218 614.733 131.776C608.884 116.818 608.122 101.458 614.81 86.6143C620.299 74.4296 630.494 63.8811 643.122 59.1815C657.342 53.8891 674.063 56.5685 687.529 62.8078C691.405 64.6036 702.306 69.6143 703.329 74.0718C703.553 75.0474 703.581 75.409 703.082 76.2378C699.746 76.3213 691.979 69.7951 688.079 67.9543C670.887 59.84 646.288 58.4349 632.33 73.3099C621.935 84.3877 618.749 100.458 619.371 115.187C619.897 127.677 622.46 139.819 631.962 148.538C634.013 150.42 637.09 153.355 640.021 153.288C640.908 153.268 641.234 152.796 641.906 152.287C642.918 150.296 642.82 148.191 642.104 146.092C639.745 139.175 633.771 134.431 627.367 131.49C627.183 131.405 626.997 131.326 626.812 131.245C623.707 116.399 622.916 104.804 627.697 90.1891C646.236 94.53 665.445 96.1398 684.055 100.259C681.31 114.285 679.895 127.692 684.033 141.631C680.84 148.005 677.875 154.643 680.454 161.834C680.555 162.115 680.664 162.392 680.779 162.667C680.894 162.942 681.017 163.213 681.147 163.481C681.277 163.75 681.414 164.014 681.557 164.275C681.701 164.536 681.851 164.794 682.008 165.047C682.165 165.3 682.329 165.549 682.499 165.794C682.67 166.039 682.846 166.279 683.029 166.514C683.212 166.749 683.4 166.98 683.595 167.206C683.79 167.431 683.99 167.652 684.197 167.867C684.403 168.082 684.615 168.291 684.832 168.496C685.049 168.7 685.272 168.898 685.499 169.09C685.727 169.283 685.96 169.469 686.197 169.649C686.434 169.829 686.676 170.003 686.923 170.171C687.169 170.338 687.42 170.499 687.675 170.654C687.93 170.808 688.188 170.956 688.451 171.097C688.714 171.238 688.98 171.372 689.25 171.499C689.519 171.626 689.792 171.745 690.068 171.858C696.166 174.403 704.874 174.036 710.891 171.288C714.9 169.456 718.067 166.133 719.508 161.942C720.473 159.138 720.963 155.863 719.497 153.143C717.541 149.511 713.059 147.697 709.285 146.696C708.749 146.554 708.208 146.432 707.668 146.308C711.578 151.732 715.048 156.152 716.139 162.957C707.614 160.588 696.28 159.765 691.509 151.271C684.682 139.114 684.256 116.68 688.225 103.624C692.045 91.0534 701.268 80.6983 712.813 74.6056C727.785 66.7053 745.918 65.9912 761.905 71.0105C771.032 73.876 778.956 78.8024 787.003 83.8352L782.376 86.9619C768.918 76.5345 750.904 71.9532 734.005 74.1968C721.915 75.8019 712.055 80.4317 704.653 90.2749C694.944 103.186 692.376 123.252 694.681 138.913C695.484 144.367 696.842 150.504 701.443 154.02C704.798 156.584 709.282 158.308 713.128 160.059C710.03 153.189 705.378 147.811 701.742 141.378C695.916 131.072 698.631 114.748 701.728 103.903L739.435 109.644C746.704 110.739 754.303 111.449 761.456 113.111C756.835 125.922 754.964 141.056 757.445 154.521C754.382 157.029 752.41 159.982 752.025 164.023C751.62 168.268 753.445 172.475 756.154 175.662C760.582 180.869 767.227 183.495 773.94 183.876C779.156 184.171 785.739 183.069 789.844 179.59C791.557 178.138 793.349 174.956 793.344 172.699C793.343 172.525 793.302 172.353 793.282 172.18C791.927 171.743 791.169 172.372 789.952 172.984C784.636 175.659 782.519 177.128 776.251 175.121C771.114 173.477 766.953 169.339 764.614 164.553C758.911 152.889 760.229 131.733 764.687 119.739C769.713 106.213 780.402 92.5359 793.794 86.5824C808.39 80.0941 824.534 83.48 838.821 89.1107C843.448 90.9342 847.922 93.0672 852.103 95.7664C850.921 97.2366 849.771 98.7543 848.541 100.184C834.13 93.031 816.882 85.6676 800.648 91.1229C790.079 94.6746 781.671 103.374 776.881 113.267C770.477 126.493 765.981 150.235 770.764 164.479C771.944 167.993 774.155 171.709 777.668 173.289C780.102 174.384 782.694 174.233 785.128 173.222C787.424 172.269 789.21 170.68 791.057 169.069C787.371 161.293 781.202 155.142 773.562 151.177C773.91 138.56 775.245 126.862 780.871 115.352C798.397 117.558 816.83 119.325 833.898 123.938C830.087 137.408 828.563 150.286 830.565 164.253C827.803 168.223 825.785 171.872 826.696 176.946C827.513 181.496 830.44 185.116 834.225 187.635C840.239 191.637 848.499 193.372 855.627 191.935C858.646 191.327 861.985 189.953 863.748 187.281C865.047 185.313 865.36 182.903 864.844 180.625C863.29 173.765 855.239 168.362 849.573 164.906C849.075 148.951 848.382 143.47 852.456 127.317C869.038 130.225 886.15 132.815 902.405 137.183C899.039 147.393 896.083 157.827 897.292 168.702C897.805 173.31 899.897 179.267 899.002 183.772C898.15 188.053 897.812 191.049 900.373 194.888C903.678 199.843 910.238 203.458 916.074 204.424C920.897 205.222 926.367 205.201 930.497 202.231C931.596 201.441 932.596 200.389 933.54 199.42C923.801 188.06 916.118 176.304 917.306 160.733C917.813 154.077 919.595 147.497 921.679 141.177C937.12 145.041 953.217 147.829 968.955 150.207C978.064 151.583 988.061 152.231 996.911 154.702C994.526 138.113 988.645 125.578 974.992 115.402C965.181 108.09 952.391 100.976 939.727 102.84C935.118 103.519 930.615 105.061 926.273 106.712C919.175 96.6481 898.233 89.8294 886.648 87.7983C875.65 85.8702 865.773 87.4343 855.879 92.5674C842.729 82.5098 816.883 77.1894 800.515 79.4252C797.498 79.8372 794.545 80.5852 791.597 81.3326C768.974 67.2426 748.936 58.9931 721.866 65.2283C717.444 66.247 713.347 67.7392 709.247 69.6694C692.026 57.5723 670.227 48.9137 648.908 52.6812C643.006 53.724 637.591 55.713 632.443 58.7652C615.751 46.7321 597.973 41.7219 577.423 45.0681C570.651 46.1708 564.306 48.2987 558.135 51.2699C541.179 38.7461 515.655 31.2535 494.645 34.4841C488.266 35.4649 482.411 37.4782 476.504 40.0222C456.812 29.7658 432.611 18.1901 409.815 20.706ZM993.266 157.866C986.812 174.921 981.134 192.231 974.996 209.394C959.503 252.425 944.303 295.559 929.397 338.797C923.954 354.905 918.986 371.171 913.592 387.294C901.275 423.929 888.529 460.415 875.355 496.75L783.685 743.309L756.513 815.195C743.104 850.135 729.586 884.957 717.719 920.462C716.87 923.001 714.558 927.571 715.361 930.158C720.924 919.556 724.664 907.533 728.892 896.325L746.075 851.939L814.112 669.813C852.583 568.076 890.138 466.001 926.776 363.588L971.544 241.5C977.971 223.63 985.304 205.821 990.733 187.63C991.738 184.265 993.713 161.549 993.266 157.866ZM463.866 164.237C467.631 165.719 473.691 165.289 477.876 165.689L525.976 170.175C544.298 171.928 562.579 174.04 580.818 176.511C616.753 181.299 652.975 186.62 688.47 194.048C706.195 197.757 723.699 202.405 741.271 206.768C757.394 210.622 773.388 214.953 789.253 219.76C800.717 223.24 812.034 227.23 823.454 230.857C839.728 235.914 855.974 241.058 872.193 246.29L909.534 258.549C914.52 260.238 919.462 262.639 924.515 264.005C925.539 264.282 926.463 264.521 927.462 264.097C928.332 263.727 928 263.91 928.692 263.422C929.266 262.011 929.907 261.159 929.574 259.649C921.891 254.33 890.436 245.76 878.781 241.888C822.097 223.055 761.272 204.156 702.88 191.774C644.656 179.427 584.926 172.467 525.584 168.213L489.396 165.578C481.251 164.93 471.963 163.457 463.866 164.237ZM921.325 173.257C922.858 179.168 927.513 189.001 933.139 192.026C934.009 192.494 934.494 192.331 935.452 192.3C936.364 188.046 936.614 184.124 934.17 180.312C931.664 176.403 926.84 174.232 922.416 173.404C922.056 173.337 921.69 173.299 921.325 173.257ZM464.051 179.324C464.283 179.504 464.482 179.739 464.747 179.865C465.442 180.197 525.135 186.309 528.626 185.879C528.883 185.847 529.139 185.806 529.395 185.768L528.652 184.176C521.572 182.529 513.044 182.69 505.752 182.137C491.959 181.09 477.871 179.566 464.051 179.324ZM535.951 185.003C530.494 206.478 521.673 226.402 513.195 246.805C509.921 254.685 505.911 262.781 503.542 270.97C521.382 271.562 539.08 272.324 556.801 274.628C583.335 278.078 609.319 284.757 634.885 292.526C635.903 292.023 636.213 291.833 636.812 290.812C639.865 285.602 641.732 278.713 643.778 273.037C647.161 263.839 650.454 254.609 653.657 245.347C656.162 237.926 658.391 230.417 660.89 222.996C663.011 216.7 665.508 210.623 666.98 204.129C646.654 197.025 558.85 184.195 535.951 185.003ZM450.958 191.918L451.755 192.131C451.056 191.863 451.328 191.822 450.958 191.918ZM454.138 192.28C455.992 193.103 459.117 193.048 461.121 192.847C458.954 192.346 456.305 191.48 454.138 192.28ZM461.888 193.123C472.234 194.29 515.267 201.449 520.793 199.71C520.429 199.359 520.13 198.925 519.702 198.656C517.634 197.355 467.688 192.96 463.364 193.051C462.872 193.061 462.379 193.086 461.888 193.123ZM680.047 201.15C687.275 204.659 696.134 206.466 703.882 208.675L747.355 220.988C788.816 232.742 830.396 245.059 871.004 259.492C883.191 263.787 895.325 268.225 907.408 272.806C911.573 274.386 916.201 277.153 920.394 278.221C921.287 278.448 921.885 278.469 922.748 278.168C923.303 277.974 923.588 277.823 924.163 277.56C924.617 275.981 924.888 275.42 924.521 273.785C920.315 268.843 910.21 266.428 904.199 264.107C844.099 240.903 779.515 224.077 716.969 208.778C706 206.096 693.973 202.128 682.747 201.184C681.824 201.107 680.972 201.116 680.047 201.15ZM798.806 203.968C798.279 205.168 797.861 205.661 798.04 207.005C804.406 212.208 893.487 238.769 908.381 243.757C911.89 244.932 932.15 252.865 933.734 253.036L934.707 252.658C935.681 250.979 937.032 249.201 936.487 247.168C936.211 246.138 935.434 245.601 934.499 245.174C928.969 242.65 922.623 241.195 916.803 239.369C905.342 235.692 893.851 232.113 882.33 228.63C863.323 222.864 844.282 217.215 825.206 211.684C816.461 209.127 807.66 206.077 798.806 203.968ZM670.733 205.247L670.344 205.86C663.578 216.754 646.436 296.727 638.991 298.518C637.639 298.843 636.377 298.523 635.055 298.211C629.967 297.01 625 295.082 619.979 293.612C609.915 290.703 599.782 288.06 589.579 285.683C568.346 280.751 547.038 278.042 525.396 275.664C518.878 274.948 511.106 273.308 504.655 274.274C503.266 274.481 502.166 274.923 501.31 276.089C500.399 277.33 499.883 279.067 499.332 280.5C501.843 281.312 504.238 282.137 506.879 282.412C518.289 283.274 529.73 283.479 541.128 284.38C568.341 286.532 625.443 292.929 647.948 306.483C652.53 291.14 659.239 276.234 665.156 261.361C668.489 252.761 671.584 244.076 674.441 235.306C676.293 229.774 678.62 224.066 679.873 218.373C678.083 212.937 675.679 208.46 670.733 205.247ZM442.109 206.219C446.592 207.532 452.055 207.106 456.757 207.541C468.316 208.611 479.928 209.697 491.395 211.521C496.039 212.26 511.663 215.759 515.296 214.466L514.703 213.013C505.988 209.846 452.41 205.492 442.109 206.219ZM941.154 206.841C934.816 211.636 933.663 219.812 930.369 226.7C922.727 223.303 913.641 221.471 905.568 219.069C893.662 215.526 881.744 211.457 869.729 208.356C868.627 208.071 867.443 207.797 866.323 208.139C866.16 208.189 866.014 208.282 865.859 208.353C865.947 209.671 866.446 210.121 867.451 210.959C869.582 212.737 873.076 213.602 875.677 214.525C885.13 217.939 929.403 234.97 937.484 232.676L938.05 231.82C936.542 228.63 934.274 228.225 931.535 226.412C934.117 227.09 936.493 227.816 938.944 228.897C941.531 224.555 946.838 215.701 945.766 210.488C945.493 209.158 944.984 208.217 943.76 207.552C942.935 207.104 942.064 206.984 941.154 206.841ZM433.057 219.24C434.725 219.533 436.328 219.93 438.023 219.658C436.92 218.757 435.904 218.94 434.54 219.068C434.045 219.119 433.55 219.176 433.057 219.24ZM682.326 221.745C677.14 234.38 673.184 247.43 668.77 260.338C665.462 270.011 661.752 279.555 658.203 289.142C655.577 296.235 653.566 304.105 649.855 310.702C645.58 309.184 641.459 307.294 637.184 305.792C629.487 303.088 621.436 300.99 613.515 299.059C597.911 295.254 515.618 281.635 506.915 285.373C506.728 285.453 506.559 285.571 506.381 285.67L506.428 286.465C508.899 288.636 512.079 289.566 515.145 290.603C530.248 294.504 545.574 296.665 560.93 299.271C576.061 301.882 591.148 304.731 606.189 307.82C615.768 309.772 625.26 312.082 634.665 314.749C640.47 316.398 646.307 318.593 652.215 319.766C656.109 315.369 658.769 310.16 661.207 304.845C665.114 296.332 688.854 231.945 688.361 228.696C688.042 226.6 684.108 222.801 682.326 221.745ZM699.973 222.034C707.569 225.387 716.189 227.269 724.172 229.553C738.664 233.698 753.198 237.734 767.636 242.062C782.365 246.59 797.05 251.26 811.689 256.072C820.201 258.81 833.591 263.851 842.26 264.464C835.289 261.462 827.146 259.215 820.585 255.579C818.421 254.38 816.949 251.905 814.629 251.089C795.974 244.524 716.97 221.247 699.973 222.034ZM435.129 234.317C449.208 235.826 463.261 237.54 477.29 239.457C484.148 240.35 491.645 241.965 498.527 241.97C499.604 241.97 500.445 241.735 501.426 241.298C500.384 239.92 499.234 240.016 497.566 239.783C490.162 238.749 438.557 232.727 435.129 234.317ZM695.184 237.477C695.439 238.481 695.287 238.946 696.199 239.53C699.739 241.795 717.872 246.356 723.24 247.947C728.322 246.578 732.731 246.329 737.974 246.465L738.697 245.828C735.937 243.103 700.86 237.673 695.184 237.477ZM280.253 242.903C271.714 253.962 260.281 294.474 254.533 310.23L245.006 335.75C242.956 341.139 240.523 346.543 239.065 352.126C249.325 355.225 266.646 355.867 277.97 357.058C288.774 358.149 299.533 359.579 310.246 361.349C320.959 363.119 331.606 365.225 342.187 367.667C347.726 368.975 353.517 370.109 358.906 371.934C361.153 372.695 363.197 373.753 365.525 372.718C371.84 363.823 375.399 349.616 379.244 339.209L397.782 289.766C400.584 282.51 404.632 275.912 407.57 268.816C396.629 264.817 384.975 262.152 373.642 259.505C352.208 254.44 330.604 250.255 308.83 246.948C299.361 245.471 289.645 244.699 280.253 242.903ZM434.699 248.794C434.889 249.008 435.028 249.281 435.268 249.437C435.962 249.888 447.11 250.514 448.864 250.698C463.44 252.231 478.055 255.275 492.66 256.177C493.375 256.221 494.057 256.191 494.768 256.108C494.522 255.386 494.526 254.57 493.772 254.26C489.762 252.615 439.227 247.916 434.699 248.794ZM737.074 250.877C734.42 256.069 730.88 260.872 728.509 266.178C722.608 279.386 718.426 293.268 712.841 306.603C708.004 318.148 702.008 329.059 698.649 341.196C729.718 346.912 760.738 351.227 791.484 358.745C801.077 361.091 810.83 363.321 820.12 366.696C821.498 367.139 822.834 367.789 824.286 367.591C827.64 363.156 829.623 357 831.807 351.88C839.553 334.029 846.308 315.811 852.072 297.225C854.159 290.477 856.398 283.662 857.754 276.723C844.319 271.592 830.78 268.64 816.73 265.713C790.298 260.206 763.441 256.557 737.074 250.877ZM690.423 253.351C690.611 254.637 690.436 255.858 691.709 256.576C694.658 258.24 713.931 262.699 716.818 261.938C716.882 261.921 716.946 261.907 717.01 261.892C717.509 260.356 717.845 260.144 717.124 258.639C712.529 255.195 696.508 253.189 690.423 253.351ZM429.809 263.596C436.641 264.96 483.589 272.41 488.046 271.02C487.002 269.422 486.339 269.09 484.481 268.671C476.674 266.91 436.238 262.922 429.809 263.596ZM684.551 266.947L683.917 268.788C684.781 270.494 686.581 270.878 688.343 271.454C695.169 273.686 702.651 276.697 709.681 277.864C710.125 276.297 710.748 274.893 710.128 273.297C705.51 269.917 690.292 267.096 684.551 266.947ZM411.172 270.842C400.211 295.681 391.723 321.808 381.902 347.135C377.974 357.266 374.512 370.318 367.784 378.874C330.657 368.246 291.801 363.635 253.708 357.75C250.786 357.298 240.255 354.831 238.288 355.148C237.272 355.991 236.586 356.362 236.454 357.797C236.072 361.986 244.263 369.512 247.208 372.096C250.308 374.816 254.168 377.648 258.222 378.642C263.336 379.896 269.026 380.287 274.261 381.153C287.67 383.371 301.11 385.502 314.484 387.922C326.274 390.149 338.039 392.498 349.78 394.969C357.487 396.629 371.268 400.861 378.767 400.477C381.311 400.346 383.103 398.919 384.708 397.041C394.24 385.886 399.386 361.821 403.97 347.501C409.535 330.114 414.958 312.421 421.109 295.239C422.57 290.398 424.579 284.47 422.824 279.457L422.054 279.204C417.505 282.197 414.748 295.445 412.573 300.67C406.105 316.207 398.817 331.309 392.661 347.006C386.864 361.785 382.484 379.2 374.402 392.815C363.593 387.244 350.456 385.246 338.598 382.938C324.852 380.298 311.085 377.773 297.297 375.363C281.883 372.722 265.575 370.303 250.736 365.231C261.605 366.69 272.41 369.117 283.253 370.848C298.925 373.351 314.687 375.407 330.333 378.048C344.489 380.57 358.617 383.238 372.718 386.051C379.316 372.99 383.192 358.126 388.612 344.502C394.534 329.616 401.879 315.462 408.176 300.779C411.826 292.267 414.617 282.276 419.752 274.571C417.329 272.242 414.568 270.925 411.172 270.842ZM869.011 272.082C875.244 274.989 911.852 295.414 916.594 293.625C917.154 293.414 917.645 293.064 918.142 292.743C918.799 291.305 919.188 290.767 919.05 289.166C915.413 283.246 885.968 275.52 878.217 273.658C875.346 272.968 871.984 271.988 869.011 272.082ZM861.408 279.098C854.202 305.067 846.6 330.68 836.469 355.694C834.081 361.591 831.931 367.994 828.956 373.606C806.354 369.135 784.204 362.238 761.595 357.606C740.065 353.194 717.791 351.182 696.563 345.612C696.107 349.103 695.113 353.171 695.648 356.644C696.407 357.302 696.283 357.312 697.375 357.509C727.05 357.315 768.161 366.449 797.555 373.899C803.428 375.388 809.329 376.836 815.15 378.514C819.74 379.837 825.064 382.273 829.769 382.548C833.242 378.822 835.248 371.812 837.284 367.05C841.003 358.354 845.017 349.748 848.386 340.91C853.937 326.347 858.329 311.488 862.755 296.556C863.863 292.816 866.203 287.428 866.277 283.552C866.301 282.327 865.894 281.949 864.991 281.2C863.939 280.328 862.616 279.727 861.408 279.098ZM443.937 280.843C445.239 281.676 479.923 287.862 482.866 287.823C482.214 286.514 482.231 286.359 480.781 285.876C474.758 283.868 450.105 279.917 443.937 280.843ZM678.163 283.272C678.277 284.833 678.106 285.697 679.081 286.952C683.986 288.746 705.853 295.081 709.942 294.336C710.062 292.744 710.277 292.006 709.581 290.545C704.145 287.233 685.091 283.738 678.163 283.272ZM869.612 285.687C863.842 314.073 853.855 340.893 842.792 367.585C840.012 374.291 837.734 381.729 834.129 388.007C828.791 386.106 823.537 384.067 818.069 382.552C801.471 377.956 711.189 356.007 700.349 361.081L700.06 361.984C701.571 364.085 704.299 365.296 706.664 366.208C727.821 372.773 749.018 376.612 770.663 380.937C793.364 385.679 816.132 390.077 838.967 394.13C850.635 369.836 859.061 344.305 867.16 318.657C870.16 309.155 874.217 298.705 875.046 288.752C873.241 287.724 871.449 286.658 869.612 285.687ZM885.157 291.73C884.211 293.18 883.303 294.389 883.028 296.125C883.877 298.202 888.252 299.752 890.307 300.606C893.341 301.868 909.281 308.69 911.089 308.479C912.343 307.059 913.823 305.676 913.576 303.617C913.45 302.572 912.628 301.85 911.794 301.291C905.1 296.809 893.063 293.226 885.157 291.73ZM444.875 298.684C446.329 298.876 447.975 299.338 449.355 298.718C447.866 297.953 446.445 298.412 444.875 298.684ZM450.207 298.651C456.365 301.643 467.369 301.89 474.313 303.204C491.446 306.444 508.527 310.549 525.458 314.715C531.593 316.225 537.838 318.447 543.995 319.673C545.355 319.944 546.783 320.263 548.139 319.801C548.66 319.623 548.821 319.52 549.274 319.282C549.34 318.601 549.642 317.916 549.135 317.371C545.143 313.083 461.158 298.348 450.699 298.621C450.534 298.625 450.371 298.641 450.207 298.651ZM673.019 298.452C672.236 299.536 671.691 299.967 671.576 301.343C673.179 302.938 698.503 308.394 701.547 308.398C701.805 308.398 702.063 308.389 702.32 308.385C703.185 307.182 703.925 306.291 704.087 304.764C703.42 303.613 703.435 303.747 702.111 303.399C695.395 301.632 679.631 298.486 673.019 298.452ZM562.111 309.985C561.188 310.782 560.487 311.461 559.956 312.576C557.361 318.026 556.07 324.738 554.474 330.58C551.024 343.413 547.876 356.319 545.031 369.299C543.014 378.163 540.715 387.127 539.678 396.167C553.711 403.995 597.711 409.755 615.52 412.465C627.245 414.302 638.957 416.217 650.656 418.209C679.698 423.213 708.735 428.601 736.758 437.891C743.338 440.073 759.256 444.31 761.043 452.212C761.367 453.646 761.125 454.063 760.554 455.339C759.197 456.473 758.145 456.896 756.347 456.758C753.682 456.553 742.011 451.35 737.943 450.235C736.027 454.873 734.241 459.596 733.154 464.506C741.351 466.938 750.055 468.307 758.4 470.251C762.093 471.347 771.096 474.965 774.538 473.723C777.111 472.795 778.255 468.404 778.924 466.047C781.635 456.509 781.146 435.637 776.564 427.13C775.822 425.753 774.96 424.676 773.366 424.29C772.037 423.968 771.066 423.888 769.835 424.424C767.112 428.83 766.213 434.767 764.99 439.776C760.589 436.634 756.141 432.75 751.249 430.431C735.47 422.954 717.755 419.234 700.824 415.385C668.992 408.15 636.862 402.755 604.664 397.459C590.565 395.14 569.557 392.913 556.999 386.835C560.902 377.57 575.38 321.104 572.496 314.809C571.28 312.153 568.197 311.059 565.572 310.479C564.429 310.227 563.275 310.092 562.111 309.985ZM882.663 310.057C881.867 311.072 881.124 312.412 881.282 313.776C881.452 315.237 882.118 315.822 883.316 316.543C887.918 319.315 900.583 324.836 905.741 325.812C906.428 324.265 908.004 321.59 907.173 319.936C905.367 316.34 890.816 311.73 886.857 310.809C885.471 310.487 884.071 310.256 882.663 310.057ZM436.555 312.673C444.731 314.928 453.742 315.664 462.115 317.201C478.854 320.376 495.528 323.858 512.139 327.649C517.537 328.923 536.246 335.169 540.476 333.936C540.278 332.611 540.424 332.244 539.271 331.438C531.235 325.817 449.637 312.601 436.555 312.673ZM662.523 313.726C662.243 315.52 661.86 316.353 662.631 318.03C665.869 319.516 692.725 325.228 695.428 324.466C695.998 322.993 696.489 322.361 696.118 320.799C691.348 317.755 668.814 314.138 662.523 313.726ZM637.318 322.831C636.005 323.158 635.243 323.296 634.227 324.251L633.98 325.081C634.195 325.38 634.318 325.775 634.625 325.977C636.619 327.29 682.599 337.297 688.849 338.363C689.772 337.122 690.412 336.247 690.723 334.684C690.04 333.375 689.464 333.345 688.04 332.926C679.1 330.293 669.111 328.482 659.917 327.02C652.111 325.78 644.931 325.196 637.318 322.831ZM878.964 325.51C878.127 326.683 877.31 327.604 877.234 329.103C878.585 332.024 894.932 339.172 898.307 340.317C899.041 340.566 899.107 340.56 899.76 340.684C900.789 339.535 901.573 338.755 901.884 337.182C901.654 335.5 900.86 334.579 899.567 333.57C894.371 329.512 885.362 326.977 878.964 325.51ZM434.169 334.866C431.626 337.644 428.861 342.251 428.901 346.127C428.91 346.981 429.2 348.239 429.84 348.831C431.485 350.352 435.19 351.1 437.413 351.597C452.824 355.04 468.776 357.124 484.327 360.005C501.013 363.096 520.715 367.591 537.379 369.379C538.872 368.563 539.13 366.94 539.587 365.352C540.426 362.442 541.158 359.505 541.781 356.541C532.933 354.343 523.864 352.829 514.911 351.087L473.785 343.027C465.453 341.45 457.135 339.802 448.831 338.082C444.013 337.045 439.025 335.543 434.169 334.866ZM579.895 335.137C580.138 336.015 580.009 336.382 580.826 336.883C584.014 338.84 605.885 341.573 610.822 342.394C628.54 345.341 646.297 348.937 663.876 352.64C670.426 354.019 676.955 355.75 683.527 356.98C684.895 357.236 686.118 357.329 687.476 356.976C688.078 355.498 688.461 355.003 688.167 353.403C683.519 348.713 590.225 335.341 579.895 335.137ZM874.044 340.334C873.327 341.497 872.498 342.479 872.684 343.911C874.61 345.535 892.186 354.874 894.31 354.873C894.478 354.873 894.643 354.824 894.809 354.799C895.894 353.504 896.603 352.752 896.728 350.98C895.957 348.341 893.822 346.963 891.496 345.72C886.839 343.231 879.354 340.065 874.044 340.334ZM578.118 351.527C578.28 352.272 578.252 353.372 578.919 353.823C581.797 355.77 598.728 357.619 603.606 358.517C628.336 363.069 652.925 367.921 677.289 374.159C696.972 379.199 716.786 383.722 736.383 389.09C742.005 390.589 747.594 392.202 753.15 393.929C757.014 395.161 760.934 396.805 764.871 397.737C766.622 398.152 768.489 398.375 770.255 397.902C770.41 397.86 770.558 397.795 770.709 397.742C770.913 396.195 771.309 394.66 770.697 393.171C764.001 389.645 749.149 386.746 741.425 384.698C696.432 372.767 651.688 361.721 605.599 354.845C597.045 353.569 586.723 351.02 578.118 351.527ZM870.747 352.289C869.875 353.721 869.079 354.858 868.936 356.578C869.698 358.424 884.305 366.359 887.008 367.433C887.837 367.762 888.759 367.883 889.642 367.953C890.697 366.656 891.248 365.888 891.509 364.22C890.924 361.525 889.094 360 886.814 358.584C881.975 355.579 876.266 353.597 870.747 352.289ZM426.486 361.219C432.419 363.227 439.821 363.52 446.077 364.598C458.871 366.807 471.623 369.237 484.333 371.886C494.022 373.851 503.697 375.88 513.358 377.973C517.7 378.927 523.705 381.073 528.061 381.044C528.68 381.039 529.022 380.844 529.598 380.569C529.843 380.453 530.076 380.313 530.315 380.185L530.189 378.846C523.696 374.375 436.471 359.585 426.486 361.219ZM572.647 367.247L572.887 368.178C577.846 370.123 583.62 370.678 588.837 371.74L616.512 377.534C646.032 383.637 675.851 389.942 704.918 397.9C712.494 399.952 720.014 402.193 727.478 404.622C730.72 405.695 733.951 407.45 737.252 408.18C738.57 408.471 739.615 408.46 740.865 407.902C741.044 407.822 741.214 407.723 741.389 407.634C742.035 406.501 742.686 405.616 742.56 404.255C739.949 400.656 727.469 398.339 723.06 397.101C701.739 391.292 680.278 386.054 658.677 381.388C637.077 376.721 615.368 372.633 593.55 369.122C586.996 368.08 579.241 366.348 572.647 367.247ZM864.391 367.262C863.725 368.539 862.968 369.63 863.143 371.124C864.765 372.753 878.812 379.253 882.596 381.51C883.427 382.006 883.096 381.836 884.105 382.13C885.115 380.586 886.325 379.016 885.741 377.057C884.729 373.663 880.175 371.583 877.156 370.384C873.024 368.743 868.838 367.551 864.391 367.262ZM428.538 377.23C432.529 378.547 437.169 378.82 441.333 379.492C450.406 380.956 459.516 382.324 468.544 384.045C480.857 386.392 493.096 389.267 505.342 391.942C511.126 393.205 517.885 395.42 523.775 395.38C523.444 394.157 523.389 392.743 522.154 392.081C515.32 388.413 436.823 376.205 428.538 377.23ZM861.705 380.44C860.875 381.836 860.275 382.494 860.238 384.138C862.889 386.765 875.635 393.887 879.246 394.173C880.237 393.256 881.334 392.385 881.504 390.952C881.661 389.631 881.091 388.562 880.188 387.651C876.251 383.683 867.166 381.247 861.705 380.44ZM425.222 391.309C425.402 391.496 425.537 391.74 425.763 391.868C426.939 392.537 433.714 393.206 435.442 393.53C456.551 397.637 477.623 401.923 498.658 406.388C541.474 415.061 582.938 427.407 624.53 440.567C647.272 447.763 669.965 454.816 692.479 462.724C697.854 464.612 721.452 473.749 725.482 473.688C726.358 473.675 726.498 473.469 727.21 473.037C727.838 471.444 728.367 470.679 728.081 468.967C723.441 464.886 700.612 459.084 693.195 456.657C641.551 439.756 589.741 423.209 536.765 410.889C513.39 405.452 489.936 401.319 466.298 397.262C457.203 395.7 434.116 390.895 425.775 391.231C425.589 391.238 425.406 391.283 425.222 391.309ZM858.585 395.011C857.504 396.275 855.739 397.93 855.565 399.675C860.271 403.354 866.568 406.123 871.868 408.891C873.084 407.629 874.751 406.089 874.517 404.138C874.276 402.119 871.846 400.483 870.236 399.59C866.944 397.763 862.259 395.844 858.585 395.011ZM786.023 397.792C785.248 399.254 784.754 399.801 784.865 401.479C787.586 405.084 799.528 409.052 804.061 410.868C817.388 416.207 830.714 421.534 843.422 428.265C847.359 430.35 857.622 437.714 860.715 438.225C861.247 438.313 861.422 438.293 861.915 438.285C862.687 436.749 863.476 435.464 863.433 433.69C858.334 423.872 800.505 401.862 789.432 398.366C788.258 397.996 787.25 397.822 786.023 397.792ZM300.331 399.01C299.235 399.459 298.582 399.727 297.795 400.66C294.903 404.088 288.593 420.971 286.488 425.99C280.074 441.291 273.016 457.105 269.505 473.365C265.457 467.588 260.862 454.992 254.459 452.148C253.735 452.246 253.386 452.075 252.96 452.758C250.864 456.124 252.909 463.788 254.036 467.405C255.866 473.282 264.379 492.791 269.875 495.542C270.908 496.059 272.019 495.649 273.003 495.201C274.467 494.535 275.881 493.775 277.244 492.92C286.368 487.552 295.804 482.972 305.169 478.068C307.679 476.753 310.39 475.772 312.743 474.176C314.06 473.282 315.283 472.319 315.686 470.704C315.907 469.821 315.562 469.336 315.277 468.514C314.254 467.584 313.992 467.329 312.521 467.287C308.173 467.165 289.93 475.799 285.02 478.141C289.298 462.073 294.987 446.293 300.168 430.499C302.718 422.727 306.224 413.863 307.317 405.808C307.495 404.499 307.48 403.216 306.762 402.056C305.43 399.904 302.64 399.339 300.331 399.01ZM417.858 406.28C434.151 408.176 452.773 412.347 469.005 415.525C510.249 423.296 551.024 433.031 591.33 444.728C606.288 449.047 621.152 453.669 635.923 458.592C646.845 462.314 658.131 467.096 669.383 469.54C676.794 471.149 684.867 471.006 692.427 471.868C673.082 465.948 654.512 457.895 635.203 451.895C619.939 447.075 604.581 442.574 589.13 438.392C573.679 434.21 558.148 430.351 542.537 426.814C526.926 423.277 511.248 420.066 495.503 417.181C479.758 414.296 463.96 411.738 448.109 409.509C443.561 408.871 421.191 404.809 417.858 406.28ZM836.318 408.516C842.648 411.761 848.945 415.068 855.209 418.437C858.19 420.058 861.647 422.548 864.825 423.593C865.817 423.919 866.347 423.94 867.353 423.761L868.533 422.998C868.944 421.453 869.56 420.44 868.744 418.927C866.223 414.248 854.46 410.349 849.386 409.537C845.21 408.868 840.549 408.61 836.318 408.516ZM390.663 417.857C393.077 419.471 412.734 422.175 417.013 423.046L514.896 442.737C536.584 447.241 558.242 451.722 579.632 457.52C595.96 462.018 612.106 467.096 628.07 472.753C631.496 473.948 640.873 478.371 643.935 477.735C644.726 477.571 645.383 477.134 646.044 476.698C646.561 475.391 647.035 474.84 646.645 473.461C641.838 469.607 634.264 467.777 628.438 465.838C609.698 459.598 590.501 454.983 571.285 450.487C529.353 441.072 487.186 432.865 444.783 425.866C432.713 423.687 420.609 421.715 408.472 419.95C402.724 419.116 396.458 417.925 390.663 417.857ZM810.357 422.927C809.576 424.861 808.432 427.237 809.221 429.319C816.243 432.972 823.583 435.963 830.619 439.632C837.669 443.308 845.03 448.293 852.405 451.11C853.538 451.543 854.361 451.53 855.537 451.267C856.48 449.858 857.381 448.753 857.46 446.993C855.587 442.168 826.209 429.528 820.597 427.058C817.246 425.583 813.858 424.011 810.357 422.927ZM806.503 437.641C805.715 439.383 804.981 440.699 805.194 442.643C805.978 443.967 807.178 444.586 808.476 445.323C816.741 450.012 825.745 453.694 834.27 457.919C838.512 460.021 843.261 463.427 847.783 464.678C848.431 464.857 849.048 464.912 849.716 464.9C850.767 463.56 851.265 463.139 851.515 461.422C849.963 456.856 839.478 452.435 835.22 450.341C827.862 446.723 814.126 439.213 806.503 437.641ZM352.04 450.615C358.952 451.339 365.869 452.728 372.724 453.869C385.994 456.048 399.239 458.369 412.459 460.831C460.598 469.865 508.489 480.062 556.133 491.421C572.673 495.404 589.049 500.131 605.444 504.67C609.688 505.845 617.323 509.09 621.395 509.102L622.295 508.242L624.415 503.275C598.324 494.454 568.592 489.066 541.592 483.204C490.789 472.176 439.572 461.436 388.039 454.438C376.649 452.891 363.407 450.171 352.04 450.615ZM804.792 452.793C803.972 454.012 802.984 455.318 803.215 456.884C803.382 458.014 803.88 458.89 804.846 459.47C812.223 463.899 820.951 466.546 828.663 470.491C833.261 472.843 840.31 477.933 844.525 479.236C845.592 477.864 846.272 476.956 846.591 475.228C846.209 472.769 844.531 471.514 842.595 470.102C835.411 464.861 813.935 453.556 804.792 452.793ZM355.966 465.729C362.198 465.845 368.512 467.133 374.667 468.124C386.955 470.207 399.219 472.421 411.46 474.764C433.001 478.815 454.281 483.637 475.722 488.109C510.021 495.263 544.597 502.556 578.151 512.742C584.981 514.816 609.44 523.394 614.438 523.519C615.612 523.549 616.128 523.066 617.101 522.475C617.582 520.99 617.897 520.751 617.256 519.274C611.586 514.428 600.498 512.669 593.327 510.623C530.855 492.804 466.279 481.364 402.17 471.134C390.244 469.232 368.717 464.688 357.414 465.562C356.93 465.6 356.447 465.656 355.966 465.729ZM801.147 470.426C800.459 471.8 799.93 472.913 800.25 474.512C800.645 476.489 802.15 477.279 803.807 478.08C809.424 480.799 815.338 482.867 821.026 485.432C825.852 487.608 834.644 493.003 839.144 493.871C839.943 492.29 840.955 490.752 840.822 488.925C836.61 481.982 813.584 473.03 805.493 471.125C804.066 470.788 802.602 470.584 801.147 470.426ZM328.801 477.663L465.551 502.211C485.885 505.891 506.457 508.913 526.598 513.544C544.29 517.613 562.047 521.689 579.333 527.27C584.984 529.075 590.577 531.047 596.112 533.184C598.953 534.267 602.126 535.879 605.052 536.578C606.347 536.887 607.079 536.64 608.254 536.106C608.659 534.512 609.11 533.274 608.546 531.652C605.353 527.417 595.646 525.707 590.746 524.237C558.805 514.66 525.917 508.601 493.083 502.966C465.07 498.176 437.027 493.562 408.956 489.125C391.354 486.296 373.767 482.992 356.119 480.515C347.349 479.285 337.678 477.428 328.801 477.663ZM665.019 480.036C659.897 488.45 656.851 499.202 653.245 508.391C643.981 531.997 635.175 555.671 626.426 579.469C622.318 590.643 616.861 601.732 613.51 613.122C660.583 621.57 707.517 629.988 753.75 642.454L754.897 642.358C761.049 634.292 767.196 608.406 770.82 597.638C777.039 579.157 784.585 561.111 791.485 542.879C795.479 532.324 798.512 520.698 803.859 510.762C768.345 499.5 730.737 495.847 694.382 488.291C688.978 487.168 683.479 485.774 678.225 484.1C674.044 482.768 669.356 480.469 665.019 480.036ZM791.178 487.417C790.037 488.405 789.385 488.937 789.036 490.485C789.302 491.623 789.493 492.247 790.507 492.919C795.58 496.277 813.771 501.378 820.789 504.072C825.012 505.692 829.039 508.104 833.246 509.595C834.291 508.225 835.362 506.749 835.2 504.906C835.016 502.803 832.778 501.1 831.162 500.044C823.069 494.76 801.1 488.253 791.178 487.417ZM336.579 498.341C337.749 499.348 339.995 499.499 341.493 499.811C372.59 506.275 403.837 513.19 435.103 518.742C471.187 525.149 507.914 530.295 543.73 537.941C561.095 541.826 578.237 546.521 595.158 552.025C597.597 552.793 601.771 554.697 604.342 554.397C604.852 554.338 605.035 554.257 605.565 554.104C605.82 552.642 606.222 551.188 605.26 549.888C602.21 545.767 585.435 542.9 580.009 541.617C565.761 538.098 551.432 534.948 537.021 532.167C504.901 526.14 472.46 521.797 440.267 516.164C405.768 510.128 371.456 501.999 336.579 498.341ZM805.827 512.324C805.391 518.522 803.72 524.402 801.898 530.316C795.434 551.298 786.834 571.75 779.517 592.465C773.995 608.097 767.595 636.496 759.035 649.181C740.493 644.941 722.209 639.817 703.718 635.394C680.631 629.875 657.413 624.981 634.063 620.712C629.711 619.882 616.252 616.346 613.255 617.803C611.406 620.836 613.005 626.547 613.799 629.822C614.755 633.764 616.006 637.274 618.367 640.627C647.54 645.035 676.629 649.936 705.635 655.33C721.985 658.534 738.928 661.707 754.75 666.984C757.583 667.929 764.215 672.129 766.791 670.216C767.416 669.752 767.99 669.004 768.514 668.424C769.646 668.102 770.638 667.895 771.806 667.755C773.442 667.558 774.487 667.104 775.509 665.768C783.434 655.415 796.954 602.469 801.757 586.781C806.09 572.632 811.163 558.676 815.644 544.563C816.534 541.34 817.528 538.112 818.289 534.859C817.128 530.774 815.514 526.986 813.819 523.105C807.624 544.86 800.235 566.173 793.065 587.616C786.978 605.819 781.287 624.071 774.122 641.9C771.507 648.407 767.975 654.443 765.263 660.878C753.858 655.256 741.606 653.149 729.337 650.265C706.48 644.962 683.49 640.32 660.366 636.339C649.487 634.451 634.106 633.253 624.368 628.758C634.038 629.494 643.689 631.048 653.295 632.362C679.629 635.964 705.544 640.663 731.618 645.749C741.707 647.717 754 648.619 763.272 652.975C773.338 636.501 778.801 616.012 784.757 597.697C789.701 582.495 795.294 567.572 800.601 552.501C804.63 541.06 808.144 529.34 813.134 518.27C810.847 516.067 808.335 514.256 805.827 512.324ZM196.076 514.403C191.039 519.981 186.88 532.151 183.284 539.322C171.832 562.16 160.765 585.281 148.736 607.813L148.963 608.769C153.53 611.156 164.773 611.023 170.174 611.636C208.66 616.002 247.697 623.267 284.688 634.854C287.47 635.868 290.338 636.8 293.06 637.958C299.335 625.153 304.005 611.117 308.747 597.679C315.465 578.638 322.018 559.49 329.428 540.705C315.343 537.282 301.014 534.839 286.755 532.261L237.564 523.293C223.969 520.831 208.899 519.665 196.076 514.403ZM339.098 534.019C350.361 538.347 362.842 540.961 374.621 543.542L422.577 553.688L451.041 559.862C455.598 560.837 460.495 562.275 465.117 562.637C466.308 562.731 467.096 562.346 468.154 561.91C468.193 561.211 468.468 560.658 467.89 560.148C466.789 559.179 464.958 558.794 463.564 558.466C438.059 552.466 411.902 548.307 386.203 543.104C378.207 541.508 370.229 539.829 362.268 538.066C354.913 536.449 346.632 533.835 339.098 534.019ZM338.101 539.293C330.14 547.819 310.532 610.448 305.003 625.454C303.309 630.05 301.952 635.161 299.65 639.478C298.404 641.814 296.82 644.283 294.178 645.106C285.191 642.165 276.582 638.501 267.454 635.869C235.027 626.52 201.982 621.325 168.708 616.148C164.991 615.57 151.084 612.382 148.368 613.643C147.555 614.021 147.261 614.576 146.71 615.253C146.254 616.919 146.645 618.017 147.485 619.452C151.47 626.255 161.881 635.961 169.584 637.765C182.375 640.761 195.772 642.113 208.733 644.376C224.03 647.189 239.278 650.243 254.479 653.536C271.522 657.156 288.274 660.681 304.898 665.992C308.739 663.543 311.198 660.563 313.565 656.742C319.443 647.256 323.329 635.836 327.264 625.423C330.344 617.275 333.658 609.219 336.698 601.056C340.22 591.599 343.481 582.058 347.503 572.793C350.151 566.896 353.703 560.497 351.326 553.867C350.982 552.905 350.569 552.383 349.759 551.743C348.428 551.765 348.257 551.784 347.3 552.844C344.829 555.582 342.82 564.488 341.241 568.371C337.242 578.2 332.75 587.83 328.769 597.667C323.124 611.614 317.54 625.512 311.632 639.355C309.792 643.666 307.977 649.878 305.142 653.575C304.458 654.466 303.487 654.752 302.417 654.921C299.662 655.357 296.558 654.492 293.858 653.928C284.742 652.023 275.732 649.544 266.664 647.415C250.804 643.778 234.925 640.227 219.027 636.762C209.031 634.599 199.033 632.369 189.012 630.329C179.997 628.494 171.217 627.293 162.606 623.919L162.054 623.698C183.203 627.04 204.291 630.728 225.319 634.761C242.675 638.242 259.887 642.43 277.231 645.945C285.47 647.614 293.851 648.572 302.073 650.251C310.441 630.508 318.581 610.648 327.141 590.989C332.38 578.958 340.637 562.353 344.164 550.035C344.762 547.946 344.943 545.708 344.159 543.633C343.465 541.796 341.94 540.5 340.128 539.81C339.474 539.561 338.783 539.434 338.101 539.293ZM486.52 551.679C484.437 552.024 483.236 552.001 481.931 553.845C479.782 556.882 478.336 560.708 476.766 564.076C475.017 567.747 473.388 571.471 471.877 575.247C470.366 579.023 468.977 582.843 467.711 586.708C466.444 590.572 465.303 594.473 464.286 598.411C463.269 602.348 462.378 606.314 461.615 610.309C460.442 616.151 460.165 622.668 458.478 628.313C457.103 628.47 456.549 628.181 455.474 627.289C451.616 624.086 445.977 612.101 445.166 611.659C444.816 611.467 444.384 611.498 443.992 611.418C442.318 611.997 441.01 613.096 440.207 614.697C438.337 618.423 439.345 623.635 440.789 627.316C443.476 634.164 451.406 644.541 458.325 647.285C462.18 648.814 466.196 647.703 469.767 645.969C478.563 641.699 487.358 631.712 490.445 622.435C491.047 620.628 491.405 619.02 491.249 617.119L490.531 616.224C488.891 616.11 487.58 617.172 486.392 618.191C481.578 622.32 477.857 627.775 472.235 630.942C472.414 619.7 475.549 607.239 478.51 596.397C481.054 585.558 484.497 575.336 489.722 565.468C517.912 565.71 545.491 571.709 572.764 578.241C578.455 579.605 604.102 587.057 607.638 585.361C608.618 583.456 608.95 581.542 608.295 579.45C607.344 576.414 604.377 574.529 601.659 573.233C574.327 560.195 517.146 553.318 486.52 551.679ZM360.928 556.137C362.216 556.959 363.326 557.342 364.799 557.702C381.596 561.799 398.946 564.501 415.934 567.782C427.226 569.962 438.502 572.883 449.83 574.741C450.939 574.922 452.034 575.065 453.138 574.785C453.322 574.739 453.494 574.652 453.671 574.585C453.525 573.831 453.591 572.82 452.927 572.354C448.194 569.038 371.327 557.047 360.928 556.137ZM353.65 576.153C356.195 577.434 434.615 595.905 436.72 595.881C436.858 595.88 438.05 595.511 438.104 595.49C438.437 595.357 438.813 595.114 439.123 594.925L439.167 593.562C435.554 590.383 362.147 575.665 354.995 576.024C354.543 576.047 354.098 576.101 353.65 576.153ZM495.124 588.142C496.127 589.59 497.232 589.981 498.879 590.518C507.041 593.178 515.717 594.65 524.04 596.824C542.833 601.733 561.729 606.846 580.229 612.774C585.579 614.495 590.903 616.292 596.202 618.167C598.822 619.117 601.932 620.704 604.628 621.237C605.339 621.377 605.927 621.349 606.622 621.242C606.91 619.588 607.358 618.118 606.645 616.517C598.324 610.519 504.303 586.916 495.124 588.142ZM347.256 592.617C348.245 593.328 349.058 593.738 350.233 594.058C366.973 598.628 384.351 601.719 401.302 605.448C410.792 607.535 420.302 610.541 429.827 612.25C430.584 612.385 431.394 612.372 432.152 612.258C432.393 610.81 432.709 610.067 432.148 608.688C423.325 605.25 354.632 591.978 347.256 592.617ZM498.882 607.526L498.371 609.506C499.679 611.286 518.245 615.158 521.736 616.02C539.547 620.469 557.158 625.605 574.568 631.428C581.807 633.84 599.229 640.742 605.502 641.668C606.067 641.751 606.597 641.776 607.167 641.785C607.581 640.072 608.019 639.138 607.537 637.42C597.237 629.914 514.877 609.73 498.882 607.526ZM341.113 611.169C346.284 613.535 363.585 616.097 370.376 617.498C385.423 620.661 400.435 623.984 415.412 627.466C419.265 628.344 424.867 630.354 428.74 629.726C428.73 628.076 429.04 627.474 427.874 626.246C418.5 623.583 408.482 622.102 398.907 620.208C381.266 616.718 358.787 611.716 341.113 611.169ZM502.962 629.547C503.319 630.761 503.221 631.203 504.393 631.819C510.06 634.798 536.032 640.23 544.597 642.493C556.047 645.519 567.424 649.173 578.726 652.712C591.517 656.685 604.225 660.911 616.848 665.389C629.471 669.868 642 674.596 654.435 679.573C666.87 684.55 679.202 689.772 691.429 695.239C703.656 700.707 715.77 706.416 727.77 712.365C730.927 713.935 741.255 720.062 744.215 718.475C744.709 718.21 745.208 717.762 745.639 717.402C746.204 715.965 746.782 715.066 746.576 713.518C741.074 708.665 728.584 703.874 721.564 700.621C702.754 691.906 683.744 683.302 664.435 675.751C644.472 668.119 624.299 661.086 603.917 654.653C583.536 648.22 562.981 642.397 542.253 637.185C534.175 635.081 511.369 628.823 503.724 629.468C503.469 629.49 503.216 629.521 502.962 629.547ZM331.987 631.184C336.52 633.312 342.324 634.154 347.196 635.308C355.573 637.254 363.933 639.267 372.278 641.347L459.329 662.244C476.211 666.36 493.278 670.309 509.899 675.386C560.668 690.893 611.611 706.841 661.331 725.477C676.572 731.244 691.654 737.401 706.577 743.947C712.099 746.344 726.007 753.463 730.776 754.339C731.354 754.095 731.956 753.879 732.497 753.562C733.149 751.989 733.59 750.971 733.365 749.258C727.914 739.132 582.37 692.3 562.281 686.262C503.241 668.518 443.586 654.191 383.453 640.731C372.307 638.236 341.738 630.381 331.987 631.184ZM492.58 645.596C493.056 647.01 492.969 647.463 494.348 648.145C501.185 651.528 514.832 654.272 522.734 656.716C542.299 662.891 561.775 669.337 581.161 676.054C598.979 682.327 616.472 689.546 633.98 696.626C665.321 709.215 696.425 722.363 727.292 736.071C729.237 736.929 734.013 739.804 736.081 738.752C736.459 738.56 737.032 738.049 737.369 737.765C738.007 736.176 738.792 734.72 738.563 732.967C736.167 730.099 713.034 722.041 708.41 720.144C673.584 705.862 638.925 691.204 603.545 678.314C580.581 669.933 557.343 662.397 533.831 655.706C522.11 652.278 507.042 646.737 494.921 645.588C494.137 645.514 493.363 645.547 492.58 645.596ZM663.66 659.288C662.622 660.29 661.404 661.072 661.018 662.477C668.125 667.896 688.02 675.253 697.152 679.524C709.809 685.442 722.321 691.654 735.008 697.51C740.656 700.116 746.435 703.207 752.355 705.112C753.675 703.567 755.031 701.927 754.858 699.769C754.798 699.028 754.531 698.479 753.963 697.978C751.131 695.482 737.777 690.567 733.561 688.685C725.395 685.039 717.402 681.014 709.235 677.368C698.726 672.747 688.125 668.349 677.432 664.174C673.473 662.59 667.842 659.503 663.66 659.288ZM318.333 661.639C322.033 663.402 358.927 673.068 361.215 672.402C361.43 672.339 361.63 672.233 361.837 672.149C361.652 671.357 361.738 670.658 361.008 670.192C356.593 667.37 323.907 660.914 318.333 661.639ZM373.785 662.996C371.801 664.234 371.018 665.129 370.121 667.291C367.748 673.01 366.433 679.247 364.377 685.1C360.933 694.905 356.681 704.527 352.756 714.151L337.604 750.528C334.863 757.015 331.534 763.364 329.657 770.17C336.506 771.901 343.853 772.349 350.871 773.235C361.894 774.579 372.89 776.114 383.86 777.84C413.341 782.482 442.196 789.443 470.895 797.536C471.608 797.657 472.322 798.01 472.963 797.571C477.177 794.685 509.062 701.886 513.544 690.289C486.902 683.916 459.523 679.279 432.525 674.633C412.808 671.24 393.154 668.088 373.785 662.996ZM734.064 669.257C732.967 670.332 732.274 670.924 732.053 672.53C732.644 675.261 734.681 676.871 736.933 678.353C740.889 680.955 756.652 689.623 760.771 689.131C761.835 688.036 762.625 687.327 762.933 685.762C762.625 684.105 762.34 683.442 760.9 682.502C756.273 679.482 739.155 670.484 734.064 669.257ZM226.474 670.374C227.325 670.83 226.925 670.827 227.648 670.623L226.926 670.199L226.474 670.374ZM231.48 670.3C233.444 671.926 246.61 672.599 250.168 673.148C264.419 675.348 278.807 678.178 292.892 681.29C301.149 683.114 348.714 695.136 352.59 694.818C353.072 694.778 353.219 694.719 353.722 694.598C353.464 693.34 353.571 692.814 352.459 692.052C345.728 687.439 239.82 668.738 231.87 670.194C231.737 670.219 231.61 670.265 231.48 670.3ZM225.653 681.571C236.071 684.318 247.255 685.644 257.869 687.655C276.014 691.148 294.103 694.913 312.135 698.951C318.374 700.345 344.09 707.116 348.732 706.174C348.685 705.398 348.864 704.421 348.29 703.832C347.159 702.672 345.227 702.292 343.707 701.903C327.425 697.74 310.341 695.336 293.804 692.251C280.137 689.677 266.446 687.244 252.729 684.951C244.188 683.507 234.328 681.165 225.653 681.571ZM528.403 692.035C528.871 693.779 529.884 694.586 531.393 695.442C536.615 698.403 543.058 700.182 548.683 702.259L575.611 712.363C606.639 723.87 637.633 735.309 668.136 748.175C680.583 753.52 692.959 759.024 705.264 764.687C710.533 767.141 715.624 770.076 720.983 772.321C722.419 772.922 723.676 773.399 725.248 773.481L726.846 772.549C727.615 771.246 728.256 770.295 728.291 768.728C727.404 766.395 725.468 765.171 723.271 764.152C713.085 759.43 702.307 755.409 691.94 751.038C654.102 734.8 615.676 720.099 576.661 706.936C562.795 702.119 542.55 693.677 528.403 692.035ZM519.521 692.224C519.426 692.394 519.328 692.563 519.236 692.735C511.039 707.882 483.685 800.452 475.415 804.143C471.438 805.918 439.148 795.552 432.286 793.82C407.275 787.509 381.759 783.281 356.27 779.46C346.718 778.028 336.788 775.873 327.136 775.527C328.93 781.076 336.55 794.097 341.805 796.713C347.683 799.639 355.105 800.729 361.484 802.168C376.421 805.539 391.494 808.238 406.512 811.219C430.302 815.941 454.305 821.831 478.356 825.035C481.567 825.463 487.693 826.41 490.737 825.164C494.981 823.427 522.35 743.301 525.538 733.309C527.161 727.875 532.291 713.276 529.669 708.48C529.385 707.962 529.36 707.967 529.029 707.589C527.88 708.151 527.344 708.721 526.8 709.87C522.433 719.089 519.38 729.011 515.852 738.58L499.369 781.972C495.247 792.645 490.943 804.382 484.624 813.993C475.029 814.262 465.556 812.542 456.107 811.059C433.189 807.463 410.532 802.339 387.889 797.342C373.309 794.124 358.167 791.536 343.945 786.971C354.787 787.517 366.108 790.179 376.824 792.022L445.477 804.148C457.123 806.094 470.28 808.856 482.103 808.435C488.882 798.819 493.246 785.786 497.444 774.783C503.047 759.913 508.741 745.078 514.525 730.277C518.559 720.025 522.378 709.516 527.837 699.914C525.549 696.925 523.387 693.183 519.521 692.224ZM232.418 709.606C243.894 712.249 255.853 713.315 267.454 715.484C285.901 718.932 304.198 723.403 322.495 727.572C326.68 728.526 336.077 731.828 339.974 730.555C339.908 729.834 340.055 728.924 339.484 728.403C335.704 724.953 239.807 708.859 232.418 709.606ZM535.371 713.003L534.309 714.271C534.422 715.52 534.472 715.74 535.502 716.612C537.124 717.984 572.196 729.026 576.922 730.601C609.96 741.61 643.201 754.373 674.639 769.361L704.582 783.613C708.68 785.607 712.631 788.129 716.784 789.963C717.735 790.383 718.609 790.496 719.642 790.371C720.655 789.059 721.439 788.099 721.785 786.427C721.45 784.561 720.389 783.466 718.866 782.41C713.538 778.718 702.873 774.707 696.74 771.862C655.307 752.642 613.394 735.804 569.737 722.311C558.633 718.879 546.896 714.479 535.371 713.003ZM212.935 718.608C221.277 721.4 230.614 722.739 239.257 724.626L294.878 736.698C302.085 738.265 309.276 739.907 316.45 741.623C321.571 742.878 328.599 745.698 333.748 745.658C333.673 744.275 333.893 743.551 332.976 742.449C324.706 739.311 315.133 737.86 306.472 736.057C291.921 733.037 277.354 730.103 262.769 727.255C251.971 725.139 222.754 718.142 212.935 718.608ZM533.067 728.854C533.254 730.358 533.029 730.868 534.336 731.756C536.838 733.456 540.608 734.651 543.42 735.917C554.713 741.001 566.045 745.64 577.584 750.126C601.482 759.178 625.194 768.694 648.719 778.675C662.266 784.552 675.688 790.705 688.983 797.132C696.456 800.74 704.117 805.261 711.871 808.132C713.286 808.655 714.445 808.594 715.909 808.264C716.288 806.828 716.762 805.432 716.04 804.011C714.138 800.268 706.004 797.747 702.212 795.838C666.734 777.975 629.698 763.57 592.641 749.369C573.782 742.143 554.228 733.678 534.529 729.151C534.044 729.04 533.558 728.935 533.067 728.854ZM209.158 739.832C209.353 740.025 209.508 740.27 209.743 740.411C210.732 741.003 217.935 741.65 219.635 741.929C230.555 743.72 241.438 745.714 252.284 747.911C268.773 751.188 285.191 754.789 301.538 758.712C307.677 760.204 319.107 764.071 324.508 764.509C325.271 764.571 325.86 764.429 326.565 764.211L326.295 762.387C320.489 758.405 217.742 738.253 209.158 739.832ZM529.956 746.987C529.793 747.685 529.381 748.32 529.867 748.941C532.197 751.916 616.062 786.78 629.022 792.448C640.739 797.483 652.349 802.756 663.85 808.266C670.978 811.643 678.163 814.945 685.217 818.471C690.228 820.976 701.827 828.168 706.759 829.123L708.861 828.409C709.623 826.777 710.305 825.544 710.188 823.713C709.288 821.424 707.909 820.8 705.787 819.878C693.119 814.37 680.778 808.124 668.165 802.481C633.772 787.11 599.053 772.515 564.008 758.695C554.592 755.065 539.672 748.192 529.956 746.987ZM520.984 763.335C520.755 764.515 520.394 764.911 521.005 765.992C527.845 769.554 535.756 771.823 543.018 774.462C555.117 778.841 567.164 783.356 579.159 788.009C608.6 799.438 636.955 812.619 665.416 826.257C672.521 829.588 679.541 833.09 686.476 836.763C690.717 838.997 695.885 842.49 700.457 843.876C701.671 844.244 702.444 843.796 703.601 843.432C704.446 842.133 704.943 841.321 705.059 839.717C704.329 837.279 702.186 835.985 700.035 834.84C695.709 832.537 691.128 830.684 686.759 828.451C675.478 822.692 664.088 817.158 652.589 811.849C641.09 806.54 629.491 801.459 617.792 796.608C606.093 791.757 594.302 787.138 582.42 782.751C570.539 778.364 558.575 774.214 546.53 770.299C538.449 767.754 529.465 764.042 520.984 763.335ZM199.856 766.509C208.357 769.402 218.279 770.614 227.099 772.462C247.154 776.665 267.284 780.659 287.248 785.265C295.43 787.153 327.586 796.137 333.244 795.922C332.938 794.568 333.041 793.38 331.631 792.72C327.035 790.567 317.854 789.2 312.596 787.986C287.853 782.379 263.007 777.269 238.06 772.654C225.573 770.333 212.535 767.278 199.856 766.509ZM515.576 783.457C515.996 785.522 516.503 786.456 518.252 787.661C521.348 789.793 525.67 790.955 529.168 792.392L552.51 802.043C580.515 813.591 608.313 825.619 635.902 838.128C644.868 842.24 653.956 846.291 662.752 850.75C669.776 854.311 688.497 865.722 695.014 866.804L696.818 866.244C697.509 864.807 697.952 863.93 697.761 862.277C695.722 858.198 678.26 850.871 673.278 848.456C661.338 842.67 649.528 836.622 637.457 831.108C614.828 820.772 591.505 811.502 568.312 802.513C553.028 796.589 537.694 790.451 522.162 785.205C520.025 784.483 517.82 783.738 515.576 783.457ZM512.142 800.339C512.536 802.19 512.673 803.084 514.335 804.222C518.002 806.734 523.245 808.308 527.39 810.026C536.588 813.782 545.76 817.6 554.906 821.48C587.129 835.299 619.106 848.988 650.087 865.496C654.952 868.088 686.454 886.215 688.992 885.856C689.829 885.738 690.732 885.36 691.529 885.077C691.792 883.412 692.072 882.271 691.302 880.68C687.183 876.528 679.829 873.54 674.639 870.739C652.787 859.004 630.563 848.022 607.967 837.792C585.371 827.563 562.455 818.109 539.219 809.431C532.809 806.975 518.612 800.744 512.142 800.339ZM503.51 817.316C502.66 818.42 501.79 819.067 501.769 820.494C508.684 824.89 527.66 831.188 536.336 834.821C557.891 843.884 579.22 853.454 600.321 863.53C619.747 872.791 638.866 883.195 657.809 893.412C664.222 896.87 673.86 903.673 680.302 905.788C681.326 904.664 682.452 903.58 682.498 901.951C682.543 900.337 681.54 899.088 680.348 898.132C675.051 893.889 659.751 886.571 652.988 882.998C613.34 862.056 572.834 842.434 530.708 826.945C521.701 823.633 512.721 820.018 503.51 817.316ZM465.654 827.533C470.044 831.524 490.43 837.458 496.89 839.739C524.947 849.795 552.713 860.597 580.189 872.146C600.176 880.603 619.666 889.708 640.191 896.866C644.784 898.468 649.89 900.796 654.67 901.588C633.449 883.393 532.471 845.869 503.404 836.699C492.263 833.184 477.129 828.656 465.654 827.533Z" fill="#192E36"/>
<path d="M385.865 48.2342C392.599 40.4026 398.946 38.0565 408.921 36.6823C409.304 36.6365 409.687 36.585 410.072 36.5566C425.376 35.4277 453.119 40.1066 465.204 50.1503C462.997 53.413 461.16 56.7082 459.401 60.2314L446.803 57.4096C426.936 52.6887 406.151 50.4365 385.865 48.2342Z" fill="#192E36"/>
<path d="M484.926 60.8279C492.362 54.2999 499.766 52.0325 509.478 51.2079C521.083 50.1524 535.123 52.8364 544.773 59.5765C541.727 62.0167 539.522 64.4261 537.404 67.6718C532.914 66.8706 528.389 66.2237 523.884 65.5155C511.04 63.3099 497.919 61.7998 484.926 60.8279Z" fill="#192E36"/>
<path d="M570.971 63.3593C575.134 61.2012 578.607 60.185 583.268 59.6841C596.116 58.1891 609.998 61.1996 620.874 68.1759C619.973 69.4722 618.922 70.6616 617.912 71.873L610.794 70.6296C597.505 68.2062 584.051 66.8486 570.971 63.3593Z" fill="#192E36"/>
<path d="M639.057 74.5765C644.902 68.9232 651.506 67.6044 659.312 66.6865C659.749 66.696 660.186 66.7139 660.623 66.7403C672.945 67.4952 687.097 71.774 695.528 81.1768C694.354 82.6106 693.114 83.9986 691.907 85.4054C687.979 84.3734 684.021 83.5788 680.037 82.793C666.591 80.0455 652.046 79.0704 639.057 74.5765Z" fill="#192E36"/>
<path d="M559.658 72.6134C561.483 70.6796 563.499 69.0407 565.552 67.3623C581.868 69.6133 598.979 72.3302 614.812 76.8469C613.666 78.6332 612.401 81.4003 610.41 82.1084C593.536 78.7132 576.619 75.5482 559.658 72.6134Z" fill="#192E36"/>
<path d="M715.25 87.3745C723.564 79.7691 731.006 78.4376 741.868 77.7185C742.01 77.7104 742.153 77.7008 742.295 77.6944C754.884 77.1291 770.847 79.704 780.421 88.4436C777.312 91.2637 774.297 94.1815 771.376 97.1971C766.784 96.1827 762.161 95.2826 757.554 94.3316C743.49 91.7806 729.335 89.8071 715.25 87.3745Z" fill="#192E36"/>
<path d="M631.393 84.9924C632.413 83.0222 633.622 81.3453 634.949 79.5781C652.402 82.2671 671.465 85.9546 688.345 91.1304C687.425 92.2873 686.388 93.3264 685.361 94.3868C678.281 92.305 670.832 91.2426 663.567 89.9844C652.86 88.1303 642.181 86.3266 631.393 84.9924Z" fill="#192E36"/>
<path d="M848.119 180.58C847.975 180.508 847.83 180.439 847.687 180.365L846.975 179.994C846.056 179.519 845.125 179.054 844.267 178.471C839.024 174.905 836.341 168.305 835.101 162.3C831.531 145.003 836.055 125.754 845.71 111.126C852.514 100.819 861.154 94.5531 873.258 92.108C877.725 91.7199 881.874 92.0046 886.253 92.9744C893.85 94.6568 916.932 103.262 920.94 109.547L920.679 110.254C915.843 111.647 907.215 105.068 902.667 103.097C898.78 101.39 894.773 100.039 890.646 99.045C880.946 96.7377 872.38 96.7077 863.678 102.152C853.019 108.82 848.236 122.196 845.619 133.877C841.816 151.248 844.951 163.762 848.119 180.58Z" fill="#192E36"/>
<path d="M706.331 97.8458C707.139 96.2067 708.049 94.6124 708.923 93.0083C725.754 93.8375 751.557 98.1486 767.826 102.862L765.534 107.017C746.994 100.908 725.68 99.8953 706.331 97.8458Z" fill="#192E36"/>
<path d="M789.381 104.473C795.256 98.0624 801.245 94.9961 809.865 93.6517C821.366 92.3157 835.073 97.4973 844.302 104.081C841.885 107.728 839.619 111.431 837.415 115.211L827.637 113.319C814.82 110.373 801.957 108.466 789.381 104.473Z" fill="#192E36"/>
<path d="M856.932 119.617C857.367 118.727 857.817 117.87 858.339 117.027C861.377 112.117 865.959 105.026 871.892 103.642C886.488 103.125 901.509 108.856 913.545 116.829C910.156 120.806 907.495 125.035 905.003 129.617L898.852 128.081C884.992 124.699 871.019 121.878 856.932 119.617Z" fill="#192E36"/>
<path d="M922.049 127.444C915.605 138.766 911.713 153.419 911.846 166.486C911.886 170.463 914.299 185.304 913.207 187.848C912.667 188.121 912.392 188.487 911.777 188.16C908.308 186.314 904.607 176.404 903.769 172.65C900.413 157.617 905.878 138.152 914.18 125.511C920.507 115.877 928.616 109.396 940.044 107.096C940.575 107.052 941.107 107.015 941.64 107.009C954.757 106.848 970.158 116.188 979.198 125.136C982.679 128.581 989.26 137.792 989.307 142.644C988.41 142.64 988.755 142.803 988.13 142.169C986.608 140.627 985.44 138.141 984.285 136.285C980.347 129.956 976.146 125.252 969.897 121.107C961.42 115.484 949.311 111.309 939.107 113.602C931.181 115.383 926.31 120.967 922.049 127.444Z" fill="#192E36"/>
<path d="M924.714 132.907C929.568 126.539 933.995 120.942 941.02 116.858C945.369 118.021 949.85 118.541 954.225 119.569C967.873 122.774 975.854 130.56 983.801 141.519C978.698 141.088 973.592 140.709 968.481 140.382C953.748 138.735 939.159 136.243 924.714 132.907Z" fill="#192E36"/>
</g>
<defs>
<clipPath id="clip0_145_629">
<rect width="1024" height="1024" fill="white"/>
</clipPath>
</defs>
</svg>
